{"glyphs":{"0":{"ha":853,"x_min":49,"x_max":804,"o":"m 426 -18 q 230 33 315 -18 q 97 170 144 85 q 49 360 49 256 l 49 610 q 97 799 49 714 q 230 936 144 885 q 426 988 315 988 q 624 936 539 988 q 756 799 708 885 q 804 610 804 714 l 804 360 q 756 170 804 256 q 624 33 708 85 q 426 -18 539 -18 m 426 163 q 560 225 517 163 q 603 382 603 288 l 603 586 q 560 749 603 692 q 426 807 517 807 q 294 749 338 807 q 250 586 250 692 l 250 382 q 294 225 250 288 q 426 163 338 163 z "},"1":{"ha":407,"x_min":-29,"x_max":333,"o":"m 139 0 l 139 756 l -29 756 l -29 776 l 139 972 l 333 972 l 333 0 l 139 0 z "},"2":{"ha":765,"x_min":24,"x_max":717,"o":"m 24 0 l 24 22 l 413 481 q 483 578 457 532 q 510 669 510 625 q 472 771 510 732 q 367 810 435 810 q 262 769 299 810 q 225 653 225 728 l 24 653 q 69 829 24 753 q 192 948 114 906 q 369 990 269 990 q 547 949 471 990 q 667 837 624 907 q 711 681 711 767 q 693 570 711 622 q 626 457 675 518 l 475 260 q 435 213 457 236 q 389 171 414 189 l 717 171 l 717 0 l 24 0 z "},"3":{"ha":725,"x_min":14,"x_max":686,"o":"m 357 -18 q 108 61 201 -18 q 14 290 14 140 l 208 290 q 248 183 208 217 q 357 150 288 150 q 460 186 426 150 q 493 271 493 222 q 448 382 493 344 q 331 419 403 419 l 232 419 l 232 578 l 331 578 q 444 609 401 578 q 486 701 486 640 q 455 787 486 751 q 357 822 424 822 q 253 791 292 822 q 214 694 214 760 l 26 694 q 117 913 26 835 q 357 990 207 990 q 528 953 458 990 q 636 852 599 915 q 674 710 674 789 q 647 589 674 642 q 558 506 619 536 q 653 412 619 472 q 686 261 686 351 q 647 119 686 183 q 535 19 608 56 q 357 -18 463 -18 z "},"4":{"ha":796,"x_min":14,"x_max":789,"o":"m 483 0 l 483 249 l 14 249 l 14 311 l 513 972 l 678 972 l 678 404 l 789 404 l 789 249 l 678 249 l 678 0 l 483 0 m 485 535 q 485 610 485 561 q 490 697 486 658 q 462 651 476 674 q 432 610 447 629 l 274 404 l 485 404 l 485 535 z "},"5":{"ha":736,"x_min":21,"x_max":703,"o":"m 326 -18 q 174 -3 246 -18 q 21 57 101 13 l 92 226 q 193 181 138 200 q 313 163 249 163 q 455 204 408 163 q 501 315 501 246 q 456 430 501 385 q 299 475 410 475 q 184 459 239 475 q 74 414 129 443 l 164 972 l 625 972 l 625 801 l 315 801 l 289 629 q 330 638 310 636 q 371 639 350 639 q 560 593 488 639 q 668 474 633 547 q 703 315 703 400 q 656 144 703 219 q 524 25 608 68 q 326 -18 439 -18 z "},"6":{"ha":761,"x_min":28,"x_max":742,"o":"m 383 -18 q 199 25 279 -18 q 73 144 118 68 q 28 315 28 219 q 41 422 28 368 q 106 553 54 476 l 382 972 l 608 972 l 383 631 q 572 603 492 640 q 697 490 653 565 q 742 315 742 415 q 696 144 742 219 q 569 25 650 68 q 383 -18 489 -18 m 383 163 q 499 208 458 163 q 540 315 540 253 q 522 394 540 357 q 469 456 504 432 q 385 479 435 479 q 301 456 336 479 q 247 394 265 432 q 229 315 229 357 q 270 208 229 253 q 383 163 311 163 z "},"7":{"ha":696,"x_min":-14,"x_max":718,"o":"m 51 0 l 410 757 q 438 801 419 778 l -14 801 l -14 972 l 715 972 l 718 951 l 260 0 l 51 0 z "},"8":{"ha":739,"x_min":33,"x_max":706,"o":"m 369 -18 q 190 19 265 -18 q 74 119 114 56 q 33 261 33 183 q 74 413 33 353 q 175 506 114 474 q 91 590 121 538 q 61 714 61 643 q 97 856 61 793 q 201 954 132 918 q 369 990 269 990 q 539 954 471 990 q 642 856 607 918 q 678 714 678 793 q 564 506 678 572 q 665 413 625 472 q 706 261 706 353 q 665 119 706 183 q 550 19 625 56 q 369 -18 475 -18 m 369 581 q 458 616 424 581 q 493 706 492 651 q 460 790 494 756 q 369 824 426 824 q 281 790 315 824 q 247 706 247 756 q 281 616 247 651 q 369 581 315 581 m 369 149 q 473 190 432 149 q 514 286 514 231 q 473 387 514 347 q 369 426 432 426 q 266 387 307 426 q 225 286 225 347 q 266 190 225 231 q 369 149 307 149 z "},"9":{"ha":763,"x_min":21,"x_max":735,"o":"m 153 0 l 379 342 q 189 369 269 332 q 65 482 108 407 q 21 657 21 557 q 67 829 21 754 q 194 947 113 904 q 379 990 275 990 q 565 947 485 990 q 690 829 644 904 q 735 657 735 754 q 722 551 735 604 q 657 419 708 497 l 379 0 l 153 0 m 378 493 q 463 517 428 493 q 515 578 497 540 q 533 657 533 615 q 493 765 533 719 q 379 810 453 810 q 263 765 304 810 q 222 657 222 719 q 240 578 222 615 q 294 517 258 540 q 378 493 329 493 z "},"A":{"ha":908,"x_min":-26,"x_max":935,"o":"m -26 0 l 371 972 l 539 972 l 935 0 l 724 0 l 657 185 l 251 185 l 185 0 l -26 0 m 419 618 l 315 353 l 593 353 l 489 618 q 454 729 468 674 q 419 618 440 669 z "},"Á":{"ha":908,"x_min":-26,"x_max":935,"o":"m -26 0 l 371 972 l 539 972 l 935 0 l 724 0 l 657 185 l 251 185 l 185 0 l -26 0 m 419 618 l 315 353 l 593 353 l 489 618 q 454 729 468 674 q 419 618 440 669 m 386 1036 l 447 1278 l 639 1278 l 517 1036 l 386 1036 z "},"Ă":{"ha":908,"x_min":-26,"x_max":935,"o":"m -26 0 l 371 972 l 539 972 l 935 0 l 724 0 l 657 185 l 251 185 l 185 0 l -26 0 m 419 618 l 315 353 l 593 353 l 489 618 q 454 729 468 674 q 419 618 440 669 m 454 1024 q 292 1078 353 1024 q 232 1217 232 1132 l 381 1217 q 398 1163 379 1188 q 454 1139 417 1139 q 512 1163 494 1139 q 528 1217 529 1188 l 676 1217 q 617 1078 676 1132 q 454 1024 557 1024 z "},"Ắ":{"ha":908,"x_min":-26,"x_max":935,"o":"m -26 0 l 371 972 l 539 972 l 935 0 l 724 0 l 657 185 l 251 185 l 185 0 l -26 0 m 419 618 l 315 353 l 593 353 l 489 618 q 454 729 468 674 q 419 618 440 669 m 454 1024 q 292 1078 353 1024 q 232 1217 232 1132 l 381 1217 q 398 1163 379 1188 q 454 1139 417 1139 q 512 1163 494 1139 q 528 1217 529 1188 l 676 1217 q 617 1078 676 1132 q 454 1024 557 1024 m 386 1258 l 447 1500 l 639 1500 l 517 1258 l 386 1258 z "},"Ặ":{"ha":908,"x_min":-26,"x_max":935,"o":"m -26 0 l 371 972 l 539 972 l 935 0 l 724 0 l 657 185 l 251 185 l 185 0 l -26 0 m 419 618 l 315 353 l 593 353 l 489 618 q 454 729 468 674 q 419 618 440 669 m 463 -296 q 383 -263 415 -296 q 350 -185 350 -231 q 383 -108 350 -140 q 463 -75 415 -75 q 543 -108 511 -75 q 575 -185 575 -140 q 543 -264 575 -232 q 463 -296 511 -296 m 454 1024 q 292 1078 353 1024 q 232 1217 232 1132 l 381 1217 q 398 1163 379 1188 q 454 1139 417 1139 q 512 1163 494 1139 q 528 1217 529 1188 l 676 1217 q 617 1078 676 1132 q 454 1024 557 1024 z "},"Ằ":{"ha":908,"x_min":-26,"x_max":935,"o":"m -26 0 l 371 972 l 539 972 l 935 0 l 724 0 l 657 185 l 251 185 l 185 0 l -26 0 m 419 618 l 315 353 l 593 353 l 489 618 q 454 729 468 674 q 419 618 440 669 m 454 1024 q 292 1078 353 1024 q 232 1217 232 1132 l 381 1217 q 398 1163 379 1188 q 454 1139 417 1139 q 512 1163 494 1139 q 528 1217 529 1188 l 676 1217 q 617 1078 676 1132 q 454 1024 557 1024 m 394 1258 l 257 1500 l 478 1500 l 525 1258 l 394 1258 z "},"Ẳ":{"ha":908,"x_min":-26,"x_max":935,"o":"m -26 0 l 371 972 l 539 972 l 935 0 l 724 0 l 657 185 l 251 185 l 185 0 l -26 0 m 419 618 l 315 353 l 593 353 l 489 618 q 454 729 468 674 q 419 618 440 669 m 454 1024 q 292 1078 353 1024 q 232 1217 232 1132 l 381 1217 q 398 1163 379 1188 q 454 1139 417 1139 q 512 1163 494 1139 q 528 1217 529 1188 l 676 1217 q 617 1078 676 1132 q 454 1024 557 1024 m 451 1246 q 374 1264 413 1246 l 406 1357 q 422 1351 413 1353 q 438 1350 432 1350 q 485 1392 485 1350 q 473 1418 485 1407 q 446 1429 461 1429 q 417 1418 428 1429 q 406 1388 406 1407 l 289 1388 q 335 1496 289 1454 q 447 1538 381 1538 q 560 1499 515 1538 q 606 1396 606 1461 q 564 1287 606 1328 q 451 1246 522 1246 z "},"Ẵ":{"ha":908,"x_min":-26,"x_max":935,"o":"m -26 0 l 371 972 l 539 972 l 935 0 l 724 0 l 657 185 l 251 185 l 185 0 l -26 0 m 419 618 l 315 353 l 593 353 l 489 618 q 454 729 468 674 q 419 618 440 669 m 454 1024 q 292 1078 353 1024 q 232 1217 232 1132 l 381 1217 q 398 1163 379 1188 q 454 1139 417 1139 q 512 1163 494 1139 q 528 1217 529 1188 l 676 1217 q 617 1078 676 1132 q 454 1024 557 1024 m 567 1246 q 497 1259 525 1246 q 447 1290 468 1272 q 406 1322 426 1308 q 357 1335 385 1335 q 306 1311 319 1335 q 293 1265 293 1288 l 174 1265 q 201 1374 174 1331 q 270 1438 228 1417 q 358 1460 313 1460 q 430 1447 400 1460 q 483 1417 460 1433 q 525 1387 506 1400 q 565 1374 544 1374 q 606 1399 597 1374 q 614 1444 614 1425 l 735 1444 q 693 1301 735 1356 q 567 1246 651 1246 z "},"Â":{"ha":908,"x_min":-26,"x_max":935,"o":"m -26 0 l 371 972 l 539 972 l 935 0 l 724 0 l 657 185 l 251 185 l 185 0 l -26 0 m 419 618 l 315 353 l 593 353 l 489 618 q 454 729 468 674 q 419 618 440 669 m 239 1036 l 379 1278 l 531 1278 l 667 1036 l 504 1036 l 454 1147 l 404 1036 l 239 1036 z "},"Ấ":{"ha":908,"x_min":-26,"x_max":935,"o":"m -26 0 l 371 972 l 539 972 l 935 0 l 724 0 l 657 185 l 251 185 l 185 0 l -26 0 m 419 618 l 315 353 l 593 353 l 489 618 q 454 729 468 674 q 419 618 440 669 m 239 1036 l 379 1278 l 531 1278 l 667 1036 l 504 1036 l 454 1147 l 404 1036 l 239 1036 m 600 1178 l 661 1419 l 853 1419 l 731 1178 l 600 1178 z "},"Ậ":{"ha":908,"x_min":-26,"x_max":935,"o":"m -26 0 l 371 972 l 539 972 l 935 0 l 724 0 l 657 185 l 251 185 l 185 0 l -26 0 m 419 618 l 315 353 l 593 353 l 489 618 q 454 729 468 674 q 419 618 440 669 m 463 -296 q 383 -263 415 -296 q 350 -185 350 -231 q 383 -108 350 -140 q 463 -75 415 -75 q 543 -108 511 -75 q 575 -185 575 -140 q 543 -264 575 -232 q 463 -296 511 -296 m 239 1036 l 379 1278 l 531 1278 l 667 1036 l 504 1036 l 454 1147 l 404 1036 l 239 1036 z "},"Ầ":{"ha":908,"x_min":-26,"x_max":935,"o":"m -26 0 l 371 972 l 539 972 l 935 0 l 724 0 l 657 185 l 251 185 l 185 0 l -26 0 m 419 618 l 315 353 l 593 353 l 489 618 q 454 729 468 674 q 419 618 440 669 m 239 1036 l 379 1278 l 531 1278 l 667 1036 l 504 1036 l 454 1147 l 404 1036 l 239 1036 m 181 1178 l 43 1419 l 264 1419 l 311 1178 l 181 1178 z "},"Ẩ":{"ha":908,"x_min":-26,"x_max":935,"o":"m -26 0 l 371 972 l 539 972 l 935 0 l 724 0 l 657 185 l 251 185 l 185 0 l -26 0 m 419 618 l 315 353 l 593 353 l 489 618 q 454 729 468 674 q 419 618 440 669 m 239 1036 l 379 1278 l 531 1278 l 667 1036 l 504 1036 l 454 1147 l 404 1036 l 239 1036 m 451 1290 q 374 1308 413 1290 l 406 1401 q 422 1396 413 1397 q 438 1394 432 1394 q 485 1436 485 1394 q 473 1463 485 1451 q 446 1474 461 1474 q 417 1463 428 1474 q 406 1432 406 1451 l 289 1432 q 335 1540 289 1499 q 447 1582 381 1582 q 560 1544 515 1582 q 606 1440 606 1506 q 564 1331 606 1372 q 451 1290 522 1290 z "},"Ẫ":{"ha":908,"x_min":-26,"x_max":935,"o":"m -26 0 l 371 972 l 539 972 l 935 0 l 724 0 l 657 185 l 251 185 l 185 0 l -26 0 m 419 618 l 315 353 l 593 353 l 489 618 q 454 729 468 674 q 419 618 440 669 m 239 1036 l 379 1278 l 531 1278 l 667 1036 l 504 1036 l 454 1147 l 404 1036 l 239 1036 m 567 1290 q 497 1303 525 1290 q 447 1335 468 1317 q 406 1366 426 1353 q 357 1379 385 1379 q 306 1356 319 1379 q 293 1310 293 1332 l 174 1310 q 201 1418 174 1375 q 270 1483 228 1461 q 358 1504 313 1504 q 430 1491 400 1504 q 483 1461 460 1478 q 525 1431 506 1444 q 565 1418 544 1418 q 606 1444 597 1418 q 614 1489 614 1469 l 735 1489 q 693 1345 735 1400 q 567 1290 651 1290 z "},"Ä":{"ha":908,"x_min":-26,"x_max":935,"o":"m -26 0 l 371 972 l 539 972 l 935 0 l 724 0 l 657 185 l 251 185 l 185 0 l -26 0 m 419 618 l 315 353 l 593 353 l 489 618 q 454 729 468 674 q 419 618 440 669 m 601 1032 q 522 1065 554 1032 q 489 1143 489 1097 q 522 1220 489 1188 q 601 1253 554 1253 q 682 1220 650 1253 q 714 1143 714 1188 q 682 1064 714 1096 q 601 1032 650 1032 m 307 1032 q 227 1065 260 1032 q 194 1143 194 1097 q 227 1220 194 1188 q 307 1253 260 1253 q 388 1220 356 1253 q 419 1143 419 1188 q 388 1064 419 1096 q 307 1032 356 1032 z "},"Ạ":{"ha":908,"x_min":-26,"x_max":935,"o":"m -26 0 l 371 972 l 539 972 l 935 0 l 724 0 l 657 185 l 251 185 l 185 0 l -26 0 m 419 618 l 315 353 l 593 353 l 489 618 q 454 729 468 674 q 419 618 440 669 m 463 -296 q 383 -263 415 -296 q 350 -185 350 -231 q 383 -108 350 -140 q 463 -75 415 -75 q 543 -108 511 -75 q 575 -185 575 -140 q 543 -264 575 -232 q 463 -296 511 -296 z "},"À":{"ha":908,"x_min":-26,"x_max":935,"o":"m -26 0 l 371 972 l 539 972 l 935 0 l 724 0 l 657 185 l 251 185 l 185 0 l -26 0 m 419 618 l 315 353 l 593 353 l 489 618 q 454 729 468 674 q 419 618 440 669 m 394 1036 l 257 1278 l 478 1278 l 525 1036 l 394 1036 z "},"Ả":{"ha":908,"x_min":-26,"x_max":935,"o":"m -26 0 l 371 972 l 539 972 l 935 0 l 724 0 l 657 185 l 251 185 l 185 0 l -26 0 m 419 618 l 315 353 l 593 353 l 489 618 q 454 729 468 674 q 419 618 440 669 m 451 1024 q 374 1042 413 1024 l 406 1135 q 422 1129 413 1131 q 438 1128 432 1128 q 485 1169 485 1128 q 473 1196 485 1185 q 446 1207 461 1207 q 417 1196 428 1207 q 406 1165 406 1185 l 289 1165 q 335 1274 289 1232 q 447 1315 381 1315 q 560 1277 515 1315 q 606 1174 606 1239 q 564 1065 606 1106 q 451 1024 522 1024 z "},"Ā":{"ha":908,"x_min":-26,"x_max":935,"o":"m -26 0 l 371 972 l 539 972 l 935 0 l 724 0 l 657 185 l 251 185 l 185 0 l -26 0 m 419 618 l 315 353 l 593 353 l 489 618 q 454 729 468 674 q 419 618 440 669 m 243 1081 l 243 1206 l 668 1206 l 668 1081 l 243 1081 z "},"Ą":{"ha":908,"x_min":-26,"x_max":935,"o":"m -26 0 l 371 972 l 539 972 l 935 0 l 724 0 l 657 185 l 251 185 l 185 0 l -26 0 m 419 618 l 315 353 l 593 353 l 489 618 q 454 729 468 674 q 419 618 440 669 m 792 -296 q 669 -256 713 -296 q 625 -153 625 -217 q 647 -74 625 -108 q 724 0 668 -40 l 756 24 l 865 0 l 794 -51 q 764 -83 772 -67 q 756 -115 756 -99 q 778 -153 756 -142 q 826 -165 800 -165 q 847 -163 839 -165 q 863 -160 856 -161 l 896 -281 q 841 -292 867 -289 q 792 -296 815 -296 z "},"Å":{"ha":908,"x_min":-26,"x_max":935,"o":"m -26 0 l 371 972 l 539 972 l 935 0 l 724 0 l 657 185 l 251 185 l 185 0 l -26 0 m 419 618 l 315 353 l 593 353 l 489 618 q 454 729 468 674 q 419 618 440 669 m 454 1024 q 350 1067 394 1024 q 306 1169 306 1110 q 350 1273 306 1231 q 454 1315 394 1315 q 559 1273 515 1315 q 603 1169 603 1231 q 559 1067 603 1110 q 454 1024 515 1024 m 454 1117 q 490 1133 475 1117 q 504 1169 504 1149 q 490 1206 504 1190 q 454 1221 475 1221 q 417 1206 433 1221 q 401 1169 401 1190 q 417 1133 401 1149 q 454 1117 433 1117 z "},"Ã":{"ha":908,"x_min":-26,"x_max":935,"o":"m -26 0 l 371 972 l 539 972 l 935 0 l 724 0 l 657 185 l 251 185 l 185 0 l -26 0 m 419 618 l 315 353 l 593 353 l 489 618 q 454 729 468 674 q 419 618 440 669 m 567 1024 q 497 1037 525 1024 q 447 1068 468 1050 q 406 1099 426 1086 q 357 1113 385 1113 q 306 1089 319 1113 q 293 1043 293 1065 l 174 1043 q 201 1151 174 1108 q 270 1216 228 1194 q 358 1238 313 1238 q 430 1224 400 1238 q 483 1194 460 1211 q 525 1165 506 1178 q 565 1151 544 1151 q 606 1177 597 1151 q 614 1222 614 1203 l 735 1222 q 693 1078 735 1133 q 567 1024 651 1024 z "},"Æ":{"ha":1349,"x_min":-42,"x_max":1294,"o":"m -42 0 l 614 972 l 1292 972 l 1292 797 l 917 797 l 917 579 l 1285 579 l 1285 410 l 917 410 l 917 175 l 1294 175 l 1294 0 l 722 0 l 722 193 l 304 193 l 183 0 l -42 0 m 578 618 l 394 346 l 722 346 l 722 794 l 689 794 q 636 704 668 750 q 578 618 604 658 z "},"Ǣ":{"ha":1349,"x_min":-42,"x_max":1294,"o":"m -42 0 l 614 972 l 1292 972 l 1292 797 l 917 797 l 917 579 l 1285 579 l 1285 410 l 917 410 l 917 175 l 1294 175 l 1294 0 l 722 0 l 722 193 l 304 193 l 183 0 l -42 0 m 578 618 l 394 346 l 722 346 l 722 794 l 689 794 q 636 704 668 750 q 578 618 604 658 m 608 1081 l 608 1206 l 1033 1206 l 1033 1081 l 608 1081 z "},"B":{"ha":797,"x_min":69,"x_max":776,"o":"m 69 0 l 69 972 l 397 972 q 639 901 556 972 q 722 717 722 831 q 688 597 722 647 q 565 513 654 546 q 731 422 685 485 q 776 268 776 358 q 683 73 776 146 q 432 0 590 0 l 69 0 m 264 571 l 379 571 q 492 599 458 571 q 525 686 525 628 q 492 767 525 736 q 379 799 458 799 l 264 799 l 264 571 m 264 175 l 414 175 q 536 205 493 175 q 579 299 579 235 q 536 382 579 351 q 414 413 493 413 l 264 413 l 264 175 z "},"C":{"ha":919,"x_min":35,"x_max":910,"o":"m 542 -18 q 341 21 433 -18 q 180 129 249 60 q 73 290 111 199 q 35 485 35 381 q 72 681 35 589 q 176 842 108 772 q 336 951 243 911 q 542 990 429 990 q 747 953 661 990 q 897 838 832 915 l 760 718 q 542 810 672 810 q 380 765 449 810 q 274 647 311 721 q 236 485 236 574 q 274 323 236 396 q 381 206 311 250 q 546 163 450 163 q 671 186 617 163 q 768 257 725 210 l 910 136 q 762 26 854 69 q 542 -18 669 -18 z "},"Ć":{"ha":919,"x_min":35,"x_max":910,"o":"m 542 -18 q 341 21 433 -18 q 180 129 249 60 q 73 290 111 199 q 35 485 35 381 q 72 681 35 589 q 176 842 108 772 q 336 951 243 911 q 542 990 429 990 q 747 953 661 990 q 897 838 832 915 l 760 718 q 542 810 672 810 q 380 765 449 810 q 274 647 311 721 q 236 485 236 574 q 274 323 236 396 q 381 206 311 250 q 546 163 450 163 q 671 186 617 163 q 768 257 725 210 l 910 136 q 762 26 854 69 q 542 -18 669 -18 m 474 1036 l 535 1278 l 726 1278 l 604 1036 l 474 1036 z "},"Č":{"ha":919,"x_min":35,"x_max":910,"o":"m 542 -18 q 341 21 433 -18 q 180 129 249 60 q 73 290 111 199 q 35 485 35 381 q 72 681 35 589 q 176 842 108 772 q 336 951 243 911 q 542 990 429 990 q 747 953 661 990 q 897 838 832 915 l 760 718 q 542 810 672 810 q 380 765 449 810 q 274 647 311 721 q 236 485 236 574 q 274 323 236 396 q 381 206 311 250 q 546 163 450 163 q 671 186 617 163 q 768 257 725 210 l 910 136 q 762 26 854 69 q 542 -18 669 -18 m 326 1278 l 492 1278 l 542 1167 l 592 1278 l 754 1278 l 618 1036 l 467 1036 l 326 1278 z "},"Ç":{"ha":919,"x_min":35,"x_max":910,"o":"m 542 -18 q 341 21 433 -18 q 180 129 249 60 q 73 290 111 199 q 35 485 35 381 q 72 681 35 589 q 176 842 108 772 q 336 951 243 911 q 542 990 429 990 q 747 953 661 990 q 897 838 832 915 l 760 718 q 542 810 672 810 q 380 765 449 810 q 274 647 311 721 q 236 485 236 574 q 274 323 236 396 q 381 206 311 250 q 546 163 450 163 q 671 186 617 163 q 768 257 725 210 l 910 136 q 762 26 854 69 q 542 -18 669 -18 m 514 -296 q 449 -288 475 -296 q 383 -251 424 -281 l 447 -171 q 472 -187 458 -181 q 501 -194 486 -194 q 531 -186 517 -194 q 544 -156 544 -178 q 533 -132 544 -140 q 510 -124 522 -124 q 479 -128 492 -124 l 474 -124 l 532 8 l 615 14 l 581 -60 q 636 -101 618 -71 q 654 -167 654 -132 q 610 -264 654 -232 q 514 -296 567 -296 z "},"Ĉ":{"ha":919,"x_min":35,"x_max":910,"o":"m 542 -18 q 341 21 433 -18 q 180 129 249 60 q 73 290 111 199 q 35 485 35 381 q 72 681 35 589 q 176 842 108 772 q 336 951 243 911 q 542 990 429 990 q 747 953 661 990 q 897 838 832 915 l 760 718 q 542 810 672 810 q 380 765 449 810 q 274 647 311 721 q 236 485 236 574 q 274 323 236 396 q 381 206 311 250 q 546 163 450 163 q 671 186 617 163 q 768 257 725 210 l 910 136 q 762 26 854 69 q 542 -18 669 -18 m 326 1036 l 467 1278 l 618 1278 l 754 1036 l 592 1036 l 542 1147 l 492 1036 l 326 1036 z "},"Ċ":{"ha":919,"x_min":35,"x_max":910,"o":"m 542 -18 q 341 21 433 -18 q 180 129 249 60 q 73 290 111 199 q 35 485 35 381 q 72 681 35 589 q 176 842 108 772 q 336 951 243 911 q 542 990 429 990 q 747 953 661 990 q 897 838 832 915 l 760 718 q 542 810 672 810 q 380 765 449 810 q 274 647 311 721 q 236 485 236 574 q 274 323 236 396 q 381 206 311 250 q 546 163 450 163 q 671 186 617 163 q 768 257 725 210 l 910 136 q 762 26 854 69 q 542 -18 669 -18 m 542 1032 q 462 1065 494 1032 q 429 1143 429 1097 q 462 1220 429 1188 q 542 1253 494 1253 q 622 1220 590 1253 q 654 1143 654 1188 q 622 1064 654 1096 q 542 1032 590 1032 z "},"D":{"ha":950,"x_min":69,"x_max":915,"o":"m 69 0 l 69 972 l 417 972 q 695 908 585 972 q 860 735 806 844 q 915 485 915 625 q 860 236 915 346 q 695 63 806 126 q 417 0 585 0 l 69 0 m 393 797 l 264 797 l 264 175 l 393 175 q 579 216 508 175 q 682 327 650 257 q 714 485 714 397 q 682 644 714 574 q 579 756 650 714 q 393 797 508 797 z "},"Ď":{"ha":950,"x_min":69,"x_max":915,"o":"m 69 0 l 69 972 l 417 972 q 695 908 585 972 q 860 735 806 844 q 915 485 915 625 q 860 236 915 346 q 695 63 806 126 q 417 0 585 0 l 69 0 m 393 797 l 264 797 l 264 175 l 393 175 q 579 216 508 175 q 682 327 650 257 q 714 485 714 397 q 682 644 714 574 q 579 756 650 714 q 393 797 508 797 m 239 1278 l 404 1278 l 454 1167 l 504 1278 l 667 1278 l 531 1036 l 379 1036 l 239 1278 z "},"Đ":{"ha":1017,"x_min":6,"x_max":982,"o":"m 136 0 l 136 972 l 483 972 q 762 908 651 972 q 927 735 872 844 q 982 485 982 625 q 927 236 982 346 q 762 63 872 126 q 483 0 651 0 l 136 0 m 460 797 l 331 797 l 331 175 l 460 175 q 646 216 575 175 q 749 327 717 257 q 781 485 781 397 q 749 644 781 574 q 646 756 717 714 q 460 797 575 797 m 6 404 l 6 568 l 532 568 l 532 404 l 6 404 z "},"Ḍ":{"ha":950,"x_min":69,"x_max":915,"o":"m 69 0 l 69 972 l 417 972 q 695 908 585 972 q 860 735 806 844 q 915 485 915 625 q 860 236 915 346 q 695 63 806 126 q 417 0 585 0 l 69 0 m 393 797 l 264 797 l 264 175 l 393 175 q 579 216 508 175 q 682 327 650 257 q 714 485 714 397 q 682 644 714 574 q 579 756 650 714 q 393 797 508 797 m 429 -296 q 349 -263 382 -296 q 317 -185 317 -231 q 349 -108 317 -140 q 429 -75 382 -75 q 510 -108 478 -75 q 542 -185 542 -140 q 510 -264 542 -232 q 429 -296 478 -296 z "},"Ð":{"ha":1017,"x_min":6,"x_max":982,"o":"m 136 0 l 136 972 l 483 972 q 762 908 651 972 q 927 735 872 844 q 982 485 982 625 q 927 236 982 346 q 762 63 872 126 q 483 0 651 0 l 136 0 m 460 797 l 331 797 l 331 175 l 460 175 q 646 216 575 175 q 749 327 717 257 q 781 485 781 397 q 749 644 781 574 q 646 756 717 714 q 460 797 575 797 m 6 404 l 6 568 l 532 568 l 532 404 l 6 404 z "},"E":{"ha":696,"x_min":69,"x_max":642,"o":"m 69 0 l 69 972 l 639 972 l 639 797 l 264 797 l 264 579 l 632 579 l 632 410 l 264 410 l 264 175 l 642 175 l 642 0 l 69 0 z "},"É":{"ha":696,"x_min":69,"x_max":642,"o":"m 69 0 l 69 972 l 639 972 l 639 797 l 264 797 l 264 579 l 632 579 l 632 410 l 264 410 l 264 175 l 642 175 l 642 0 l 69 0 m 293 1036 l 354 1278 l 546 1278 l 424 1036 l 293 1036 z "},"Ě":{"ha":696,"x_min":69,"x_max":642,"o":"m 69 0 l 69 972 l 639 972 l 639 797 l 264 797 l 264 579 l 632 579 l 632 410 l 264 410 l 264 175 l 642 175 l 642 0 l 69 0 m 146 1278 l 311 1278 l 361 1167 l 411 1278 l 574 1278 l 438 1036 l 286 1036 l 146 1278 z "},"Ê":{"ha":696,"x_min":69,"x_max":642,"o":"m 69 0 l 69 972 l 639 972 l 639 797 l 264 797 l 264 579 l 632 579 l 632 410 l 264 410 l 264 175 l 642 175 l 642 0 l 69 0 m 146 1036 l 286 1278 l 438 1278 l 574 1036 l 411 1036 l 361 1147 l 311 1036 l 146 1036 z "},"Ế":{"ha":696,"x_min":69,"x_max":764,"o":"m 69 0 l 69 972 l 639 972 l 639 797 l 264 797 l 264 579 l 632 579 l 632 410 l 264 410 l 264 175 l 642 175 l 642 0 l 69 0 m 146 1036 l 286 1278 l 438 1278 l 574 1036 l 411 1036 l 361 1147 l 311 1036 l 146 1036 m 511 1178 l 572 1419 l 764 1419 l 642 1178 l 511 1178 z "},"Ệ":{"ha":696,"x_min":69,"x_max":642,"o":"m 69 0 l 69 972 l 639 972 l 639 797 l 264 797 l 264 579 l 632 579 l 632 410 l 264 410 l 264 175 l 642 175 l 642 0 l 69 0 m 375 -296 q 295 -263 328 -296 q 263 -185 263 -231 q 295 -108 263 -140 q 375 -75 328 -75 q 456 -108 424 -75 q 488 -185 488 -140 q 456 -264 488 -232 q 375 -296 424 -296 m 146 1036 l 286 1278 l 438 1278 l 574 1036 l 411 1036 l 361 1147 l 311 1036 l 146 1036 z "},"Ề":{"ha":696,"x_min":-49,"x_max":642,"o":"m 69 0 l 69 972 l 639 972 l 639 797 l 264 797 l 264 579 l 632 579 l 632 410 l 264 410 l 264 175 l 642 175 l 642 0 l 69 0 m 146 1036 l 286 1278 l 438 1278 l 574 1036 l 411 1036 l 361 1147 l 311 1036 l 146 1036 m 89 1178 l -49 1419 l 172 1419 l 219 1178 l 89 1178 z "},"Ể":{"ha":696,"x_min":69,"x_max":642,"o":"m 69 0 l 69 972 l 639 972 l 639 797 l 264 797 l 264 579 l 632 579 l 632 410 l 264 410 l 264 175 l 642 175 l 642 0 l 69 0 m 146 1036 l 286 1278 l 438 1278 l 574 1036 l 411 1036 l 361 1147 l 311 1036 l 146 1036 m 358 1290 q 281 1308 319 1290 l 313 1401 q 329 1396 319 1397 q 344 1394 339 1394 q 392 1436 392 1394 q 380 1463 392 1451 q 353 1474 368 1474 q 324 1463 335 1474 q 313 1432 313 1451 l 196 1432 q 242 1540 196 1499 q 354 1582 288 1582 q 467 1544 422 1582 q 513 1440 513 1506 q 471 1331 513 1372 q 358 1290 429 1290 z "},"Ễ":{"ha":696,"x_min":69,"x_max":642,"o":"m 69 0 l 69 972 l 639 972 l 639 797 l 264 797 l 264 579 l 632 579 l 632 410 l 264 410 l 264 175 l 642 175 l 642 0 l 69 0 m 146 1036 l 286 1278 l 438 1278 l 574 1036 l 411 1036 l 361 1147 l 311 1036 l 146 1036 m 474 1290 q 403 1303 432 1290 q 354 1335 375 1317 q 313 1366 333 1353 q 264 1379 292 1379 q 213 1356 226 1379 q 200 1310 200 1332 l 81 1310 q 108 1418 81 1375 q 177 1483 135 1461 q 265 1504 219 1504 q 337 1491 307 1504 q 390 1461 367 1478 q 432 1431 413 1444 q 472 1418 451 1418 q 513 1444 504 1418 q 521 1489 521 1469 l 642 1489 q 600 1345 642 1400 q 474 1290 558 1290 z "},"Ë":{"ha":696,"x_min":69,"x_max":642,"o":"m 69 0 l 69 972 l 639 972 l 639 797 l 264 797 l 264 579 l 632 579 l 632 410 l 264 410 l 264 175 l 642 175 l 642 0 l 69 0 m 508 1032 q 428 1065 461 1032 q 396 1143 396 1097 q 428 1220 396 1188 q 508 1253 461 1253 q 589 1220 557 1253 q 621 1143 621 1188 q 589 1064 621 1096 q 508 1032 557 1032 m 214 1032 q 134 1065 167 1032 q 101 1143 101 1097 q 134 1220 101 1188 q 214 1253 167 1253 q 294 1220 263 1253 q 326 1143 326 1188 q 294 1064 326 1096 q 214 1032 263 1032 z "},"Ė":{"ha":696,"x_min":69,"x_max":642,"o":"m 69 0 l 69 972 l 639 972 l 639 797 l 264 797 l 264 579 l 632 579 l 632 410 l 264 410 l 264 175 l 642 175 l 642 0 l 69 0 m 361 1032 q 281 1065 314 1032 q 249 1143 249 1097 q 281 1220 249 1188 q 361 1253 314 1253 q 442 1220 410 1253 q 474 1143 474 1188 q 442 1064 474 1096 q 361 1032 410 1032 z "},"Ẹ":{"ha":696,"x_min":69,"x_max":642,"o":"m 69 0 l 69 972 l 639 972 l 639 797 l 264 797 l 264 579 l 632 579 l 632 410 l 264 410 l 264 175 l 642 175 l 642 0 l 69 0 m 375 -296 q 295 -263 328 -296 q 263 -185 263 -231 q 295 -108 263 -140 q 375 -75 328 -75 q 456 -108 424 -75 q 488 -185 488 -140 q 456 -264 488 -232 q 375 -296 424 -296 z "},"È":{"ha":696,"x_min":69,"x_max":642,"o":"m 69 0 l 69 972 l 639 972 l 639 797 l 264 797 l 264 579 l 632 579 l 632 410 l 264 410 l 264 175 l 642 175 l 642 0 l 69 0 m 301 1036 l 164 1278 l 385 1278 l 432 1036 l 301 1036 z "},"Ẻ":{"ha":696,"x_min":69,"x_max":642,"o":"m 69 0 l 69 972 l 639 972 l 639 797 l 264 797 l 264 579 l 632 579 l 632 410 l 264 410 l 264 175 l 642 175 l 642 0 l 69 0 m 358 1024 q 281 1042 319 1024 l 313 1135 q 329 1129 319 1131 q 344 1128 339 1128 q 392 1169 392 1128 q 380 1196 392 1185 q 353 1207 368 1207 q 324 1196 335 1207 q 313 1165 313 1185 l 196 1165 q 242 1274 196 1232 q 354 1315 288 1315 q 467 1277 422 1315 q 513 1174 513 1239 q 471 1065 513 1106 q 358 1024 429 1024 z "},"Ē":{"ha":696,"x_min":69,"x_max":642,"o":"m 69 0 l 69 972 l 639 972 l 639 797 l 264 797 l 264 579 l 632 579 l 632 410 l 264 410 l 264 175 l 642 175 l 642 0 l 69 0 m 150 1081 l 150 1206 l 575 1206 l 575 1081 l 150 1081 z "},"Ę":{"ha":696,"x_min":69,"x_max":671,"o":"m 69 0 l 69 972 l 639 972 l 639 797 l 264 797 l 264 579 l 632 579 l 632 410 l 264 410 l 264 175 l 642 175 l 642 0 l 69 0 m 567 -296 q 444 -256 488 -296 q 400 -153 400 -217 q 422 -74 400 -108 q 499 0 443 -40 l 531 24 l 640 0 l 569 -51 q 539 -83 547 -67 q 531 -115 531 -99 q 553 -153 531 -142 q 601 -165 575 -165 q 622 -163 614 -165 q 638 -160 631 -161 l 671 -281 q 616 -292 642 -289 q 567 -296 590 -296 z "},"Ẽ":{"ha":696,"x_min":69,"x_max":642,"o":"m 69 0 l 69 972 l 639 972 l 639 797 l 264 797 l 264 579 l 632 579 l 632 410 l 264 410 l 264 175 l 642 175 l 642 0 l 69 0 m 474 1024 q 403 1037 432 1024 q 354 1068 375 1050 q 313 1099 333 1086 q 264 1113 292 1113 q 213 1089 226 1113 q 200 1043 200 1065 l 81 1043 q 108 1151 81 1108 q 177 1216 135 1194 q 265 1238 219 1238 q 337 1224 307 1238 q 390 1194 367 1211 q 432 1165 413 1178 q 472 1151 451 1151 q 513 1177 504 1151 q 521 1222 521 1203 l 642 1222 q 600 1078 642 1133 q 474 1024 558 1024 z "},"Ə":{"ha":1049,"x_min":31,"x_max":1014,"o":"m 519 -24 q 322 16 411 -24 q 167 126 232 56 q 66 288 101 196 q 31 483 31 379 q 32 521 31 504 q 38 560 33 538 l 794 560 q 710 735 778 667 q 503 804 642 804 q 360 765 426 804 q 257 661 294 725 l 90 786 q 193 891 129 846 q 336 962 257 936 q 501 988 415 988 q 791 919 678 988 q 959 737 904 851 q 1014 483 1014 622 q 978 288 1014 379 q 875 126 942 196 q 718 16 808 56 q 519 -24 628 -24 m 528 153 q 707 221 636 153 q 796 397 778 289 l 250 388 q 302 270 264 324 q 398 185 340 217 q 528 153 456 153 z "},"F":{"ha":689,"x_min":69,"x_max":640,"o":"m 69 0 l 69 972 l 640 972 l 640 797 l 264 797 l 264 569 l 633 569 l 633 397 l 264 397 l 264 0 l 69 0 z "},"G":{"ha":1044,"x_min":35,"x_max":1010,"o":"m 542 -18 q 341 21 433 -18 q 180 129 249 60 q 73 290 111 199 q 35 485 35 381 q 73 681 35 589 q 180 842 111 772 q 341 951 249 911 q 542 990 433 990 q 752 951 665 990 q 899 838 839 911 l 760 718 q 665 785 721 761 q 542 810 610 810 q 380 765 449 810 q 274 647 311 721 q 236 485 236 574 q 274 322 236 396 q 380 204 311 249 q 542 160 449 160 q 728 215 657 160 q 815 383 799 269 l 496 381 l 496 556 l 1003 556 q 1008 502 1006 533 q 1010 447 1010 471 q 953 208 1010 313 q 792 42 897 103 q 542 -18 688 -18 z "},"Ğ":{"ha":1044,"x_min":35,"x_max":1010,"o":"m 542 -18 q 341 21 433 -18 q 180 129 249 60 q 73 290 111 199 q 35 485 35 381 q 73 681 35 589 q 180 842 111 772 q 341 951 249 911 q 542 990 433 990 q 752 951 665 990 q 899 838 839 911 l 760 718 q 665 785 721 761 q 542 810 610 810 q 380 765 449 810 q 274 647 311 721 q 236 485 236 574 q 274 322 236 396 q 380 204 311 249 q 542 160 449 160 q 728 215 657 160 q 815 383 799 269 l 496 381 l 496 556 l 1003 556 q 1008 502 1006 533 q 1010 447 1010 471 q 953 208 1010 313 q 792 42 897 103 q 542 -18 688 -18 m 542 1024 q 380 1078 440 1024 q 319 1217 319 1132 l 468 1217 q 485 1163 467 1188 q 542 1139 504 1139 q 599 1163 582 1139 q 615 1217 617 1188 l 764 1217 q 704 1078 764 1132 q 542 1024 644 1024 z "},"Ĝ":{"ha":1044,"x_min":35,"x_max":1010,"o":"m 542 -18 q 341 21 433 -18 q 180 129 249 60 q 73 290 111 199 q 35 485 35 381 q 73 681 35 589 q 180 842 111 772 q 341 951 249 911 q 542 990 433 990 q 752 951 665 990 q 899 838 839 911 l 760 718 q 665 785 721 761 q 542 810 610 810 q 380 765 449 810 q 274 647 311 721 q 236 485 236 574 q 274 322 236 396 q 380 204 311 249 q 542 160 449 160 q 728 215 657 160 q 815 383 799 269 l 496 381 l 496 556 l 1003 556 q 1008 502 1006 533 q 1010 447 1010 471 q 953 208 1010 313 q 792 42 897 103 q 542 -18 688 -18 m 326 1036 l 467 1278 l 618 1278 l 754 1036 l 592 1036 l 542 1147 l 492 1036 l 326 1036 z "},"Ģ":{"ha":1044,"x_min":35,"x_max":1010,"o":"m 542 -18 q 341 21 433 -18 q 180 129 249 60 q 73 290 111 199 q 35 485 35 381 q 73 681 35 589 q 180 842 111 772 q 341 951 249 911 q 542 990 433 990 q 752 951 665 990 q 899 838 839 911 l 760 718 q 665 785 721 761 q 542 810 610 810 q 380 765 449 810 q 274 647 311 721 q 236 485 236 574 q 274 322 236 396 q 380 204 311 249 q 542 160 449 160 q 728 215 657 160 q 815 383 799 269 l 496 381 l 496 556 l 1003 556 q 1008 502 1006 533 q 1010 447 1010 471 q 953 208 1010 313 q 792 42 897 103 q 542 -18 688 -18 m 399 -278 l 446 -62 l 638 -62 l 501 -278 l 399 -278 z "},"Ġ":{"ha":1044,"x_min":35,"x_max":1010,"o":"m 542 -18 q 341 21 433 -18 q 180 129 249 60 q 73 290 111 199 q 35 485 35 381 q 73 681 35 589 q 180 842 111 772 q 341 951 249 911 q 542 990 433 990 q 752 951 665 990 q 899 838 839 911 l 760 718 q 665 785 721 761 q 542 810 610 810 q 380 765 449 810 q 274 647 311 721 q 236 485 236 574 q 274 322 236 396 q 380 204 311 249 q 542 160 449 160 q 728 215 657 160 q 815 383 799 269 l 496 381 l 496 556 l 1003 556 q 1008 502 1006 533 q 1010 447 1010 471 q 953 208 1010 313 q 792 42 897 103 q 542 -18 688 -18 m 542 1032 q 462 1065 494 1032 q 429 1143 429 1097 q 462 1220 429 1188 q 542 1253 494 1253 q 622 1220 590 1253 q 654 1143 654 1188 q 622 1064 654 1096 q 542 1032 590 1032 z "},"Ḡ":{"ha":1044,"x_min":35,"x_max":1010,"o":"m 542 -18 q 341 21 433 -18 q 180 129 249 60 q 73 290 111 199 q 35 485 35 381 q 73 681 35 589 q 180 842 111 772 q 341 951 249 911 q 542 990 433 990 q 752 951 665 990 q 899 838 839 911 l 760 718 q 665 785 721 761 q 542 810 610 810 q 380 765 449 810 q 274 647 311 721 q 236 485 236 574 q 274 322 236 396 q 380 204 311 249 q 542 160 449 160 q 728 215 657 160 q 815 383 799 269 l 496 381 l 496 556 l 1003 556 q 1008 502 1006 533 q 1010 447 1010 471 q 953 208 1010 313 q 792 42 897 103 q 542 -18 688 -18 m 331 1081 l 331 1206 l 756 1206 l 756 1081 l 331 1081 z "},"H":{"ha":931,"x_min":69,"x_max":861,"o":"m 69 0 l 69 972 l 264 972 l 264 581 l 667 581 l 667 972 l 861 972 l 861 0 l 667 0 l 667 406 l 264 406 l 264 0 l 69 0 z "},"Ħ":{"ha":931,"x_min":6,"x_max":925,"o":"m 69 0 l 69 710 l 6 710 l 6 840 l 69 840 l 69 972 l 264 972 l 264 840 l 667 840 l 667 972 l 861 972 l 861 840 l 925 840 l 925 710 l 861 710 l 861 0 l 667 0 l 667 406 l 264 406 l 264 0 l 69 0 m 264 581 l 667 581 l 667 710 l 264 710 l 264 581 z "},"Ḫ":{"ha":931,"x_min":69,"x_max":861,"o":"m 69 0 l 69 972 l 264 972 l 264 581 l 667 581 l 667 972 l 861 972 l 861 0 l 667 0 l 667 406 l 264 406 l 264 0 l 69 0 m 465 -307 q 303 -253 364 -307 q 243 -114 243 -199 l 392 -114 q 409 -167 390 -143 q 465 -192 428 -192 q 523 -167 506 -192 q 539 -114 540 -143 l 688 -114 q 628 -253 688 -199 q 465 -307 568 -307 z "},"Ĥ":{"ha":931,"x_min":69,"x_max":861,"o":"m 69 0 l 69 972 l 264 972 l 264 581 l 667 581 l 667 972 l 861 972 l 861 0 l 667 0 l 667 406 l 264 406 l 264 0 l 69 0 m 250 1036 l 390 1278 l 542 1278 l 678 1036 l 515 1036 l 465 1147 l 415 1036 l 250 1036 z "},"Ḥ":{"ha":931,"x_min":69,"x_max":861,"o":"m 69 0 l 69 972 l 264 972 l 264 581 l 667 581 l 667 972 l 861 972 l 861 0 l 667 0 l 667 406 l 264 406 l 264 0 l 69 0 m 465 -296 q 385 -263 418 -296 q 353 -185 353 -231 q 385 -108 353 -140 q 465 -75 418 -75 q 546 -108 514 -75 q 578 -185 578 -140 q 546 -264 578 -232 q 465 -296 514 -296 z "},"I":{"ha":333,"x_min":69,"x_max":264,"o":"m 69 0 l 69 972 l 264 972 l 264 0 l 69 0 z "},"Ĳ":{"ha":869,"x_min":69,"x_max":807,"o":"m 69 0 l 69 972 l 264 972 l 264 0 l 69 0 m 525 -15 q 417 -6 468 -15 q 336 22 365 4 l 410 182 q 499 160 440 160 q 580 184 547 160 q 613 265 613 208 l 613 972 l 807 972 l 807 258 q 770 103 807 164 q 670 14 733 43 q 525 -15 607 -15 z "},"Í":{"ha":333,"x_min":69,"x_max":351,"o":"m 69 0 l 69 972 l 264 972 l 264 0 l 69 0 m 99 1036 l 160 1278 l 351 1278 l 229 1036 l 99 1036 z "},"Î":{"ha":333,"x_min":-49,"x_max":379,"o":"m 69 0 l 69 972 l 264 972 l 264 0 l 69 0 m -49 1036 l 92 1278 l 243 1278 l 379 1036 l 217 1036 l 167 1147 l 117 1036 l -49 1036 z "},"Ï":{"ha":333,"x_min":-93,"x_max":426,"o":"m 69 0 l 69 972 l 264 972 l 264 0 l 69 0 m 314 1032 q 234 1065 267 1032 q 201 1143 201 1097 q 234 1220 201 1188 q 314 1253 267 1253 q 394 1220 363 1253 q 426 1143 426 1188 q 394 1064 426 1096 q 314 1032 363 1032 m 19 1032 q -60 1065 -28 1032 q -93 1143 -93 1097 q -60 1220 -93 1188 q 19 1253 -28 1253 q 100 1220 68 1253 q 132 1143 132 1188 q 100 1064 132 1096 q 19 1032 68 1032 z "},"İ":{"ha":333,"x_min":54,"x_max":279,"o":"m 69 0 l 69 972 l 264 972 l 264 0 l 69 0 m 167 1032 q 87 1065 119 1032 q 54 1143 54 1097 q 87 1220 54 1188 q 167 1253 119 1253 q 247 1220 215 1253 q 279 1143 279 1188 q 247 1064 279 1096 q 167 1032 215 1032 z "},"Ị":{"ha":333,"x_min":54,"x_max":279,"o":"m 69 0 l 69 972 l 264 972 l 264 0 l 69 0 m 167 -296 q 87 -263 119 -296 q 54 -185 54 -231 q 87 -108 54 -140 q 167 -75 119 -75 q 247 -108 215 -75 q 279 -185 279 -140 q 247 -264 279 -232 q 167 -296 215 -296 z "},"Ì":{"ha":333,"x_min":-31,"x_max":264,"o":"m 69 0 l 69 972 l 264 972 l 264 0 l 69 0 m 107 1036 l -31 1278 l 190 1278 l 238 1036 l 107 1036 z "},"Ỉ":{"ha":333,"x_min":1,"x_max":318,"o":"m 69 0 l 69 972 l 264 972 l 264 0 l 69 0 m 164 1024 q 86 1042 125 1024 l 118 1135 q 135 1129 125 1131 q 150 1128 144 1128 q 197 1169 197 1128 q 185 1196 197 1185 q 158 1207 174 1207 q 129 1196 140 1207 q 118 1165 118 1185 l 1 1165 q 47 1274 1 1232 q 160 1315 93 1315 q 273 1277 228 1315 q 318 1174 318 1239 q 276 1065 318 1106 q 164 1024 235 1024 z "},"Ī":{"ha":333,"x_min":-44,"x_max":381,"o":"m 69 0 l 69 972 l 264 972 l 264 0 l 69 0 m -44 1081 l -44 1206 l 381 1206 l 381 1081 l -44 1081 z "},"Į":{"ha":333,"x_min":47,"x_max":292,"o":"m 69 0 l 69 972 l 264 972 l 264 0 l 264 0 l 200 -51 q 173 -83 181 -67 q 165 -115 165 -99 q 185 -153 165 -142 q 229 -165 204 -165 q 247 -163 240 -165 q 261 -160 254 -161 l 292 -281 q 242 -292 265 -289 q 197 -296 218 -296 q 87 -256 126 -296 q 47 -153 47 -217 q 67 -74 47 -108 q 136 0 86 -40 l 69 0 z "},"Ĩ":{"ha":333,"x_min":-114,"x_max":447,"o":"m 69 0 l 69 972 l 264 972 l 264 0 l 69 0 m 279 1024 q 209 1037 238 1024 q 160 1068 181 1050 q 118 1099 139 1086 q 69 1113 97 1113 q 19 1089 32 1113 q 6 1043 6 1065 l -114 1043 q -87 1151 -114 1108 q -17 1216 -60 1194 q 71 1238 25 1238 q 142 1224 113 1238 q 195 1194 172 1211 q 238 1165 218 1178 q 278 1151 257 1151 q 318 1177 310 1151 q 326 1222 326 1203 l 447 1222 q 406 1078 447 1133 q 279 1024 364 1024 z "},"J":{"ha":536,"x_min":3,"x_max":474,"o":"m 192 -15 q 83 -6 135 -15 q 3 22 32 4 l 76 182 q 165 160 107 160 q 247 184 214 160 q 279 265 279 208 l 279 972 l 474 972 l 474 258 q 437 103 474 164 q 337 14 400 43 q 192 -15 274 -15 z "},"Ĵ":{"ha":536,"x_min":3,"x_max":589,"o":"m 192 -15 q 83 -6 135 -15 q 3 22 32 4 l 76 182 q 165 160 107 160 q 247 184 214 160 q 279 265 279 208 l 279 972 l 474 972 l 474 258 q 437 103 474 164 q 337 14 400 43 q 192 -15 274 -15 m 161 1036 l 301 1278 l 453 1278 l 589 1036 l 426 1036 l 376 1147 l 326 1036 l 161 1036 z "},"K":{"ha":817,"x_min":69,"x_max":849,"o":"m 69 0 l 69 972 l 264 972 l 264 571 l 567 972 l 821 972 l 444 517 l 849 0 l 600 0 l 264 429 l 264 0 l 69 0 z "},"Ķ":{"ha":817,"x_min":69,"x_max":849,"o":"m 69 0 l 69 972 l 264 972 l 264 571 l 567 972 l 821 972 l 444 517 l 849 0 l 600 0 l 264 429 l 264 0 l 69 0 m 278 -278 l 325 -62 l 517 -62 l 381 -278 l 278 -278 z "},"Ḵ":{"ha":817,"x_min":69,"x_max":849,"o":"m 69 0 l 69 972 l 264 972 l 264 571 l 567 972 l 821 972 l 444 517 l 849 0 l 600 0 l 264 429 l 264 0 l 69 0 m 208 -251 l 208 -126 l 633 -126 l 633 -251 l 208 -251 z "},"L":{"ha":661,"x_min":69,"x_max":626,"o":"m 69 0 l 69 972 l 264 972 l 264 175 l 626 175 l 626 0 l 69 0 z "},"Ĺ":{"ha":661,"x_min":69,"x_max":626,"o":"m 69 0 l 69 972 l 264 972 l 264 175 l 626 175 l 626 0 l 69 0 m 93 1036 l 154 1278 l 346 1278 l 224 1036 l 93 1036 z "},"Ľ":{"ha":661,"x_min":69,"x_max":626,"o":"m 69 0 l 69 972 l 264 972 l 264 175 l 626 175 l 626 0 l 69 0 m 350 689 l 419 972 l 617 972 l 481 689 l 350 689 z "},"Ļ":{"ha":661,"x_min":69,"x_max":626,"o":"m 69 0 l 69 972 l 264 972 l 264 175 l 626 175 l 626 0 l 69 0 m 222 -278 l 269 -62 l 461 -62 l 325 -278 l 222 -278 z "},"Ḷ":{"ha":661,"x_min":69,"x_max":626,"o":"m 69 0 l 69 972 l 264 972 l 264 175 l 626 175 l 626 0 l 69 0 m 365 -296 q 285 -263 318 -296 q 253 -185 253 -231 q 285 -108 253 -140 q 365 -75 318 -75 q 446 -108 414 -75 q 478 -185 478 -140 q 446 -264 478 -232 q 365 -296 414 -296 z "},"Ḹ":{"ha":661,"x_min":-50,"x_max":626,"o":"m 69 0 l 69 972 l 264 972 l 264 175 l 626 175 l 626 0 l 69 0 m 365 -296 q 285 -263 318 -296 q 253 -185 253 -231 q 285 -108 253 -140 q 365 -75 318 -75 q 446 -108 414 -75 q 478 -185 478 -140 q 446 -264 478 -232 q 365 -296 414 -296 m -50 1081 l -50 1206 l 375 1206 l 375 1081 l -50 1081 z "},"Ḻ":{"ha":661,"x_min":69,"x_max":626,"o":"m 69 0 l 69 972 l 264 972 l 264 175 l 626 175 l 626 0 l 69 0 m 153 -251 l 153 -126 l 578 -126 l 578 -251 l 153 -251 z "},"Ł":{"ha":661,"x_min":-33,"x_max":626,"o":"m 69 0 l 69 343 l -33 271 l -33 446 l 69 518 l 69 972 l 264 972 l 264 636 l 393 733 l 393 549 l 264 458 l 264 175 l 626 175 l 626 0 l 69 0 z "},"M":{"ha":1233,"x_min":69,"x_max":1164,"o":"m 69 0 l 69 972 l 311 972 l 513 543 q 569 419 547 468 q 602 339 590 371 q 621 283 614 307 q 639 339 628 307 q 672 419 650 371 q 728 543 693 468 l 931 972 l 1164 972 l 1164 0 l 974 0 l 974 393 q 975 507 974 460 q 979 594 976 554 q 988 675 982 633 l 664 0 l 569 0 l 246 675 q 254 594 251 633 q 258 507 257 554 q 260 393 260 460 l 260 0 l 69 0 z "},"Ṁ":{"ha":1233,"x_min":69,"x_max":1164,"o":"m 69 0 l 69 972 l 311 972 l 513 543 q 569 419 547 468 q 602 339 590 371 q 621 283 614 307 q 639 339 628 307 q 672 419 650 371 q 728 543 693 468 l 931 972 l 1164 972 l 1164 0 l 974 0 l 974 393 q 975 507 974 460 q 979 594 976 554 q 988 675 982 633 l 664 0 l 569 0 l 246 675 q 254 594 251 633 q 258 507 257 554 q 260 393 260 460 l 260 0 l 69 0 m 615 1032 q 535 1065 568 1032 q 503 1143 503 1097 q 535 1220 503 1188 q 615 1253 568 1253 q 696 1220 664 1253 q 728 1143 728 1188 q 696 1064 728 1096 q 615 1032 664 1032 z "},"Ṃ":{"ha":1233,"x_min":69,"x_max":1164,"o":"m 69 0 l 69 972 l 311 972 l 513 543 q 569 419 547 468 q 602 339 590 371 q 621 283 614 307 q 639 339 628 307 q 672 419 650 371 q 728 543 693 468 l 931 972 l 1164 972 l 1164 0 l 974 0 l 974 393 q 975 507 974 460 q 979 594 976 554 q 988 675 982 633 l 664 0 l 569 0 l 246 675 q 254 594 251 633 q 258 507 257 554 q 260 393 260 460 l 260 0 l 69 0 m 617 -296 q 537 -263 569 -296 q 504 -185 504 -231 q 537 -108 504 -140 q 617 -75 569 -75 q 697 -108 665 -75 q 729 -185 729 -140 q 697 -264 729 -232 q 617 -296 665 -296 z "},"N":{"ha":994,"x_min":69,"x_max":925,"o":"m 69 0 l 69 972 l 217 972 l 690 410 q 723 370 707 390 q 754 329 739 350 q 749 402 750 360 q 747 488 747 444 l 747 972 l 925 972 l 925 0 l 799 0 l 307 585 q 274 624 290 604 q 243 665 258 644 q 249 592 247 635 q 250 507 250 550 l 250 0 l 69 0 z "},"Ń":{"ha":994,"x_min":69,"x_max":925,"o":"m 69 0 l 69 972 l 217 972 l 690 410 q 723 370 707 390 q 754 329 739 350 q 749 402 750 360 q 747 488 747 444 l 747 972 l 925 972 l 925 0 l 799 0 l 307 585 q 274 624 290 604 q 243 665 258 644 q 249 592 247 635 q 250 507 250 550 l 250 0 l 69 0 m 454 1036 l 515 1278 l 707 1278 l 585 1036 l 454 1036 z "},"Ň":{"ha":994,"x_min":69,"x_max":925,"o":"m 69 0 l 69 972 l 217 972 l 690 410 q 723 370 707 390 q 754 329 739 350 q 749 402 750 360 q 747 488 747 444 l 747 972 l 925 972 l 925 0 l 799 0 l 307 585 q 274 624 290 604 q 243 665 258 644 q 249 592 247 635 q 250 507 250 550 l 250 0 l 69 0 m 307 1278 l 472 1278 l 522 1167 l 572 1278 l 735 1278 l 599 1036 l 447 1036 l 307 1278 z "},"Ņ":{"ha":994,"x_min":69,"x_max":925,"o":"m 69 0 l 69 972 l 217 972 l 690 410 q 723 370 707 390 q 754 329 739 350 q 749 402 750 360 q 747 488 747 444 l 747 972 l 925 972 l 925 0 l 799 0 l 307 585 q 274 624 290 604 q 243 665 258 644 q 249 592 247 635 q 250 507 250 550 l 250 0 l 69 0 m 392 -278 l 439 -62 l 631 -62 l 494 -278 l 392 -278 z "},"Ṅ":{"ha":994,"x_min":69,"x_max":925,"o":"m 69 0 l 69 972 l 217 972 l 690 410 q 723 370 707 390 q 754 329 739 350 q 749 402 750 360 q 747 488 747 444 l 747 972 l 925 972 l 925 0 l 799 0 l 307 585 q 274 624 290 604 q 243 665 258 644 q 249 592 247 635 q 250 507 250 550 l 250 0 l 69 0 m 522 1032 q 442 1065 475 1032 q 410 1143 410 1097 q 442 1220 410 1188 q 522 1253 475 1253 q 603 1220 571 1253 q 635 1143 635 1188 q 603 1064 635 1096 q 522 1032 571 1032 z "},"Ṇ":{"ha":994,"x_min":69,"x_max":925,"o":"m 69 0 l 69 972 l 217 972 l 690 410 q 723 370 707 390 q 754 329 739 350 q 749 402 750 360 q 747 488 747 444 l 747 972 l 925 972 l 925 0 l 799 0 l 307 585 q 274 624 290 604 q 243 665 258 644 q 249 592 247 635 q 250 507 250 550 l 250 0 l 69 0 m 535 -296 q 455 -263 488 -296 q 422 -185 422 -231 q 455 -108 422 -140 q 535 -75 488 -75 q 615 -108 583 -75 q 647 -185 647 -140 q 615 -264 647 -232 q 535 -296 583 -296 z "},"Ṉ":{"ha":994,"x_min":69,"x_max":925,"o":"m 69 0 l 69 972 l 217 972 l 690 410 q 723 370 707 390 q 754 329 739 350 q 749 402 750 360 q 747 488 747 444 l 747 972 l 925 972 l 925 0 l 799 0 l 307 585 q 274 624 290 604 q 243 665 258 644 q 249 592 247 635 q 250 507 250 550 l 250 0 l 69 0 m 322 -251 l 322 -126 l 747 -126 l 747 -251 l 322 -251 z "},"Ñ":{"ha":994,"x_min":69,"x_max":925,"o":"m 69 0 l 69 972 l 217 972 l 690 410 q 723 370 707 390 q 754 329 739 350 q 749 402 750 360 q 747 488 747 444 l 747 972 l 925 972 l 925 0 l 799 0 l 307 585 q 274 624 290 604 q 243 665 258 644 q 249 592 247 635 q 250 507 250 550 l 250 0 l 69 0 m 635 1024 q 565 1037 593 1024 q 515 1068 536 1050 q 474 1099 494 1086 q 425 1113 453 1113 q 374 1089 388 1113 q 361 1043 361 1065 l 242 1043 q 269 1151 242 1108 q 338 1216 296 1194 q 426 1238 381 1238 q 498 1224 468 1238 q 551 1194 528 1211 q 593 1165 574 1178 q 633 1151 613 1151 q 674 1177 665 1151 q 682 1222 682 1203 l 803 1222 q 761 1078 803 1133 q 635 1024 719 1024 z "},"Ŋ":{"ha":994,"x_min":69,"x_max":925,"o":"m 69 0 l 69 972 l 217 972 l 690 410 q 723 370 707 390 q 754 329 739 350 q 749 402 750 360 q 747 488 747 444 l 747 972 l 925 972 l 925 -54 q 868 -225 925 -172 q 704 -278 811 -278 l 643 -278 l 643 -111 l 699 -111 q 757 -44 757 -111 l 757 50 l 307 585 q 274 624 290 604 q 243 665 258 644 q 249 592 247 635 q 250 507 250 550 l 250 0 l 69 0 z "},"O":{"ha":1081,"x_min":35,"x_max":1046,"o":"m 542 -18 q 341 21 433 -18 q 180 129 249 60 q 73 290 111 199 q 35 485 35 381 q 73 681 35 589 q 180 842 111 772 q 341 951 249 911 q 542 990 433 990 q 742 951 650 990 q 901 842 833 911 q 1008 681 969 772 q 1046 485 1046 589 q 1008 290 1046 381 q 901 129 969 199 q 742 21 833 60 q 542 -18 650 -18 m 542 163 q 703 206 636 163 q 808 324 771 250 q 844 485 844 397 q 808 647 844 574 q 703 765 771 721 q 542 810 636 810 q 378 765 447 810 q 273 647 310 721 q 236 485 236 574 q 273 324 236 397 q 378 206 310 250 q 542 163 447 163 z "},"Ó":{"ha":1081,"x_min":35,"x_max":1046,"o":"m 542 -18 q 341 21 433 -18 q 180 129 249 60 q 73 290 111 199 q 35 485 35 381 q 73 681 35 589 q 180 842 111 772 q 341 951 249 911 q 542 990 433 990 q 742 951 650 990 q 901 842 833 911 q 1008 681 969 772 q 1046 485 1046 589 q 1008 290 1046 381 q 901 129 969 199 q 742 21 833 60 q 542 -18 650 -18 m 542 163 q 703 206 636 163 q 808 324 771 250 q 844 485 844 397 q 808 647 844 574 q 703 765 771 721 q 542 810 636 810 q 378 765 447 810 q 273 647 310 721 q 236 485 236 574 q 273 324 236 397 q 378 206 310 250 q 542 163 447 163 m 474 1036 l 535 1278 l 726 1278 l 604 1036 l 474 1036 z "},"Ô":{"ha":1081,"x_min":35,"x_max":1046,"o":"m 542 -18 q 341 21 433 -18 q 180 129 249 60 q 73 290 111 199 q 35 485 35 381 q 73 681 35 589 q 180 842 111 772 q 341 951 249 911 q 542 990 433 990 q 742 951 650 990 q 901 842 833 911 q 1008 681 969 772 q 1046 485 1046 589 q 1008 290 1046 381 q 901 129 969 199 q 742 21 833 60 q 542 -18 650 -18 m 542 163 q 703 206 636 163 q 808 324 771 250 q 844 485 844 397 q 808 647 844 574 q 703 765 771 721 q 542 810 636 810 q 378 765 447 810 q 273 647 310 721 q 236 485 236 574 q 273 324 236 397 q 378 206 310 250 q 542 163 447 163 m 326 1036 l 467 1278 l 618 1278 l 754 1036 l 592 1036 l 542 1147 l 492 1036 l 326 1036 z "},"Ố":{"ha":1081,"x_min":35,"x_max":1046,"o":"m 542 -18 q 341 21 433 -18 q 180 129 249 60 q 73 290 111 199 q 35 485 35 381 q 73 681 35 589 q 180 842 111 772 q 341 951 249 911 q 542 990 433 990 q 742 951 650 990 q 901 842 833 911 q 1008 681 969 772 q 1046 485 1046 589 q 1008 290 1046 381 q 901 129 969 199 q 742 21 833 60 q 542 -18 650 -18 m 542 163 q 703 206 636 163 q 808 324 771 250 q 844 485 844 397 q 808 647 844 574 q 703 765 771 721 q 542 810 636 810 q 378 765 447 810 q 273 647 310 721 q 236 485 236 574 q 273 324 236 397 q 378 206 310 250 q 542 163 447 163 m 326 1036 l 467 1278 l 618 1278 l 754 1036 l 592 1036 l 542 1147 l 492 1036 l 326 1036 m 693 1178 l 754 1419 l 946 1419 l 824 1178 l 693 1178 z "},"Ộ":{"ha":1081,"x_min":35,"x_max":1046,"o":"m 542 -18 q 341 21 433 -18 q 180 129 249 60 q 73 290 111 199 q 35 485 35 381 q 73 681 35 589 q 180 842 111 772 q 341 951 249 911 q 542 990 433 990 q 742 951 650 990 q 901 842 833 911 q 1008 681 969 772 q 1046 485 1046 589 q 1008 290 1046 381 q 901 129 969 199 q 742 21 833 60 q 542 -18 650 -18 m 542 163 q 703 206 636 163 q 808 324 771 250 q 844 485 844 397 q 808 647 844 574 q 703 765 771 721 q 542 810 636 810 q 378 765 447 810 q 273 647 310 721 q 236 485 236 574 q 273 324 236 397 q 378 206 310 250 q 542 163 447 163 m 542 -296 q 462 -263 494 -296 q 429 -185 429 -231 q 462 -108 429 -140 q 542 -75 494 -75 q 622 -108 590 -75 q 654 -185 654 -140 q 622 -264 654 -232 q 542 -296 590 -296 m 326 1036 l 467 1278 l 618 1278 l 754 1036 l 592 1036 l 542 1147 l 492 1036 l 326 1036 z "},"Ồ":{"ha":1081,"x_min":35,"x_max":1046,"o":"m 542 -18 q 341 21 433 -18 q 180 129 249 60 q 73 290 111 199 q 35 485 35 381 q 73 681 35 589 q 180 842 111 772 q 341 951 249 911 q 542 990 433 990 q 742 951 650 990 q 901 842 833 911 q 1008 681 969 772 q 1046 485 1046 589 q 1008 290 1046 381 q 901 129 969 199 q 742 21 833 60 q 542 -18 650 -18 m 542 163 q 703 206 636 163 q 808 324 771 250 q 844 485 844 397 q 808 647 844 574 q 703 765 771 721 q 542 810 636 810 q 378 765 447 810 q 273 647 310 721 q 236 485 236 574 q 273 324 236 397 q 378 206 310 250 q 542 163 447 163 m 326 1036 l 467 1278 l 618 1278 l 754 1036 l 592 1036 l 542 1147 l 492 1036 l 326 1036 m 257 1178 l 119 1419 l 340 1419 l 388 1178 l 257 1178 z "},"Ổ":{"ha":1081,"x_min":35,"x_max":1046,"o":"m 542 -18 q 341 21 433 -18 q 180 129 249 60 q 73 290 111 199 q 35 485 35 381 q 73 681 35 589 q 180 842 111 772 q 341 951 249 911 q 542 990 433 990 q 742 951 650 990 q 901 842 833 911 q 1008 681 969 772 q 1046 485 1046 589 q 1008 290 1046 381 q 901 129 969 199 q 742 21 833 60 q 542 -18 650 -18 m 542 163 q 703 206 636 163 q 808 324 771 250 q 844 485 844 397 q 808 647 844 574 q 703 765 771 721 q 542 810 636 810 q 378 765 447 810 q 273 647 310 721 q 236 485 236 574 q 273 324 236 397 q 378 206 310 250 q 542 163 447 163 m 326 1036 l 467 1278 l 618 1278 l 754 1036 l 592 1036 l 542 1147 l 492 1036 l 326 1036 m 539 1290 q 461 1308 500 1290 l 493 1401 q 510 1396 500 1397 q 525 1394 519 1394 q 572 1436 572 1394 q 560 1463 572 1451 q 533 1474 549 1474 q 504 1463 515 1474 q 493 1432 493 1451 l 376 1432 q 422 1540 376 1499 q 535 1582 468 1582 q 648 1544 603 1582 q 693 1440 693 1506 q 651 1331 693 1372 q 539 1290 610 1290 z "},"Ỗ":{"ha":1081,"x_min":35,"x_max":1046,"o":"m 542 -18 q 341 21 433 -18 q 180 129 249 60 q 73 290 111 199 q 35 485 35 381 q 73 681 35 589 q 180 842 111 772 q 341 951 249 911 q 542 990 433 990 q 742 951 650 990 q 901 842 833 911 q 1008 681 969 772 q 1046 485 1046 589 q 1008 290 1046 381 q 901 129 969 199 q 742 21 833 60 q 542 -18 650 -18 m 542 163 q 703 206 636 163 q 808 324 771 250 q 844 485 844 397 q 808 647 844 574 q 703 765 771 721 q 542 810 636 810 q 378 765 447 810 q 273 647 310 721 q 236 485 236 574 q 273 324 236 397 q 378 206 310 250 q 542 163 447 163 m 326 1036 l 467 1278 l 618 1278 l 754 1036 l 592 1036 l 542 1147 l 492 1036 l 326 1036 m 654 1290 q 584 1303 613 1290 q 535 1335 556 1317 q 493 1366 514 1353 q 444 1379 472 1379 q 394 1356 407 1379 q 381 1310 381 1332 l 261 1310 q 288 1418 261 1375 q 358 1483 315 1461 q 446 1504 400 1504 q 517 1491 488 1504 q 570 1461 547 1478 q 613 1431 593 1444 q 653 1418 632 1418 q 693 1444 685 1418 q 701 1489 701 1469 l 822 1489 q 781 1345 822 1400 q 654 1290 739 1290 z "},"Ö":{"ha":1081,"x_min":35,"x_max":1046,"o":"m 542 -18 q 341 21 433 -18 q 180 129 249 60 q 73 290 111 199 q 35 485 35 381 q 73 681 35 589 q 180 842 111 772 q 341 951 249 911 q 542 990 433 990 q 742 951 650 990 q 901 842 833 911 q 1008 681 969 772 q 1046 485 1046 589 q 1008 290 1046 381 q 901 129 969 199 q 742 21 833 60 q 542 -18 650 -18 m 542 163 q 703 206 636 163 q 808 324 771 250 q 844 485 844 397 q 808 647 844 574 q 703 765 771 721 q 542 810 636 810 q 378 765 447 810 q 273 647 310 721 q 236 485 236 574 q 273 324 236 397 q 378 206 310 250 q 542 163 447 163 m 689 1032 q 609 1065 642 1032 q 576 1143 576 1097 q 609 1220 576 1188 q 689 1253 642 1253 q 769 1220 738 1253 q 801 1143 801 1188 q 769 1064 801 1096 q 689 1032 738 1032 m 394 1032 q 315 1065 347 1032 q 282 1143 282 1097 q 315 1220 282 1188 q 394 1253 347 1253 q 475 1220 443 1253 q 507 1143 507 1188 q 475 1064 507 1096 q 394 1032 443 1032 z "},"Ọ":{"ha":1081,"x_min":35,"x_max":1046,"o":"m 542 -18 q 341 21 433 -18 q 180 129 249 60 q 73 290 111 199 q 35 485 35 381 q 73 681 35 589 q 180 842 111 772 q 341 951 249 911 q 542 990 433 990 q 742 951 650 990 q 901 842 833 911 q 1008 681 969 772 q 1046 485 1046 589 q 1008 290 1046 381 q 901 129 969 199 q 742 21 833 60 q 542 -18 650 -18 m 542 163 q 703 206 636 163 q 808 324 771 250 q 844 485 844 397 q 808 647 844 574 q 703 765 771 721 q 542 810 636 810 q 378 765 447 810 q 273 647 310 721 q 236 485 236 574 q 273 324 236 397 q 378 206 310 250 q 542 163 447 163 m 542 -296 q 462 -263 494 -296 q 429 -185 429 -231 q 462 -108 429 -140 q 542 -75 494 -75 q 622 -108 590 -75 q 654 -185 654 -140 q 622 -264 654 -232 q 542 -296 590 -296 z "},"Ò":{"ha":1081,"x_min":35,"x_max":1046,"o":"m 542 -18 q 341 21 433 -18 q 180 129 249 60 q 73 290 111 199 q 35 485 35 381 q 73 681 35 589 q 180 842 111 772 q 341 951 249 911 q 542 990 433 990 q 742 951 650 990 q 901 842 833 911 q 1008 681 969 772 q 1046 485 1046 589 q 1008 290 1046 381 q 901 129 969 199 q 742 21 833 60 q 542 -18 650 -18 m 542 163 q 703 206 636 163 q 808 324 771 250 q 844 485 844 397 q 808 647 844 574 q 703 765 771 721 q 542 810 636 810 q 378 765 447 810 q 273 647 310 721 q 236 485 236 574 q 273 324 236 397 q 378 206 310 250 q 542 163 447 163 m 482 1036 l 344 1278 l 565 1278 l 613 1036 l 482 1036 z "},"Ỏ":{"ha":1081,"x_min":35,"x_max":1046,"o":"m 542 -18 q 341 21 433 -18 q 180 129 249 60 q 73 290 111 199 q 35 485 35 381 q 73 681 35 589 q 180 842 111 772 q 341 951 249 911 q 542 990 433 990 q 742 951 650 990 q 901 842 833 911 q 1008 681 969 772 q 1046 485 1046 589 q 1008 290 1046 381 q 901 129 969 199 q 742 21 833 60 q 542 -18 650 -18 m 542 163 q 703 206 636 163 q 808 324 771 250 q 844 485 844 397 q 808 647 844 574 q 703 765 771 721 q 542 810 636 810 q 378 765 447 810 q 273 647 310 721 q 236 485 236 574 q 273 324 236 397 q 378 206 310 250 q 542 163 447 163 m 539 1024 q 461 1042 500 1024 l 493 1135 q 510 1129 500 1131 q 525 1128 519 1128 q 572 1169 572 1128 q 560 1196 572 1185 q 533 1207 549 1207 q 504 1196 515 1207 q 493 1165 493 1185 l 376 1165 q 422 1274 376 1232 q 535 1315 468 1315 q 648 1277 603 1315 q 693 1174 693 1239 q 651 1065 693 1106 q 539 1024 610 1024 z "},"Ơ":{"ha":1081,"x_min":35,"x_max":1046,"o":"m 542 -18 q 341 21 433 -18 q 180 129 249 60 q 73 290 111 199 q 35 485 35 381 q 73 681 35 589 q 180 842 111 772 q 341 951 249 911 q 542 990 433 990 q 742 951 650 990 q 901 842 833 911 q 1008 681 969 772 q 1046 485 1046 589 q 1008 290 1046 381 q 901 129 969 199 q 742 21 833 60 q 542 -18 650 -18 m 542 163 q 703 206 636 163 q 808 324 771 250 q 844 485 844 397 q 808 647 844 574 q 703 765 771 721 q 542 810 636 810 q 378 765 447 810 q 273 647 310 721 q 236 485 236 574 q 273 324 236 397 q 378 206 310 250 q 542 163 447 163 m 700 846 l 689 968 l 707 968 q 793 992 768 968 q 818 1092 818 1015 l 818 1136 l 976 1136 l 976 1081 q 910 905 976 964 q 700 846 843 846 z "},"Ớ":{"ha":1081,"x_min":35,"x_max":1046,"o":"m 542 -18 q 341 21 433 -18 q 180 129 249 60 q 73 290 111 199 q 35 485 35 381 q 73 681 35 589 q 180 842 111 772 q 341 951 249 911 q 542 990 433 990 q 742 951 650 990 q 901 842 833 911 q 1008 681 969 772 q 1046 485 1046 589 q 1008 290 1046 381 q 901 129 969 199 q 742 21 833 60 q 542 -18 650 -18 m 542 163 q 703 206 636 163 q 808 324 771 250 q 844 485 844 397 q 808 647 844 574 q 703 765 771 721 q 542 810 636 810 q 378 765 447 810 q 273 647 310 721 q 236 485 236 574 q 273 324 236 397 q 378 206 310 250 q 542 163 447 163 m 700 846 l 689 968 l 707 968 q 793 992 768 968 q 818 1092 818 1015 l 818 1136 l 976 1136 l 976 1081 q 910 905 976 964 q 700 846 843 846 m 474 1036 l 535 1278 l 726 1278 l 604 1036 l 474 1036 z "},"Ợ":{"ha":1081,"x_min":35,"x_max":1046,"o":"m 542 -18 q 341 21 433 -18 q 180 129 249 60 q 73 290 111 199 q 35 485 35 381 q 73 681 35 589 q 180 842 111 772 q 341 951 249 911 q 542 990 433 990 q 742 951 650 990 q 901 842 833 911 q 1008 681 969 772 q 1046 485 1046 589 q 1008 290 1046 381 q 901 129 969 199 q 742 21 833 60 q 542 -18 650 -18 m 542 163 q 703 206 636 163 q 808 324 771 250 q 844 485 844 397 q 808 647 844 574 q 703 765 771 721 q 542 810 636 810 q 378 765 447 810 q 273 647 310 721 q 236 485 236 574 q 273 324 236 397 q 378 206 310 250 q 542 163 447 163 m 700 846 l 689 968 l 707 968 q 793 992 768 968 q 818 1092 818 1015 l 818 1136 l 976 1136 l 976 1081 q 910 905 976 964 q 700 846 843 846 m 542 -296 q 462 -263 494 -296 q 429 -185 429 -231 q 462 -108 429 -140 q 542 -75 494 -75 q 622 -108 590 -75 q 654 -185 654 -140 q 622 -264 654 -232 q 542 -296 590 -296 z "},"Ờ":{"ha":1081,"x_min":35,"x_max":1046,"o":"m 542 -18 q 341 21 433 -18 q 180 129 249 60 q 73 290 111 199 q 35 485 35 381 q 73 681 35 589 q 180 842 111 772 q 341 951 249 911 q 542 990 433 990 q 742 951 650 990 q 901 842 833 911 q 1008 681 969 772 q 1046 485 1046 589 q 1008 290 1046 381 q 901 129 969 199 q 742 21 833 60 q 542 -18 650 -18 m 542 163 q 703 206 636 163 q 808 324 771 250 q 844 485 844 397 q 808 647 844 574 q 703 765 771 721 q 542 810 636 810 q 378 765 447 810 q 273 647 310 721 q 236 485 236 574 q 273 324 236 397 q 378 206 310 250 q 542 163 447 163 m 700 846 l 689 968 l 707 968 q 793 992 768 968 q 818 1092 818 1015 l 818 1136 l 976 1136 l 976 1081 q 910 905 976 964 q 700 846 843 846 m 482 1036 l 344 1278 l 565 1278 l 613 1036 l 482 1036 z "},"Ở":{"ha":1081,"x_min":35,"x_max":1046,"o":"m 542 -18 q 341 21 433 -18 q 180 129 249 60 q 73 290 111 199 q 35 485 35 381 q 73 681 35 589 q 180 842 111 772 q 341 951 249 911 q 542 990 433 990 q 742 951 650 990 q 901 842 833 911 q 1008 681 969 772 q 1046 485 1046 589 q 1008 290 1046 381 q 901 129 969 199 q 742 21 833 60 q 542 -18 650 -18 m 542 163 q 703 206 636 163 q 808 324 771 250 q 844 485 844 397 q 808 647 844 574 q 703 765 771 721 q 542 810 636 810 q 378 765 447 810 q 273 647 310 721 q 236 485 236 574 q 273 324 236 397 q 378 206 310 250 q 542 163 447 163 m 700 846 l 689 968 l 707 968 q 793 992 768 968 q 818 1092 818 1015 l 818 1136 l 976 1136 l 976 1081 q 910 905 976 964 q 700 846 843 846 m 539 1024 q 461 1042 500 1024 l 493 1135 q 510 1129 500 1131 q 525 1128 519 1128 q 572 1169 572 1128 q 560 1196 572 1185 q 533 1207 549 1207 q 504 1196 515 1207 q 493 1165 493 1185 l 376 1165 q 422 1274 376 1232 q 535 1315 468 1315 q 648 1277 603 1315 q 693 1174 693 1239 q 651 1065 693 1106 q 539 1024 610 1024 z "},"Ỡ":{"ha":1081,"x_min":35,"x_max":1046,"o":"m 542 -18 q 341 21 433 -18 q 180 129 249 60 q 73 290 111 199 q 35 485 35 381 q 73 681 35 589 q 180 842 111 772 q 341 951 249 911 q 542 990 433 990 q 742 951 650 990 q 901 842 833 911 q 1008 681 969 772 q 1046 485 1046 589 q 1008 290 1046 381 q 901 129 969 199 q 742 21 833 60 q 542 -18 650 -18 m 542 163 q 703 206 636 163 q 808 324 771 250 q 844 485 844 397 q 808 647 844 574 q 703 765 771 721 q 542 810 636 810 q 378 765 447 810 q 273 647 310 721 q 236 485 236 574 q 273 324 236 397 q 378 206 310 250 q 542 163 447 163 m 700 846 l 689 968 l 707 968 q 793 992 768 968 q 818 1092 818 1015 l 818 1136 l 976 1136 l 976 1081 q 910 905 976 964 q 700 846 843 846 m 654 1024 q 584 1037 613 1024 q 535 1068 556 1050 q 493 1099 514 1086 q 444 1113 472 1113 q 394 1089 407 1113 q 381 1043 381 1065 l 261 1043 q 288 1151 261 1108 q 358 1216 315 1194 q 446 1238 400 1238 q 517 1224 488 1238 q 570 1194 547 1211 q 613 1165 593 1178 q 653 1151 632 1151 q 693 1177 685 1151 q 701 1222 701 1203 l 822 1222 q 781 1078 822 1133 q 654 1024 739 1024 z "},"Ő":{"ha":1081,"x_min":35,"x_max":1046,"o":"m 542 -18 q 341 21 433 -18 q 180 129 249 60 q 73 290 111 199 q 35 485 35 381 q 73 681 35 589 q 180 842 111 772 q 341 951 249 911 q 542 990 433 990 q 742 951 650 990 q 901 842 833 911 q 1008 681 969 772 q 1046 485 1046 589 q 1008 290 1046 381 q 901 129 969 199 q 742 21 833 60 q 542 -18 650 -18 m 542 163 q 703 206 636 163 q 808 324 771 250 q 844 485 844 397 q 808 647 844 574 q 703 765 771 721 q 542 810 636 810 q 378 765 447 810 q 273 647 310 721 q 236 485 236 574 q 273 324 236 397 q 378 206 310 250 q 542 163 447 163 m 596 1036 l 640 1278 l 825 1278 l 692 1036 l 596 1036 m 367 1036 l 411 1278 l 596 1278 l 463 1036 l 367 1036 z "},"Ō":{"ha":1081,"x_min":35,"x_max":1046,"o":"m 542 -18 q 341 21 433 -18 q 180 129 249 60 q 73 290 111 199 q 35 485 35 381 q 73 681 35 589 q 180 842 111 772 q 341 951 249 911 q 542 990 433 990 q 742 951 650 990 q 901 842 833 911 q 1008 681 969 772 q 1046 485 1046 589 q 1008 290 1046 381 q 901 129 969 199 q 742 21 833 60 q 542 -18 650 -18 m 542 163 q 703 206 636 163 q 808 324 771 250 q 844 485 844 397 q 808 647 844 574 q 703 765 771 721 q 542 810 636 810 q 378 765 447 810 q 273 647 310 721 q 236 485 236 574 q 273 324 236 397 q 378 206 310 250 q 542 163 447 163 m 331 1081 l 331 1206 l 756 1206 l 756 1081 l 331 1081 z "},"Ø":{"ha":1081,"x_min":35,"x_max":1046,"o":"m 542 -18 q 341 21 433 -18 q 180 129 249 60 q 73 290 111 199 q 35 485 35 381 q 73 681 35 589 q 180 842 111 772 q 341 951 249 911 q 542 990 433 990 q 742 951 650 990 q 901 842 833 911 q 1008 681 969 772 q 1046 485 1046 589 q 1008 290 1046 381 q 901 129 969 199 q 742 21 833 60 q 542 -18 650 -18 m 542 163 q 703 206 636 163 q 808 324 771 250 q 844 485 844 397 q 808 647 844 574 q 703 765 771 721 q 542 810 636 810 q 378 765 447 810 q 273 647 310 721 q 236 485 236 574 q 273 324 236 397 q 378 206 310 250 q 542 163 447 163 m 54 -56 l 903 1039 l 1017 1039 l 168 -56 l 54 -56 z "},"Õ":{"ha":1081,"x_min":35,"x_max":1046,"o":"m 542 -18 q 341 21 433 -18 q 180 129 249 60 q 73 290 111 199 q 35 485 35 381 q 73 681 35 589 q 180 842 111 772 q 341 951 249 911 q 542 990 433 990 q 742 951 650 990 q 901 842 833 911 q 1008 681 969 772 q 1046 485 1046 589 q 1008 290 1046 381 q 901 129 969 199 q 742 21 833 60 q 542 -18 650 -18 m 542 163 q 703 206 636 163 q 808 324 771 250 q 844 485 844 397 q 808 647 844 574 q 703 765 771 721 q 542 810 636 810 q 378 765 447 810 q 273 647 310 721 q 236 485 236 574 q 273 324 236 397 q 378 206 310 250 q 542 163 447 163 m 654 1024 q 584 1037 613 1024 q 535 1068 556 1050 q 493 1099 514 1086 q 444 1113 472 1113 q 394 1089 407 1113 q 381 1043 381 1065 l 261 1043 q 288 1151 261 1108 q 358 1216 315 1194 q 446 1238 400 1238 q 517 1224 488 1238 q 570 1194 547 1211 q 613 1165 593 1178 q 653 1151 632 1151 q 693 1177 685 1151 q 701 1222 701 1203 l 822 1222 q 781 1078 822 1133 q 654 1024 739 1024 z "},"Œ":{"ha":1433,"x_min":35,"x_max":1379,"o":"m 528 -18 q 335 21 425 -18 q 178 129 246 60 q 73 290 111 199 q 35 485 35 381 q 73 681 35 589 q 178 842 111 772 q 335 951 246 911 q 528 990 425 990 q 713 953 636 990 q 840 853 790 917 l 840 972 l 1376 972 l 1376 797 l 1001 797 l 1001 579 l 1369 579 l 1369 410 l 1001 410 l 1001 175 l 1379 175 l 1379 0 l 840 0 l 840 118 q 713 19 790 56 q 528 -18 636 -18 m 542 163 q 706 206 640 163 q 803 324 771 250 q 835 485 835 397 q 803 647 835 574 q 706 765 771 721 q 542 810 640 810 q 378 765 447 810 q 273 647 310 721 q 236 485 236 574 q 273 324 236 397 q 378 206 310 250 q 542 163 447 163 z "},"P":{"ha":763,"x_min":69,"x_max":749,"o":"m 69 0 l 69 972 l 397 972 q 655 895 561 972 q 749 665 749 818 q 655 432 749 511 q 397 353 561 353 l 264 353 l 264 0 l 69 0 m 264 528 l 386 528 q 508 561 465 528 q 551 664 551 594 q 508 766 551 733 q 386 799 465 799 l 264 799 l 264 528 z "},"Þ":{"ha":768,"x_min":69,"x_max":750,"o":"m 69 0 l 69 972 l 261 972 l 261 808 l 399 808 q 656 725 563 808 q 750 489 750 642 q 656 250 750 335 q 399 165 563 165 l 264 165 l 264 0 l 69 0 m 264 340 l 388 340 q 510 376 467 340 q 553 488 553 413 q 510 597 553 561 q 388 633 467 633 l 264 633 l 264 340 z "},"Q":{"ha":1081,"x_min":35,"x_max":1046,"o":"m 542 -18 q 341 21 433 -18 q 180 129 249 60 q 73 290 111 199 q 35 485 35 381 q 73 681 35 589 q 180 842 111 772 q 341 951 249 911 q 542 990 433 990 q 742 951 650 990 q 901 842 833 911 q 1008 681 969 772 q 1046 485 1046 589 q 1006 284 1046 378 q 894 122 965 190 l 1028 -79 l 817 -79 l 747 24 q 649 -7 700 4 q 542 -18 597 -18 m 542 163 q 654 182 603 163 l 538 358 l 749 358 l 792 294 q 844 485 844 376 q 808 647 844 574 q 703 765 771 721 q 542 810 636 810 q 378 765 447 810 q 273 647 310 721 q 236 485 236 574 q 273 324 236 397 q 378 206 310 250 q 542 163 447 163 z "},"R":{"ha":765,"x_min":69,"x_max":774,"o":"m 69 0 l 69 972 l 383 972 q 641 897 547 972 q 735 678 735 821 q 673 492 735 563 q 501 397 611 421 l 774 0 l 544 0 l 338 308 q 300 379 318 338 l 264 379 l 264 0 l 69 0 m 264 554 l 372 554 q 494 585 451 554 q 538 676 538 617 q 494 766 538 735 q 372 797 451 797 l 264 797 l 264 554 z "},"Ŕ":{"ha":765,"x_min":69,"x_max":774,"o":"m 69 0 l 69 972 l 383 972 q 641 897 547 972 q 735 678 735 821 q 673 492 735 563 q 501 397 611 421 l 774 0 l 544 0 l 338 308 q 300 379 318 338 l 264 379 l 264 0 l 69 0 m 264 554 l 372 554 q 494 585 451 554 q 538 676 538 617 q 494 766 538 735 q 372 797 451 797 l 264 797 l 264 554 m 321 1036 l 382 1278 l 574 1278 l 451 1036 l 321 1036 z "},"Ř":{"ha":765,"x_min":69,"x_max":774,"o":"m 69 0 l 69 972 l 383 972 q 641 897 547 972 q 735 678 735 821 q 673 492 735 563 q 501 397 611 421 l 774 0 l 544 0 l 338 308 q 300 379 318 338 l 264 379 l 264 0 l 69 0 m 264 554 l 372 554 q 494 585 451 554 q 538 676 538 617 q 494 766 538 735 q 372 797 451 797 l 264 797 l 264 554 m 174 1278 l 339 1278 l 389 1167 l 439 1278 l 601 1278 l 465 1036 l 314 1036 l 174 1278 z "},"Ŗ":{"ha":765,"x_min":69,"x_max":774,"o":"m 69 0 l 69 972 l 383 972 q 641 897 547 972 q 735 678 735 821 q 673 492 735 563 q 501 397 611 421 l 774 0 l 544 0 l 338 308 q 300 379 318 338 l 264 379 l 264 0 l 69 0 m 264 554 l 372 554 q 494 585 451 554 q 538 676 538 617 q 494 766 538 735 q 372 797 451 797 l 264 797 l 264 554 m 281 -278 l 328 -62 l 519 -62 l 383 -278 l 281 -278 z "},"Ṝ":{"ha":765,"x_min":69,"x_max":774,"o":"m 69 0 l 69 972 l 383 972 q 641 897 547 972 q 735 678 735 821 q 673 492 735 563 q 501 397 611 421 l 774 0 l 544 0 l 338 308 q 300 379 318 338 l 264 379 l 264 0 l 69 0 m 264 554 l 372 554 q 494 585 451 554 q 538 676 538 617 q 494 766 538 735 q 372 797 451 797 l 264 797 l 264 554 m 424 -296 q 344 -263 376 -296 q 311 -185 311 -231 q 344 -108 311 -140 q 424 -75 376 -75 q 504 -108 472 -75 q 536 -185 536 -140 q 504 -264 536 -232 q 424 -296 472 -296 m 178 1081 l 178 1206 l 603 1206 l 603 1081 l 178 1081 z "},"Ṟ":{"ha":765,"x_min":69,"x_max":774,"o":"m 69 0 l 69 972 l 383 972 q 641 897 547 972 q 735 678 735 821 q 673 492 735 563 q 501 397 611 421 l 774 0 l 544 0 l 338 308 q 300 379 318 338 l 264 379 l 264 0 l 69 0 m 264 554 l 372 554 q 494 585 451 554 q 538 676 538 617 q 494 766 538 735 q 372 797 451 797 l 264 797 l 264 554 m 211 -251 l 211 -126 l 636 -126 l 636 -251 l 211 -251 z "},"S":{"ha":772,"x_min":14,"x_max":742,"o":"m 386 -18 q 174 31 271 -18 q 14 192 78 81 l 182 299 q 276 190 219 224 q 397 156 333 156 q 504 186 465 156 q 543 267 543 217 q 513 344 543 315 q 431 392 482 374 q 321 425 381 410 q 142 522 208 454 q 75 699 75 589 q 118 851 75 786 q 238 953 161 917 q 418 989 315 989 q 608 942 532 989 q 739 808 685 894 l 572 706 q 500 789 538 763 q 408 815 463 815 q 312 786 350 815 q 274 708 274 757 q 319 630 274 654 q 428 586 364 606 q 524 553 471 572 q 628 502 578 535 q 710 415 678 469 q 742 278 742 361 q 699 124 742 190 q 576 19 656 57 q 386 -18 497 -18 z "},"Ś":{"ha":772,"x_min":14,"x_max":742,"o":"m 386 -18 q 174 31 271 -18 q 14 192 78 81 l 182 299 q 276 190 219 224 q 397 156 333 156 q 504 186 465 156 q 543 267 543 217 q 513 344 543 315 q 431 392 482 374 q 321 425 381 410 q 142 522 208 454 q 75 699 75 589 q 118 851 75 786 q 238 953 161 917 q 418 989 315 989 q 608 942 532 989 q 739 808 685 894 l 572 706 q 500 789 538 763 q 408 815 463 815 q 312 786 350 815 q 274 708 274 757 q 319 630 274 654 q 428 586 364 606 q 524 553 471 572 q 628 502 578 535 q 710 415 678 469 q 742 278 742 361 q 699 124 742 190 q 576 19 656 57 q 386 -18 497 -18 m 347 1036 l 408 1278 l 600 1278 l 478 1036 l 347 1036 z "},"Š":{"ha":772,"x_min":14,"x_max":742,"o":"m 386 -18 q 174 31 271 -18 q 14 192 78 81 l 182 299 q 276 190 219 224 q 397 156 333 156 q 504 186 465 156 q 543 267 543 217 q 513 344 543 315 q 431 392 482 374 q 321 425 381 410 q 142 522 208 454 q 75 699 75 589 q 118 851 75 786 q 238 953 161 917 q 418 989 315 989 q 608 942 532 989 q 739 808 685 894 l 572 706 q 500 789 538 763 q 408 815 463 815 q 312 786 350 815 q 274 708 274 757 q 319 630 274 654 q 428 586 364 606 q 524 553 471 572 q 628 502 578 535 q 710 415 678 469 q 742 278 742 361 q 699 124 742 190 q 576 19 656 57 q 386 -18 497 -18 m 200 1278 l 365 1278 l 415 1167 l 465 1278 l 628 1278 l 492 1036 l 340 1036 l 200 1278 z "},"Ş":{"ha":772,"x_min":14,"x_max":742,"o":"m 386 -18 q 174 31 271 -18 q 14 192 78 81 l 182 299 q 276 190 219 224 q 397 156 333 156 q 504 186 465 156 q 543 267 543 217 q 513 344 543 315 q 431 392 482 374 q 321 425 381 410 q 142 522 208 454 q 75 699 75 589 q 118 851 75 786 q 238 953 161 917 q 418 989 315 989 q 608 942 532 989 q 739 808 685 894 l 572 706 q 500 789 538 763 q 408 815 463 815 q 312 786 350 815 q 274 708 274 757 q 319 630 274 654 q 428 586 364 606 q 524 553 471 572 q 628 502 578 535 q 710 415 678 469 q 742 278 742 361 q 699 124 742 190 q 576 19 656 57 q 386 -18 497 -18 m 364 -296 q 299 -288 325 -296 q 233 -251 274 -281 l 297 -171 q 322 -187 308 -181 q 351 -194 336 -194 q 381 -186 367 -194 q 394 -156 394 -178 q 383 -132 394 -140 q 360 -124 372 -124 q 329 -128 342 -124 l 324 -124 l 382 8 l 465 14 l 431 -60 q 486 -101 468 -71 q 504 -167 504 -132 q 460 -264 504 -232 q 364 -296 417 -296 z "},"Ŝ":{"ha":772,"x_min":14,"x_max":742,"o":"m 386 -18 q 174 31 271 -18 q 14 192 78 81 l 182 299 q 276 190 219 224 q 397 156 333 156 q 504 186 465 156 q 543 267 543 217 q 513 344 543 315 q 431 392 482 374 q 321 425 381 410 q 142 522 208 454 q 75 699 75 589 q 118 851 75 786 q 238 953 161 917 q 418 989 315 989 q 608 942 532 989 q 739 808 685 894 l 572 706 q 500 789 538 763 q 408 815 463 815 q 312 786 350 815 q 274 708 274 757 q 319 630 274 654 q 428 586 364 606 q 524 553 471 572 q 628 502 578 535 q 710 415 678 469 q 742 278 742 361 q 699 124 742 190 q 576 19 656 57 q 386 -18 497 -18 m 200 1036 l 340 1278 l 492 1278 l 628 1036 l 465 1036 l 415 1147 l 365 1036 l 200 1036 z "},"Ș":{"ha":772,"x_min":14,"x_max":742,"o":"m 386 -18 q 174 31 271 -18 q 14 192 78 81 l 182 299 q 276 190 219 224 q 397 156 333 156 q 504 186 465 156 q 543 267 543 217 q 513 344 543 315 q 431 392 482 374 q 321 425 381 410 q 142 522 208 454 q 75 699 75 589 q 118 851 75 786 q 238 953 161 917 q 418 989 315 989 q 608 942 532 989 q 739 808 685 894 l 572 706 q 500 789 538 763 q 408 815 463 815 q 312 786 350 815 q 274 708 274 757 q 319 630 274 654 q 428 586 364 606 q 524 553 471 572 q 628 502 578 535 q 710 415 678 469 q 742 278 742 361 q 699 124 742 190 q 576 19 656 57 q 386 -18 497 -18 m 249 -278 l 296 -62 l 488 -62 l 351 -278 l 249 -278 z "},"Ṣ":{"ha":772,"x_min":14,"x_max":742,"o":"m 386 -18 q 174 31 271 -18 q 14 192 78 81 l 182 299 q 276 190 219 224 q 397 156 333 156 q 504 186 465 156 q 543 267 543 217 q 513 344 543 315 q 431 392 482 374 q 321 425 381 410 q 142 522 208 454 q 75 699 75 589 q 118 851 75 786 q 238 953 161 917 q 418 989 315 989 q 608 942 532 989 q 739 808 685 894 l 572 706 q 500 789 538 763 q 408 815 463 815 q 312 786 350 815 q 274 708 274 757 q 319 630 274 654 q 428 586 364 606 q 524 553 471 572 q 628 502 578 535 q 710 415 678 469 q 742 278 742 361 q 699 124 742 190 q 576 19 656 57 q 386 -18 497 -18 m 392 -296 q 312 -263 344 -296 q 279 -185 279 -231 q 312 -108 279 -140 q 392 -75 344 -75 q 472 -108 440 -75 q 504 -185 504 -140 q 472 -264 504 -232 q 392 -296 440 -296 z "},"ẞ":{"ha":888,"x_min":63,"x_max":864,"o":"m 522 -18 q 394 -6 446 -18 q 292 40 343 6 l 397 189 q 442 160 417 171 q 506 150 467 150 q 610 192 575 150 q 644 288 644 235 q 602 389 644 353 q 483 425 560 425 l 360 425 l 360 443 l 549 757 q 564 779 556 768 q 583 801 572 790 l 447 801 q 299 753 343 801 q 256 589 256 706 l 256 0 l 63 0 l 63 603 q 158 880 63 785 q 446 975 254 975 l 864 975 l 864 953 l 628 553 q 753 488 708 532 q 814 389 797 443 q 831 286 831 335 q 797 142 831 213 q 694 27 763 72 q 522 -18 625 -18 z "},"T":{"ha":792,"x_min":21,"x_max":771,"o":"m 299 0 l 299 797 l 21 797 l 21 972 l 771 972 l 771 797 l 493 797 l 493 0 l 299 0 z "},"Ť":{"ha":792,"x_min":21,"x_max":771,"o":"m 299 0 l 299 797 l 21 797 l 21 972 l 771 972 l 771 797 l 493 797 l 493 0 l 299 0 m 181 1278 l 346 1278 l 396 1167 l 446 1278 l 608 1278 l 472 1036 l 321 1036 l 181 1278 z "},"Ţ":{"ha":792,"x_min":21,"x_max":771,"o":"m 299 0 l 299 797 l 21 797 l 21 972 l 771 972 l 771 797 l 493 797 l 493 0 l 299 0 m 368 -296 q 303 -288 329 -296 q 238 -251 278 -281 l 301 -171 q 326 -187 313 -181 q 356 -194 340 -194 q 385 -186 371 -194 q 399 -156 399 -178 q 388 -132 399 -140 q 364 -124 376 -124 q 333 -128 346 -124 l 328 -124 l 386 8 l 469 14 l 435 -60 q 490 -101 472 -71 q 508 -167 508 -132 q 465 -264 508 -232 q 368 -296 421 -296 z "},"Ț":{"ha":792,"x_min":21,"x_max":771,"o":"m 299 0 l 299 797 l 21 797 l 21 972 l 771 972 l 771 797 l 493 797 l 493 0 l 299 0 m 253 -278 l 300 -62 l 492 -62 l 356 -278 l 253 -278 z "},"Ṭ":{"ha":792,"x_min":21,"x_max":771,"o":"m 299 0 l 299 797 l 21 797 l 21 972 l 771 972 l 771 797 l 493 797 l 493 0 l 299 0 m 396 -296 q 316 -263 349 -296 q 283 -185 283 -231 q 316 -108 283 -140 q 396 -75 349 -75 q 476 -108 444 -75 q 508 -185 508 -140 q 476 -264 508 -232 q 396 -296 444 -296 z "},"Ṯ":{"ha":792,"x_min":21,"x_max":771,"o":"m 299 0 l 299 797 l 21 797 l 21 972 l 771 972 l 771 797 l 493 797 l 493 0 l 299 0 m 183 -251 l 183 -126 l 608 -126 l 608 -251 l 183 -251 z "},"U":{"ha":897,"x_min":56,"x_max":842,"o":"m 449 -18 q 242 30 331 -18 q 104 163 153 78 q 56 360 56 249 l 56 972 l 250 972 l 250 381 q 299 219 250 278 q 449 160 349 160 q 598 219 549 160 q 647 381 647 278 l 647 972 l 842 972 l 842 360 q 793 163 842 249 q 656 30 744 78 q 449 -18 568 -18 z "},"Ú":{"ha":897,"x_min":56,"x_max":842,"o":"m 449 -18 q 242 30 331 -18 q 104 163 153 78 q 56 360 56 249 l 56 972 l 250 972 l 250 381 q 299 219 250 278 q 449 160 349 160 q 598 219 549 160 q 647 381 647 278 l 647 972 l 842 972 l 842 360 q 793 163 842 249 q 656 30 744 78 q 449 -18 568 -18 m 381 1014 l 442 1256 l 633 1256 l 511 1014 l 381 1014 z "},"Ŭ":{"ha":897,"x_min":56,"x_max":842,"o":"m 449 -18 q 242 30 331 -18 q 104 163 153 78 q 56 360 56 249 l 56 972 l 250 972 l 250 381 q 299 219 250 278 q 449 160 349 160 q 598 219 549 160 q 647 381 647 278 l 647 972 l 842 972 l 842 360 q 793 163 842 249 q 656 30 744 78 q 449 -18 568 -18 m 449 1001 q 287 1056 347 1001 q 226 1194 226 1110 l 375 1194 q 392 1141 374 1165 q 449 1117 411 1117 q 506 1141 489 1117 q 522 1194 524 1165 l 671 1194 q 611 1056 671 1110 q 449 1001 551 1001 z "},"Û":{"ha":897,"x_min":56,"x_max":842,"o":"m 449 -18 q 242 30 331 -18 q 104 163 153 78 q 56 360 56 249 l 56 972 l 250 972 l 250 381 q 299 219 250 278 q 449 160 349 160 q 598 219 549 160 q 647 381 647 278 l 647 972 l 842 972 l 842 360 q 793 163 842 249 q 656 30 744 78 q 449 -18 568 -18 m 233 1014 l 374 1256 l 525 1256 l 661 1014 l 499 1014 l 449 1125 l 399 1014 l 233 1014 z "},"Ü":{"ha":897,"x_min":56,"x_max":842,"o":"m 449 -18 q 242 30 331 -18 q 104 163 153 78 q 56 360 56 249 l 56 972 l 250 972 l 250 381 q 299 219 250 278 q 449 160 349 160 q 598 219 549 160 q 647 381 647 278 l 647 972 l 842 972 l 842 360 q 793 163 842 249 q 656 30 744 78 q 449 -18 568 -18 m 596 1010 q 516 1042 549 1010 q 483 1121 483 1075 q 516 1198 483 1165 q 596 1231 549 1231 q 676 1198 644 1231 q 708 1121 708 1165 q 676 1042 708 1074 q 596 1010 644 1010 m 301 1010 q 222 1042 254 1010 q 189 1121 189 1075 q 222 1198 189 1165 q 301 1231 254 1231 q 382 1198 350 1231 q 414 1121 414 1165 q 382 1042 414 1074 q 301 1010 350 1010 z "},"Ụ":{"ha":897,"x_min":56,"x_max":842,"o":"m 449 -18 q 242 30 331 -18 q 104 163 153 78 q 56 360 56 249 l 56 972 l 250 972 l 250 381 q 299 219 250 278 q 449 160 349 160 q 598 219 549 160 q 647 381 647 278 l 647 972 l 842 972 l 842 360 q 793 163 842 249 q 656 30 744 78 q 449 -18 568 -18 m 449 -296 q 369 -263 401 -296 q 336 -185 336 -231 q 369 -108 336 -140 q 449 -75 401 -75 q 529 -108 497 -75 q 561 -185 561 -140 q 529 -264 561 -232 q 449 -296 497 -296 z "},"Ù":{"ha":897,"x_min":56,"x_max":842,"o":"m 449 -18 q 242 30 331 -18 q 104 163 153 78 q 56 360 56 249 l 56 972 l 250 972 l 250 381 q 299 219 250 278 q 449 160 349 160 q 598 219 549 160 q 647 381 647 278 l 647 972 l 842 972 l 842 360 q 793 163 842 249 q 656 30 744 78 q 449 -18 568 -18 m 389 1014 l 251 1256 l 472 1256 l 519 1014 l 389 1014 z "},"Ủ":{"ha":897,"x_min":56,"x_max":842,"o":"m 449 -18 q 242 30 331 -18 q 104 163 153 78 q 56 360 56 249 l 56 972 l 250 972 l 250 381 q 299 219 250 278 q 449 160 349 160 q 598 219 549 160 q 647 381 647 278 l 647 972 l 842 972 l 842 360 q 793 163 842 249 q 656 30 744 78 q 449 -18 568 -18 m 446 1001 q 368 1019 407 1001 l 400 1113 q 417 1107 407 1108 q 432 1106 426 1106 q 479 1147 479 1106 q 467 1174 479 1163 q 440 1185 456 1185 q 411 1174 422 1185 q 400 1143 400 1163 l 283 1143 q 329 1251 283 1210 q 442 1293 375 1293 q 555 1255 510 1293 q 600 1151 600 1217 q 558 1042 600 1083 q 446 1001 517 1001 z "},"Ư":{"ha":897,"x_min":56,"x_max":989,"o":"m 449 -18 q 242 30 331 -18 q 104 163 153 78 q 56 360 56 249 l 56 972 l 250 972 l 250 381 q 299 219 250 278 q 449 160 349 160 q 598 219 549 160 q 647 381 647 278 l 647 972 l 842 972 l 842 360 q 793 163 842 249 q 656 30 744 78 q 449 -18 568 -18 m 713 850 l 701 972 l 719 972 q 806 996 781 972 q 831 1096 831 1019 l 831 1140 l 989 1140 l 989 1085 q 922 909 989 968 q 713 850 856 850 z "},"Ứ":{"ha":897,"x_min":56,"x_max":989,"o":"m 449 -18 q 242 30 331 -18 q 104 163 153 78 q 56 360 56 249 l 56 972 l 250 972 l 250 381 q 299 219 250 278 q 449 160 349 160 q 598 219 549 160 q 647 381 647 278 l 647 972 l 842 972 l 842 360 q 793 163 842 249 q 656 30 744 78 q 449 -18 568 -18 m 713 850 l 701 972 l 719 972 q 806 996 781 972 q 831 1096 831 1019 l 831 1140 l 989 1140 l 989 1085 q 922 909 989 968 q 713 850 856 850 m 381 1014 l 442 1256 l 633 1256 l 511 1014 l 381 1014 z "},"Ự":{"ha":897,"x_min":56,"x_max":989,"o":"m 449 -18 q 242 30 331 -18 q 104 163 153 78 q 56 360 56 249 l 56 972 l 250 972 l 250 381 q 299 219 250 278 q 449 160 349 160 q 598 219 549 160 q 647 381 647 278 l 647 972 l 842 972 l 842 360 q 793 163 842 249 q 656 30 744 78 q 449 -18 568 -18 m 713 850 l 701 972 l 719 972 q 806 996 781 972 q 831 1096 831 1019 l 831 1140 l 989 1140 l 989 1085 q 922 909 989 968 q 713 850 856 850 m 449 -296 q 369 -263 401 -296 q 336 -185 336 -231 q 369 -108 336 -140 q 449 -75 401 -75 q 529 -108 497 -75 q 561 -185 561 -140 q 529 -264 561 -232 q 449 -296 497 -296 z "},"Ừ":{"ha":897,"x_min":56,"x_max":989,"o":"m 449 -18 q 242 30 331 -18 q 104 163 153 78 q 56 360 56 249 l 56 972 l 250 972 l 250 381 q 299 219 250 278 q 449 160 349 160 q 598 219 549 160 q 647 381 647 278 l 647 972 l 842 972 l 842 360 q 793 163 842 249 q 656 30 744 78 q 449 -18 568 -18 m 713 850 l 701 972 l 719 972 q 806 996 781 972 q 831 1096 831 1019 l 831 1140 l 989 1140 l 989 1085 q 922 909 989 968 q 713 850 856 850 m 389 1014 l 251 1256 l 472 1256 l 519 1014 l 389 1014 z "},"Ử":{"ha":897,"x_min":56,"x_max":989,"o":"m 449 -18 q 242 30 331 -18 q 104 163 153 78 q 56 360 56 249 l 56 972 l 250 972 l 250 381 q 299 219 250 278 q 449 160 349 160 q 598 219 549 160 q 647 381 647 278 l 647 972 l 842 972 l 842 360 q 793 163 842 249 q 656 30 744 78 q 449 -18 568 -18 m 713 850 l 701 972 l 719 972 q 806 996 781 972 q 831 1096 831 1019 l 831 1140 l 989 1140 l 989 1085 q 922 909 989 968 q 713 850 856 850 m 446 1001 q 368 1019 407 1001 l 400 1113 q 417 1107 407 1108 q 432 1106 426 1106 q 479 1147 479 1106 q 467 1174 479 1163 q 440 1185 456 1185 q 411 1174 422 1185 q 400 1143 400 1163 l 283 1143 q 329 1251 283 1210 q 442 1293 375 1293 q 555 1255 510 1293 q 600 1151 600 1217 q 558 1042 600 1083 q 446 1001 517 1001 z "},"Ữ":{"ha":897,"x_min":56,"x_max":989,"o":"m 449 -18 q 242 30 331 -18 q 104 163 153 78 q 56 360 56 249 l 56 972 l 250 972 l 250 381 q 299 219 250 278 q 449 160 349 160 q 598 219 549 160 q 647 381 647 278 l 647 972 l 842 972 l 842 360 q 793 163 842 249 q 656 30 744 78 q 449 -18 568 -18 m 713 850 l 701 972 l 719 972 q 806 996 781 972 q 831 1096 831 1019 l 831 1140 l 989 1140 l 989 1085 q 922 909 989 968 q 713 850 856 850 m 561 1001 q 491 1015 519 1001 q 442 1046 463 1028 q 400 1077 421 1064 q 351 1090 379 1090 q 301 1067 314 1090 q 288 1021 288 1043 l 168 1021 q 195 1129 168 1086 q 265 1194 222 1172 q 353 1215 307 1215 q 424 1202 394 1215 q 477 1172 454 1189 q 519 1142 500 1156 q 560 1129 539 1129 q 600 1155 592 1129 q 608 1200 608 1181 l 729 1200 q 688 1056 729 1111 q 561 1001 646 1001 z "},"Ű":{"ha":897,"x_min":56,"x_max":842,"o":"m 449 -18 q 242 30 331 -18 q 104 163 153 78 q 56 360 56 249 l 56 972 l 250 972 l 250 381 q 299 219 250 278 q 449 160 349 160 q 598 219 549 160 q 647 381 647 278 l 647 972 l 842 972 l 842 360 q 793 163 842 249 q 656 30 744 78 q 449 -18 568 -18 m 503 1014 l 547 1256 l 732 1256 l 599 1014 l 503 1014 m 274 1014 l 318 1256 l 503 1256 l 369 1014 l 274 1014 z "},"Ū":{"ha":897,"x_min":56,"x_max":842,"o":"m 449 -18 q 242 30 331 -18 q 104 163 153 78 q 56 360 56 249 l 56 972 l 250 972 l 250 381 q 299 219 250 278 q 449 160 349 160 q 598 219 549 160 q 647 381 647 278 l 647 972 l 842 972 l 842 360 q 793 163 842 249 q 656 30 744 78 q 449 -18 568 -18 m 238 1058 l 238 1183 l 663 1183 l 663 1058 l 238 1058 z "},"Ų":{"ha":897,"x_min":56,"x_max":842,"o":"m 557 -297 q 434 -255 478 -297 q 390 -144 390 -212 q 403 -78 390 -107 q 446 -18 415 -49 q 240 31 328 -18 q 104 164 153 79 q 56 360 56 249 l 56 972 l 250 972 l 250 381 q 299 219 250 278 q 449 160 349 160 q 598 219 549 160 q 647 381 647 278 l 647 972 l 842 972 l 842 360 q 785 149 842 239 q 626 17 728 60 l 560 -36 q 529 -69 538 -53 q 521 -104 521 -86 q 543 -144 521 -132 q 592 -157 565 -157 q 613 -156 604 -157 q 628 -151 621 -154 l 661 -281 q 606 -294 632 -290 q 557 -297 581 -297 z "},"Ů":{"ha":897,"x_min":56,"x_max":842,"o":"m 449 -18 q 242 30 331 -18 q 104 163 153 78 q 56 360 56 249 l 56 972 l 250 972 l 250 381 q 299 219 250 278 q 449 160 349 160 q 598 219 549 160 q 647 381 647 278 l 647 972 l 842 972 l 842 360 q 793 163 842 249 q 656 30 744 78 q 449 -18 568 -18 m 449 1001 q 344 1044 389 1001 q 300 1147 300 1088 q 344 1251 300 1208 q 449 1293 389 1293 q 553 1251 510 1293 q 597 1147 597 1208 q 553 1044 597 1088 q 449 1001 510 1001 m 449 1094 q 484 1110 469 1094 q 499 1147 499 1126 q 484 1183 499 1168 q 449 1199 469 1199 q 412 1183 428 1199 q 396 1147 396 1168 q 412 1110 396 1126 q 449 1094 428 1094 z "},"Ũ":{"ha":897,"x_min":56,"x_max":842,"o":"m 449 -18 q 242 30 331 -18 q 104 163 153 78 q 56 360 56 249 l 56 972 l 250 972 l 250 381 q 299 219 250 278 q 449 160 349 160 q 598 219 549 160 q 647 381 647 278 l 647 972 l 842 972 l 842 360 q 793 163 842 249 q 656 30 744 78 q 449 -18 568 -18 m 561 1001 q 491 1015 519 1001 q 442 1046 463 1028 q 400 1077 421 1064 q 351 1090 379 1090 q 301 1067 314 1090 q 288 1021 288 1043 l 168 1021 q 195 1129 168 1086 q 265 1194 222 1172 q 353 1215 307 1215 q 424 1202 394 1215 q 477 1172 454 1189 q 519 1142 500 1156 q 560 1129 539 1129 q 600 1155 592 1129 q 608 1200 608 1181 l 729 1200 q 688 1056 729 1111 q 561 1001 646 1001 z "},"V":{"ha":913,"x_min":-24,"x_max":936,"o":"m 364 0 l -24 972 l 201 972 l 424 354 q 458 232 446 293 q 474 294 465 263 q 493 354 482 325 l 715 972 l 936 972 l 551 0 l 364 0 z "},"W":{"ha":1450,"x_min":-12,"x_max":1463,"o":"m 313 0 l -12 972 l 210 972 l 365 422 q 388 338 378 381 q 404 256 399 296 q 419 339 410 296 q 444 422 429 382 l 638 972 l 813 972 l 1006 422 q 1049 256 1036 338 q 1063 338 1054 296 q 1085 422 1072 381 l 1240 972 l 1463 972 l 1138 0 l 963 0 l 765 549 q 725 708 738 625 q 708 628 718 668 q 685 549 699 588 l 488 0 l 313 0 z "},"Ẃ":{"ha":1450,"x_min":-12,"x_max":1463,"o":"m 313 0 l -12 972 l 210 972 l 365 422 q 388 338 378 381 q 404 256 399 296 q 419 339 410 296 q 444 422 429 382 l 638 972 l 813 972 l 1006 422 q 1049 256 1036 338 q 1063 338 1054 296 q 1085 422 1072 381 l 1240 972 l 1463 972 l 1138 0 l 963 0 l 765 549 q 725 708 738 625 q 708 628 718 668 q 685 549 699 588 l 488 0 l 313 0 m 665 1036 l 726 1278 l 918 1278 l 796 1036 l 665 1036 z "},"Ŵ":{"ha":1450,"x_min":-12,"x_max":1463,"o":"m 313 0 l -12 972 l 210 972 l 365 422 q 388 338 378 381 q 404 256 399 296 q 419 339 410 296 q 444 422 429 382 l 638 972 l 813 972 l 1006 422 q 1049 256 1036 338 q 1063 338 1054 296 q 1085 422 1072 381 l 1240 972 l 1463 972 l 1138 0 l 963 0 l 765 549 q 725 708 738 625 q 708 628 718 668 q 685 549 699 588 l 488 0 l 313 0 m 518 1036 l 658 1278 l 810 1278 l 946 1036 l 783 1036 l 733 1147 l 683 1036 l 518 1036 z "},"Ẅ":{"ha":1450,"x_min":-12,"x_max":1463,"o":"m 313 0 l -12 972 l 210 972 l 365 422 q 388 338 378 381 q 404 256 399 296 q 419 339 410 296 q 444 422 429 382 l 638 972 l 813 972 l 1006 422 q 1049 256 1036 338 q 1063 338 1054 296 q 1085 422 1072 381 l 1240 972 l 1463 972 l 1138 0 l 963 0 l 765 549 q 725 708 738 625 q 708 628 718 668 q 685 549 699 588 l 488 0 l 313 0 m 881 1032 q 801 1065 833 1032 q 768 1143 768 1097 q 801 1220 768 1188 q 881 1253 833 1253 q 961 1220 929 1253 q 993 1143 993 1188 q 961 1064 993 1096 q 881 1032 929 1032 m 586 1032 q 506 1065 539 1032 q 474 1143 474 1097 q 506 1220 474 1188 q 586 1253 539 1253 q 667 1220 635 1253 q 699 1143 699 1188 q 667 1064 699 1096 q 586 1032 635 1032 z "},"Ẁ":{"ha":1450,"x_min":-12,"x_max":1463,"o":"m 313 0 l -12 972 l 210 972 l 365 422 q 388 338 378 381 q 404 256 399 296 q 419 339 410 296 q 444 422 429 382 l 638 972 l 813 972 l 1006 422 q 1049 256 1036 338 q 1063 338 1054 296 q 1085 422 1072 381 l 1240 972 l 1463 972 l 1138 0 l 963 0 l 765 549 q 725 708 738 625 q 708 628 718 668 q 685 549 699 588 l 488 0 l 313 0 m 674 1036 l 536 1278 l 757 1278 l 804 1036 l 674 1036 z "},"X":{"ha":844,"x_min":-14,"x_max":863,"o":"m -14 0 l 306 488 l 1 972 l 233 972 l 425 650 l 621 972 l 847 972 l 543 483 l 863 0 l 628 0 l 425 324 l 217 0 l -14 0 z "},"Y":{"ha":786,"x_min":-36,"x_max":817,"o":"m 293 0 l 293 390 l -36 972 l 178 972 l 331 693 q 367 624 349 660 q 396 551 386 588 q 423 623 406 588 q 458 693 440 658 l 604 972 l 817 972 l 488 386 l 488 0 l 293 0 z "},"Ý":{"ha":786,"x_min":-36,"x_max":817,"o":"m 293 0 l 293 390 l -36 972 l 178 972 l 331 693 q 367 624 349 660 q 396 551 386 588 q 423 623 406 588 q 458 693 440 658 l 604 972 l 817 972 l 488 386 l 488 0 l 293 0 m 325 1036 l 386 1278 l 578 1278 l 456 1036 l 325 1036 z "},"Ŷ":{"ha":786,"x_min":-36,"x_max":817,"o":"m 293 0 l 293 390 l -36 972 l 178 972 l 331 693 q 367 624 349 660 q 396 551 386 588 q 423 623 406 588 q 458 693 440 658 l 604 972 l 817 972 l 488 386 l 488 0 l 293 0 m 178 1036 l 318 1278 l 469 1278 l 606 1036 l 443 1036 l 393 1147 l 343 1036 l 178 1036 z "},"Ÿ":{"ha":786,"x_min":-36,"x_max":817,"o":"m 293 0 l 293 390 l -36 972 l 178 972 l 331 693 q 367 624 349 660 q 396 551 386 588 q 423 623 406 588 q 458 693 440 658 l 604 972 l 817 972 l 488 386 l 488 0 l 293 0 m 540 1032 q 460 1065 493 1032 q 428 1143 428 1097 q 460 1220 428 1188 q 540 1253 493 1253 q 621 1220 589 1253 q 653 1143 653 1188 q 621 1064 653 1096 q 540 1032 589 1032 m 246 1032 q 166 1065 199 1032 q 133 1143 133 1097 q 166 1220 133 1188 q 246 1253 199 1253 q 326 1220 294 1253 q 358 1143 358 1188 q 326 1064 358 1096 q 246 1032 294 1032 z "},"Ẏ":{"ha":786,"x_min":-36,"x_max":817,"o":"m 293 0 l 293 390 l -36 972 l 178 972 l 331 693 q 367 624 349 660 q 396 551 386 588 q 423 623 406 588 q 458 693 440 658 l 604 972 l 817 972 l 488 386 l 488 0 l 293 0 m 393 1032 q 313 1065 346 1032 q 281 1143 281 1097 q 313 1220 281 1188 q 393 1253 346 1253 q 474 1220 442 1253 q 506 1143 506 1188 q 474 1064 506 1096 q 393 1032 442 1032 z "},"Ỵ":{"ha":786,"x_min":-36,"x_max":817,"o":"m 293 0 l 293 390 l -36 972 l 178 972 l 331 693 q 367 624 349 660 q 396 551 386 588 q 423 623 406 588 q 458 693 440 658 l 604 972 l 817 972 l 488 386 l 488 0 l 293 0 m 394 -296 q 315 -263 347 -296 q 282 -185 282 -231 q 315 -108 282 -140 q 394 -75 347 -75 q 475 -108 443 -75 q 507 -185 507 -140 q 475 -264 507 -232 q 394 -296 443 -296 z "},"Ỳ":{"ha":786,"x_min":-36,"x_max":817,"o":"m 293 0 l 293 390 l -36 972 l 178 972 l 331 693 q 367 624 349 660 q 396 551 386 588 q 423 623 406 588 q 458 693 440 658 l 604 972 l 817 972 l 488 386 l 488 0 l 293 0 m 333 1036 l 196 1278 l 417 1278 l 464 1036 l 333 1036 z "},"Ỷ":{"ha":786,"x_min":-36,"x_max":817,"o":"m 293 0 l 293 390 l -36 972 l 178 972 l 331 693 q 367 624 349 660 q 396 551 386 588 q 423 623 406 588 q 458 693 440 658 l 604 972 l 817 972 l 488 386 l 488 0 l 293 0 m 390 1024 q 313 1042 351 1024 l 344 1135 q 361 1129 351 1131 q 376 1128 371 1128 q 424 1169 424 1128 q 412 1196 424 1185 q 385 1207 400 1207 q 356 1196 367 1207 q 344 1165 344 1185 l 228 1165 q 274 1274 228 1232 q 386 1315 319 1315 q 499 1277 454 1315 q 544 1174 544 1239 q 503 1065 544 1106 q 390 1024 461 1024 z "},"Ỹ":{"ha":786,"x_min":-36,"x_max":817,"o":"m 293 0 l 293 390 l -36 972 l 178 972 l 331 693 q 367 624 349 660 q 396 551 386 588 q 423 623 406 588 q 458 693 440 658 l 604 972 l 817 972 l 488 386 l 488 0 l 293 0 m 506 1024 q 435 1037 464 1024 q 386 1068 407 1050 q 344 1099 365 1086 q 296 1113 324 1113 q 245 1089 258 1113 q 232 1043 232 1065 l 113 1043 q 140 1151 113 1108 q 209 1216 167 1194 q 297 1238 251 1238 q 369 1224 339 1238 q 422 1194 399 1211 q 464 1165 444 1178 q 504 1151 483 1151 q 544 1177 536 1151 q 553 1222 553 1203 l 674 1222 q 632 1078 674 1133 q 506 1024 590 1024 z "},"Z":{"ha":817,"x_min":14,"x_max":797,"o":"m 14 0 l 14 21 l 456 757 q 488 801 469 781 l 40 801 l 40 972 l 797 972 l 797 951 l 356 215 q 324 171 342 192 l 797 171 l 797 0 l 14 0 z "},"Ź":{"ha":817,"x_min":14,"x_max":797,"o":"m 14 0 l 14 21 l 456 757 q 488 801 469 781 l 40 801 l 40 972 l 797 972 l 797 951 l 356 215 q 324 171 342 192 l 797 171 l 797 0 l 14 0 m 328 1036 l 389 1278 l 581 1278 l 458 1036 l 328 1036 z "},"Ž":{"ha":817,"x_min":14,"x_max":797,"o":"m 14 0 l 14 21 l 456 757 q 488 801 469 781 l 40 801 l 40 972 l 797 972 l 797 951 l 356 215 q 324 171 342 192 l 797 171 l 797 0 l 14 0 m 181 1278 l 346 1278 l 396 1167 l 446 1278 l 608 1278 l 472 1036 l 321 1036 l 181 1278 z "},"Ż":{"ha":817,"x_min":14,"x_max":797,"o":"m 14 0 l 14 21 l 456 757 q 488 801 469 781 l 40 801 l 40 972 l 797 972 l 797 951 l 356 215 q 324 171 342 192 l 797 171 l 797 0 l 14 0 m 396 1032 q 316 1065 349 1032 q 283 1143 283 1097 q 316 1220 283 1188 q 396 1253 349 1253 q 476 1220 444 1253 q 508 1143 508 1188 q 476 1064 508 1096 q 396 1032 444 1032 z "},"Ẓ":{"ha":817,"x_min":14,"x_max":797,"o":"m 14 0 l 14 21 l 456 757 q 488 801 469 781 l 40 801 l 40 972 l 797 972 l 797 951 l 356 215 q 324 171 342 192 l 797 171 l 797 0 l 14 0 m 424 -296 q 344 -263 376 -296 q 311 -185 311 -231 q 344 -108 311 -140 q 424 -75 376 -75 q 504 -108 472 -75 q 536 -185 536 -140 q 504 -264 536 -232 q 424 -296 472 -296 z "},"Ẕ":{"ha":817,"x_min":14,"x_max":797,"o":"m 14 0 l 14 21 l 456 757 q 488 801 469 781 l 40 801 l 40 972 l 797 972 l 797 951 l 356 215 q 324 171 342 192 l 797 171 l 797 0 l 14 0 m 211 -251 l 211 -126 l 636 -126 l 636 -251 l 211 -251 z "},"Ꞌ":{"ha":400,"x_min":103,"x_max":297,"o":"m 135 268 l 103 801 l 103 972 l 297 972 l 297 801 l 265 268 l 135 268 z "},"a":{"ha":856,"x_min":28,"x_max":800,"o":"m 385 -18 q 205 33 286 -18 q 76 169 124 83 q 28 358 28 254 q 56 505 28 436 q 132 626 83 574 q 245 708 181 678 q 385 738 310 738 q 532 702 479 738 q 614 608 585 667 l 614 722 l 800 722 l 800 0 l 618 0 l 618 118 q 535 19 589 57 q 385 -18 482 -18 m 415 151 q 523 180 478 151 q 593 256 568 208 q 618 358 618 303 q 593 463 618 415 q 523 539 568 510 q 415 568 478 568 q 310 540 356 568 q 240 464 265 511 q 215 360 215 417 q 240 258 215 306 q 310 181 265 210 q 415 151 356 151 z "},"á":{"ha":856,"x_min":28,"x_max":800,"o":"m 385 -18 q 205 33 286 -18 q 76 169 124 83 q 28 358 28 254 q 56 505 28 436 q 132 626 83 574 q 245 708 181 678 q 385 738 310 738 q 532 702 479 738 q 614 608 585 667 l 614 722 l 800 722 l 800 0 l 618 0 l 618 118 q 535 19 589 57 q 385 -18 482 -18 m 415 151 q 523 180 478 151 q 593 256 568 208 q 618 358 618 303 q 593 463 618 415 q 523 539 568 510 q 415 568 478 568 q 310 540 356 568 q 240 464 265 511 q 215 360 215 417 q 240 258 215 306 q 310 181 265 210 q 415 151 356 151 m 357 786 l 418 1028 l 610 1028 l 488 786 l 357 786 z "},"ă":{"ha":856,"x_min":28,"x_max":800,"o":"m 385 -18 q 205 33 286 -18 q 76 169 124 83 q 28 358 28 254 q 56 505 28 436 q 132 626 83 574 q 245 708 181 678 q 385 738 310 738 q 532 702 479 738 q 614 608 585 667 l 614 722 l 800 722 l 800 0 l 618 0 l 618 118 q 535 19 589 57 q 385 -18 482 -18 m 415 151 q 523 180 478 151 q 593 256 568 208 q 618 358 618 303 q 593 463 618 415 q 523 539 568 510 q 415 568 478 568 q 310 540 356 568 q 240 464 265 511 q 215 360 215 417 q 240 258 215 306 q 310 181 265 210 q 415 151 356 151 m 425 774 q 263 828 324 774 q 203 967 203 882 l 351 967 q 369 913 350 938 q 425 889 388 889 q 483 913 465 889 q 499 967 500 938 l 647 967 q 588 828 647 882 q 425 774 528 774 z "},"ắ":{"ha":856,"x_min":28,"x_max":800,"o":"m 385 -18 q 205 33 286 -18 q 76 169 124 83 q 28 358 28 254 q 56 505 28 436 q 132 626 83 574 q 245 708 181 678 q 385 738 310 738 q 532 702 479 738 q 614 608 585 667 l 614 722 l 800 722 l 800 0 l 618 0 l 618 118 q 535 19 589 57 q 385 -18 482 -18 m 415 151 q 523 180 478 151 q 593 256 568 208 q 618 358 618 303 q 593 463 618 415 q 523 539 568 510 q 415 568 478 568 q 310 540 356 568 q 240 464 265 511 q 215 360 215 417 q 240 258 215 306 q 310 181 265 210 q 415 151 356 151 m 425 774 q 263 828 324 774 q 203 967 203 882 l 351 967 q 369 913 350 938 q 425 889 388 889 q 483 913 465 889 q 499 967 500 938 l 647 967 q 588 828 647 882 q 425 774 528 774 m 357 1008 l 418 1250 l 610 1250 l 488 1008 l 357 1008 z "},"ặ":{"ha":856,"x_min":28,"x_max":800,"o":"m 385 -18 q 205 33 286 -18 q 76 169 124 83 q 28 358 28 254 q 56 505 28 436 q 132 626 83 574 q 245 708 181 678 q 385 738 310 738 q 532 702 479 738 q 614 608 585 667 l 614 722 l 800 722 l 800 0 l 618 0 l 618 118 q 535 19 589 57 q 385 -18 482 -18 m 415 151 q 523 180 478 151 q 593 256 568 208 q 618 358 618 303 q 593 463 618 415 q 523 539 568 510 q 415 568 478 568 q 310 540 356 568 q 240 464 265 511 q 215 360 215 417 q 240 258 215 306 q 310 181 265 210 q 415 151 356 151 m 419 -296 q 340 -263 372 -296 q 307 -185 307 -231 q 340 -108 307 -140 q 419 -75 372 -75 q 500 -108 468 -75 q 532 -185 532 -140 q 500 -264 532 -232 q 419 -296 468 -296 m 425 774 q 263 828 324 774 q 203 967 203 882 l 351 967 q 369 913 350 938 q 425 889 388 889 q 483 913 465 889 q 499 967 500 938 l 647 967 q 588 828 647 882 q 425 774 528 774 z "},"ằ":{"ha":856,"x_min":28,"x_max":800,"o":"m 385 -18 q 205 33 286 -18 q 76 169 124 83 q 28 358 28 254 q 56 505 28 436 q 132 626 83 574 q 245 708 181 678 q 385 738 310 738 q 532 702 479 738 q 614 608 585 667 l 614 722 l 800 722 l 800 0 l 618 0 l 618 118 q 535 19 589 57 q 385 -18 482 -18 m 415 151 q 523 180 478 151 q 593 256 568 208 q 618 358 618 303 q 593 463 618 415 q 523 539 568 510 q 415 568 478 568 q 310 540 356 568 q 240 464 265 511 q 215 360 215 417 q 240 258 215 306 q 310 181 265 210 q 415 151 356 151 m 425 774 q 263 828 324 774 q 203 967 203 882 l 351 967 q 369 913 350 938 q 425 889 388 889 q 483 913 465 889 q 499 967 500 938 l 647 967 q 588 828 647 882 q 425 774 528 774 m 365 1008 l 228 1250 l 449 1250 l 496 1008 l 365 1008 z "},"ẳ":{"ha":856,"x_min":28,"x_max":800,"o":"m 385 -18 q 205 33 286 -18 q 76 169 124 83 q 28 358 28 254 q 56 505 28 436 q 132 626 83 574 q 245 708 181 678 q 385 738 310 738 q 532 702 479 738 q 614 608 585 667 l 614 722 l 800 722 l 800 0 l 618 0 l 618 118 q 535 19 589 57 q 385 -18 482 -18 m 415 151 q 523 180 478 151 q 593 256 568 208 q 618 358 618 303 q 593 463 618 415 q 523 539 568 510 q 415 568 478 568 q 310 540 356 568 q 240 464 265 511 q 215 360 215 417 q 240 258 215 306 q 310 181 265 210 q 415 151 356 151 m 425 774 q 263 828 324 774 q 203 967 203 882 l 351 967 q 369 913 350 938 q 425 889 388 889 q 483 913 465 889 q 499 967 500 938 l 647 967 q 588 828 647 882 q 425 774 528 774 m 422 996 q 344 1014 383 996 l 376 1107 q 393 1101 383 1103 q 408 1100 403 1100 q 456 1142 456 1100 q 444 1168 456 1157 q 417 1179 432 1179 q 388 1168 399 1179 q 376 1138 376 1157 l 260 1138 q 306 1246 260 1204 q 418 1288 351 1288 q 531 1249 486 1288 q 576 1146 576 1211 q 535 1037 576 1078 q 422 996 493 996 z "},"ẵ":{"ha":856,"x_min":28,"x_max":800,"o":"m 385 -18 q 205 33 286 -18 q 76 169 124 83 q 28 358 28 254 q 56 505 28 436 q 132 626 83 574 q 245 708 181 678 q 385 738 310 738 q 532 702 479 738 q 614 608 585 667 l 614 722 l 800 722 l 800 0 l 618 0 l 618 118 q 535 19 589 57 q 385 -18 482 -18 m 415 151 q 523 180 478 151 q 593 256 568 208 q 618 358 618 303 q 593 463 618 415 q 523 539 568 510 q 415 568 478 568 q 310 540 356 568 q 240 464 265 511 q 215 360 215 417 q 240 258 215 306 q 310 181 265 210 q 415 151 356 151 m 425 774 q 263 828 324 774 q 203 967 203 882 l 351 967 q 369 913 350 938 q 425 889 388 889 q 483 913 465 889 q 499 967 500 938 l 647 967 q 588 828 647 882 q 425 774 528 774 m 538 996 q 467 1009 496 996 q 418 1040 439 1022 q 376 1072 397 1058 q 328 1085 356 1085 q 277 1061 290 1085 q 264 1015 264 1038 l 144 1015 q 172 1124 144 1081 q 241 1188 199 1167 q 329 1210 283 1210 q 401 1197 371 1210 q 453 1167 431 1183 q 496 1137 476 1150 q 536 1124 515 1124 q 576 1149 568 1124 q 585 1194 585 1175 l 706 1194 q 664 1051 706 1106 q 538 996 622 996 z "},"â":{"ha":856,"x_min":28,"x_max":800,"o":"m 385 -18 q 205 33 286 -18 q 76 169 124 83 q 28 358 28 254 q 56 505 28 436 q 132 626 83 574 q 245 708 181 678 q 385 738 310 738 q 532 702 479 738 q 614 608 585 667 l 614 722 l 800 722 l 800 0 l 618 0 l 618 118 q 535 19 589 57 q 385 -18 482 -18 m 415 151 q 523 180 478 151 q 593 256 568 208 q 618 358 618 303 q 593 463 618 415 q 523 539 568 510 q 415 568 478 568 q 310 540 356 568 q 240 464 265 511 q 215 360 215 417 q 240 258 215 306 q 310 181 265 210 q 415 151 356 151 m 210 786 l 350 1028 l 501 1028 l 638 786 l 475 786 l 425 897 l 375 786 l 210 786 z "},"ấ":{"ha":856,"x_min":28,"x_max":800,"o":"m 385 -18 q 205 33 286 -18 q 76 169 124 83 q 28 358 28 254 q 56 505 28 436 q 132 626 83 574 q 245 708 181 678 q 385 738 310 738 q 532 702 479 738 q 614 608 585 667 l 614 722 l 800 722 l 800 0 l 618 0 l 618 118 q 535 19 589 57 q 385 -18 482 -18 m 415 151 q 523 180 478 151 q 593 256 568 208 q 618 358 618 303 q 593 463 618 415 q 523 539 568 510 q 415 568 478 568 q 310 540 356 568 q 240 464 265 511 q 215 360 215 417 q 240 258 215 306 q 310 181 265 210 q 415 151 356 151 m 210 786 l 350 1028 l 501 1028 l 638 786 l 475 786 l 425 897 l 375 786 l 210 786 m 547 933 l 608 1175 l 800 1175 l 678 933 l 547 933 z "},"ậ":{"ha":856,"x_min":28,"x_max":800,"o":"m 385 -18 q 205 33 286 -18 q 76 169 124 83 q 28 358 28 254 q 56 505 28 436 q 132 626 83 574 q 245 708 181 678 q 385 738 310 738 q 532 702 479 738 q 614 608 585 667 l 614 722 l 800 722 l 800 0 l 618 0 l 618 118 q 535 19 589 57 q 385 -18 482 -18 m 415 151 q 523 180 478 151 q 593 256 568 208 q 618 358 618 303 q 593 463 618 415 q 523 539 568 510 q 415 568 478 568 q 310 540 356 568 q 240 464 265 511 q 215 360 215 417 q 240 258 215 306 q 310 181 265 210 q 415 151 356 151 m 419 -296 q 340 -263 372 -296 q 307 -185 307 -231 q 340 -108 307 -140 q 419 -75 372 -75 q 500 -108 468 -75 q 532 -185 532 -140 q 500 -264 532 -232 q 419 -296 468 -296 m 210 786 l 350 1028 l 501 1028 l 638 786 l 475 786 l 425 897 l 375 786 l 210 786 z "},"ầ":{"ha":856,"x_min":0,"x_max":800,"o":"m 385 -18 q 205 33 286 -18 q 76 169 124 83 q 28 358 28 254 q 56 505 28 436 q 132 626 83 574 q 245 708 181 678 q 385 738 310 738 q 532 702 479 738 q 614 608 585 667 l 614 722 l 800 722 l 800 0 l 618 0 l 618 118 q 535 19 589 57 q 385 -18 482 -18 m 415 151 q 523 180 478 151 q 593 256 568 208 q 618 358 618 303 q 593 463 618 415 q 523 539 568 510 q 415 568 478 568 q 310 540 356 568 q 240 464 265 511 q 215 360 215 417 q 240 258 215 306 q 310 181 265 210 q 415 151 356 151 m 210 786 l 350 1028 l 501 1028 l 638 786 l 475 786 l 425 897 l 375 786 l 210 786 m 138 933 l 0 1175 l 221 1175 l 268 933 l 138 933 z "},"ẩ":{"ha":856,"x_min":28,"x_max":800,"o":"m 385 -18 q 205 33 286 -18 q 76 169 124 83 q 28 358 28 254 q 56 505 28 436 q 132 626 83 574 q 245 708 181 678 q 385 738 310 738 q 532 702 479 738 q 614 608 585 667 l 614 722 l 800 722 l 800 0 l 618 0 l 618 118 q 535 19 589 57 q 385 -18 482 -18 m 415 151 q 523 180 478 151 q 593 256 568 208 q 618 358 618 303 q 593 463 618 415 q 523 539 568 510 q 415 568 478 568 q 310 540 356 568 q 240 464 265 511 q 215 360 215 417 q 240 258 215 306 q 310 181 265 210 q 415 151 356 151 m 210 786 l 350 1028 l 501 1028 l 638 786 l 475 786 l 425 897 l 375 786 l 210 786 m 422 1040 q 344 1058 383 1040 l 376 1151 q 393 1146 383 1147 q 408 1144 403 1144 q 456 1186 456 1144 q 444 1213 456 1201 q 417 1224 432 1224 q 388 1213 399 1224 q 376 1182 376 1201 l 260 1182 q 306 1290 260 1249 q 418 1332 351 1332 q 531 1294 486 1332 q 576 1190 576 1256 q 535 1081 576 1122 q 422 1040 493 1040 z "},"ẫ":{"ha":856,"x_min":28,"x_max":800,"o":"m 385 -18 q 205 33 286 -18 q 76 169 124 83 q 28 358 28 254 q 56 505 28 436 q 132 626 83 574 q 245 708 181 678 q 385 738 310 738 q 532 702 479 738 q 614 608 585 667 l 614 722 l 800 722 l 800 0 l 618 0 l 618 118 q 535 19 589 57 q 385 -18 482 -18 m 415 151 q 523 180 478 151 q 593 256 568 208 q 618 358 618 303 q 593 463 618 415 q 523 539 568 510 q 415 568 478 568 q 310 540 356 568 q 240 464 265 511 q 215 360 215 417 q 240 258 215 306 q 310 181 265 210 q 415 151 356 151 m 210 786 l 350 1028 l 501 1028 l 638 786 l 475 786 l 425 897 l 375 786 l 210 786 m 538 1040 q 467 1053 496 1040 q 418 1085 439 1067 q 376 1116 397 1103 q 328 1129 356 1129 q 277 1106 290 1129 q 264 1060 264 1082 l 144 1060 q 172 1168 144 1125 q 241 1233 199 1211 q 329 1254 283 1254 q 401 1241 371 1254 q 453 1211 431 1228 q 496 1181 476 1194 q 536 1168 515 1168 q 576 1194 568 1168 q 585 1239 585 1219 l 706 1239 q 664 1095 706 1150 q 538 1040 622 1040 z "},"ä":{"ha":856,"x_min":28,"x_max":800,"o":"m 385 -18 q 205 33 286 -18 q 76 169 124 83 q 28 358 28 254 q 56 505 28 436 q 132 626 83 574 q 245 708 181 678 q 385 738 310 738 q 532 702 479 738 q 614 608 585 667 l 614 722 l 800 722 l 800 0 l 618 0 l 618 118 q 535 19 589 57 q 385 -18 482 -18 m 415 151 q 523 180 478 151 q 593 256 568 208 q 618 358 618 303 q 593 463 618 415 q 523 539 568 510 q 415 568 478 568 q 310 540 356 568 q 240 464 265 511 q 215 360 215 417 q 240 258 215 306 q 310 181 265 210 q 415 151 356 151 m 572 782 q 492 815 525 782 q 460 893 460 847 q 492 970 460 938 q 572 1003 525 1003 q 653 970 621 1003 q 685 893 685 938 q 653 814 685 846 q 572 782 621 782 m 278 782 q 198 815 231 782 q 165 893 165 847 q 198 970 165 938 q 278 1003 231 1003 q 358 970 326 1003 q 390 893 390 938 q 358 814 390 846 q 278 782 326 782 z "},"ạ":{"ha":856,"x_min":28,"x_max":800,"o":"m 385 -18 q 205 33 286 -18 q 76 169 124 83 q 28 358 28 254 q 56 505 28 436 q 132 626 83 574 q 245 708 181 678 q 385 738 310 738 q 532 702 479 738 q 614 608 585 667 l 614 722 l 800 722 l 800 0 l 618 0 l 618 118 q 535 19 589 57 q 385 -18 482 -18 m 415 151 q 523 180 478 151 q 593 256 568 208 q 618 358 618 303 q 593 463 618 415 q 523 539 568 510 q 415 568 478 568 q 310 540 356 568 q 240 464 265 511 q 215 360 215 417 q 240 258 215 306 q 310 181 265 210 q 415 151 356 151 m 419 -296 q 340 -263 372 -296 q 307 -185 307 -231 q 340 -108 307 -140 q 419 -75 372 -75 q 500 -108 468 -75 q 532 -185 532 -140 q 500 -264 532 -232 q 419 -296 468 -296 z "},"à":{"ha":856,"x_min":28,"x_max":800,"o":"m 385 -18 q 205 33 286 -18 q 76 169 124 83 q 28 358 28 254 q 56 505 28 436 q 132 626 83 574 q 245 708 181 678 q 385 738 310 738 q 532 702 479 738 q 614 608 585 667 l 614 722 l 800 722 l 800 0 l 618 0 l 618 118 q 535 19 589 57 q 385 -18 482 -18 m 415 151 q 523 180 478 151 q 593 256 568 208 q 618 358 618 303 q 593 463 618 415 q 523 539 568 510 q 415 568 478 568 q 310 540 356 568 q 240 464 265 511 q 215 360 215 417 q 240 258 215 306 q 310 181 265 210 q 415 151 356 151 m 365 786 l 228 1028 l 449 1028 l 496 786 l 365 786 z "},"ả":{"ha":856,"x_min":28,"x_max":800,"o":"m 385 -18 q 205 33 286 -18 q 76 169 124 83 q 28 358 28 254 q 56 505 28 436 q 132 626 83 574 q 245 708 181 678 q 385 738 310 738 q 532 702 479 738 q 614 608 585 667 l 614 722 l 800 722 l 800 0 l 618 0 l 618 118 q 535 19 589 57 q 385 -18 482 -18 m 415 151 q 523 180 478 151 q 593 256 568 208 q 618 358 618 303 q 593 463 618 415 q 523 539 568 510 q 415 568 478 568 q 310 540 356 568 q 240 464 265 511 q 215 360 215 417 q 240 258 215 306 q 310 181 265 210 q 415 151 356 151 m 422 774 q 344 792 383 774 l 376 885 q 393 879 383 881 q 408 878 403 878 q 456 919 456 878 q 444 946 456 935 q 417 957 432 957 q 388 946 399 957 q 376 915 376 935 l 260 915 q 306 1024 260 982 q 418 1065 351 1065 q 531 1027 486 1065 q 576 924 576 989 q 535 815 576 856 q 422 774 493 774 z "},"ā":{"ha":856,"x_min":28,"x_max":800,"o":"m 385 -18 q 205 33 286 -18 q 76 169 124 83 q 28 358 28 254 q 56 505 28 436 q 132 626 83 574 q 245 708 181 678 q 385 738 310 738 q 532 702 479 738 q 614 608 585 667 l 614 722 l 800 722 l 800 0 l 618 0 l 618 118 q 535 19 589 57 q 385 -18 482 -18 m 415 151 q 523 180 478 151 q 593 256 568 208 q 618 358 618 303 q 593 463 618 415 q 523 539 568 510 q 415 568 478 568 q 310 540 356 568 q 240 464 265 511 q 215 360 215 417 q 240 258 215 306 q 310 181 265 210 q 415 151 356 151 m 214 831 l 214 956 l 639 956 l 639 831 l 214 831 z "},"ą":{"ha":856,"x_min":28,"x_max":800,"o":"m 385 -18 q 205 33 286 -18 q 76 169 124 83 q 28 358 28 254 q 56 505 28 436 q 132 626 83 574 q 245 708 181 678 q 385 738 310 738 q 532 702 479 738 q 614 608 585 667 l 614 722 l 800 722 l 800 0 l 618 0 l 618 118 q 535 19 589 57 q 385 -18 482 -18 m 415 151 q 523 180 478 151 q 593 256 568 208 q 618 358 618 303 q 593 463 618 415 q 523 539 568 510 q 415 568 478 568 q 310 540 356 568 q 240 464 265 511 q 215 360 215 417 q 240 258 215 306 q 310 181 265 210 q 415 151 356 151 m 686 -296 q 563 -256 607 -296 q 519 -153 519 -217 q 541 -74 519 -108 q 618 0 563 -40 l 650 24 l 760 0 l 689 -51 q 658 -83 667 -67 q 650 -115 650 -99 q 672 -153 650 -142 q 721 -165 694 -165 q 742 -163 733 -165 q 757 -160 750 -161 l 790 -281 q 735 -292 761 -289 q 686 -296 710 -296 z "},"å":{"ha":856,"x_min":28,"x_max":800,"o":"m 385 -18 q 205 33 286 -18 q 76 169 124 83 q 28 358 28 254 q 56 505 28 436 q 132 626 83 574 q 245 708 181 678 q 385 738 310 738 q 532 702 479 738 q 614 608 585 667 l 614 722 l 800 722 l 800 0 l 618 0 l 618 118 q 535 19 589 57 q 385 -18 482 -18 m 415 151 q 523 180 478 151 q 593 256 568 208 q 618 358 618 303 q 593 463 618 415 q 523 539 568 510 q 415 568 478 568 q 310 540 356 568 q 240 464 265 511 q 215 360 215 417 q 240 258 215 306 q 310 181 265 210 q 415 151 356 151 m 425 774 q 321 817 365 774 q 276 919 276 860 q 321 1023 276 981 q 425 1065 365 1065 q 530 1023 486 1065 q 574 919 574 981 q 530 817 574 860 q 425 774 486 774 m 425 867 q 460 883 446 867 q 475 919 475 899 q 460 956 475 940 q 425 971 446 971 q 388 956 404 971 q 372 919 372 940 q 388 883 372 899 q 425 867 404 867 z "},"ã":{"ha":856,"x_min":28,"x_max":800,"o":"m 385 -18 q 205 33 286 -18 q 76 169 124 83 q 28 358 28 254 q 56 505 28 436 q 132 626 83 574 q 245 708 181 678 q 385 738 310 738 q 532 702 479 738 q 614 608 585 667 l 614 722 l 800 722 l 800 0 l 618 0 l 618 118 q 535 19 589 57 q 385 -18 482 -18 m 415 151 q 523 180 478 151 q 593 256 568 208 q 618 358 618 303 q 593 463 618 415 q 523 539 568 510 q 415 568 478 568 q 310 540 356 568 q 240 464 265 511 q 215 360 215 417 q 240 258 215 306 q 310 181 265 210 q 415 151 356 151 m 538 774 q 467 787 496 774 q 418 818 439 800 q 376 849 397 836 q 328 863 356 863 q 277 839 290 863 q 264 793 264 815 l 144 793 q 172 901 144 858 q 241 966 199 944 q 329 988 283 988 q 401 974 371 988 q 453 944 431 961 q 496 915 476 928 q 536 901 515 901 q 576 927 568 901 q 585 972 585 953 l 706 972 q 664 828 706 883 q 538 774 622 774 z "},"æ":{"ha":1432,"x_min":28,"x_max":1406,"o":"m 385 -18 q 205 33 286 -18 q 76 169 124 83 q 28 358 28 254 q 56 505 28 436 q 132 626 83 574 q 245 708 181 678 q 385 738 310 738 q 519 713 461 738 q 613 647 576 689 l 613 722 l 800 722 l 800 640 q 899 712 838 685 q 1046 739 961 739 q 1232 688 1151 739 q 1359 550 1313 636 q 1406 360 1406 464 q 1404 327 1406 344 q 1400 292 1403 310 l 850 292 q 910 191 865 229 q 1032 153 956 153 q 1144 178 1097 153 q 1213 246 1190 204 l 1361 136 q 1233 26 1318 68 q 1046 -17 1149 -17 q 899 10 961 -17 q 800 81 838 36 l 800 0 l 618 0 l 618 78 q 523 8 582 33 q 385 -18 464 -18 m 1029 579 q 913 542 961 579 q 847 444 865 506 l 1214 444 q 1147 540 1196 500 q 1029 579 1099 579 m 415 151 q 523 180 478 151 q 593 256 568 208 q 618 358 618 303 q 593 463 618 415 q 523 539 568 510 q 415 568 478 568 q 311 540 356 568 q 242 464 267 511 q 218 360 218 417 q 242 258 218 306 q 311 181 267 210 q 415 151 356 151 z "},"ǣ":{"ha":1432,"x_min":28,"x_max":1406,"o":"m 385 -18 q 205 33 286 -18 q 76 169 124 83 q 28 358 28 254 q 56 505 28 436 q 132 626 83 574 q 245 708 181 678 q 385 738 310 738 q 519 713 461 738 q 613 647 576 689 l 613 722 l 800 722 l 800 640 q 899 712 838 685 q 1046 739 961 739 q 1232 688 1151 739 q 1359 550 1313 636 q 1406 360 1406 464 q 1404 327 1406 344 q 1400 292 1403 310 l 850 292 q 910 191 865 229 q 1032 153 956 153 q 1144 178 1097 153 q 1213 246 1190 204 l 1361 136 q 1233 26 1318 68 q 1046 -17 1149 -17 q 899 10 961 -17 q 800 81 838 36 l 800 0 l 618 0 l 618 78 q 523 8 582 33 q 385 -18 464 -18 m 1029 579 q 913 542 961 579 q 847 444 865 506 l 1214 444 q 1147 540 1196 500 q 1029 579 1099 579 m 415 151 q 523 180 478 151 q 593 256 568 208 q 618 358 618 303 q 593 463 618 415 q 523 539 568 510 q 415 568 478 568 q 311 540 356 568 q 242 464 267 511 q 218 360 218 417 q 242 258 218 306 q 311 181 267 210 q 415 151 356 151 m 493 831 l 493 956 l 918 956 l 918 831 l 493 831 z "},"b":{"ha":856,"x_min":56,"x_max":828,"o":"m 471 -18 q 320 19 374 -18 q 238 118 267 57 l 238 0 l 56 0 l 56 1014 l 243 1014 l 243 611 q 325 703 272 668 q 471 738 378 738 q 610 708 546 738 q 724 626 675 678 q 800 505 772 574 q 828 358 828 436 q 780 169 828 254 q 651 33 732 83 q 471 -18 571 -18 m 440 151 q 545 181 500 151 q 615 258 590 210 q 640 360 640 306 q 615 464 640 417 q 545 540 590 511 q 440 568 500 568 q 333 539 379 568 q 263 463 288 510 q 238 358 238 415 q 263 256 238 303 q 333 180 288 208 q 440 151 379 151 z "},"c":{"ha":728,"x_min":28,"x_max":710,"o":"m 400 -18 q 255 11 322 -18 q 136 92 188 40 q 56 213 85 144 q 28 361 28 282 q 77 552 28 467 q 213 689 126 638 q 410 740 300 740 q 586 706 508 742 q 710 606 664 669 l 565 488 q 501 547 540 525 q 413 569 461 569 q 308 541 353 569 q 240 465 264 513 q 215 361 215 418 q 241 258 215 306 q 312 181 267 210 q 417 153 357 153 q 508 177 471 153 q 574 239 546 201 l 710 121 q 583 19 658 56 q 400 -18 507 -18 z "},"ć":{"ha":728,"x_min":28,"x_max":710,"o":"m 400 -18 q 255 11 322 -18 q 136 92 188 40 q 56 213 85 144 q 28 361 28 282 q 77 552 28 467 q 213 689 126 638 q 410 740 300 740 q 586 706 508 742 q 710 606 664 669 l 565 488 q 501 547 540 525 q 413 569 461 569 q 308 541 353 569 q 240 465 264 513 q 215 361 215 418 q 241 258 215 306 q 312 181 267 210 q 417 153 357 153 q 508 177 471 153 q 574 239 546 201 l 710 121 q 583 19 658 56 q 400 -18 507 -18 m 347 786 l 408 1028 l 600 1028 l 478 786 l 347 786 z "},"č":{"ha":728,"x_min":28,"x_max":710,"o":"m 400 -18 q 255 11 322 -18 q 136 92 188 40 q 56 213 85 144 q 28 361 28 282 q 77 552 28 467 q 213 689 126 638 q 410 740 300 740 q 586 706 508 742 q 710 606 664 669 l 565 488 q 501 547 540 525 q 413 569 461 569 q 308 541 353 569 q 240 465 264 513 q 215 361 215 418 q 241 258 215 306 q 312 181 267 210 q 417 153 357 153 q 508 177 471 153 q 574 239 546 201 l 710 121 q 583 19 658 56 q 400 -18 507 -18 m 200 1028 l 365 1028 l 415 917 l 465 1028 l 628 1028 l 492 786 l 340 786 l 200 1028 z "},"ç":{"ha":728,"x_min":28,"x_max":710,"o":"m 400 -18 q 255 11 322 -18 q 136 92 188 40 q 56 213 85 144 q 28 361 28 282 q 77 552 28 467 q 213 689 126 638 q 410 740 300 740 q 586 706 508 742 q 710 606 664 669 l 565 488 q 501 547 540 525 q 413 569 461 569 q 308 541 353 569 q 240 465 264 513 q 215 361 215 418 q 241 258 215 306 q 312 181 267 210 q 417 153 357 153 q 508 177 471 153 q 574 239 546 201 l 710 121 q 583 19 658 56 q 400 -18 507 -18 m 388 -296 q 323 -288 349 -296 q 257 -251 297 -281 l 321 -171 q 346 -187 332 -181 q 375 -194 360 -194 q 404 -186 390 -194 q 418 -156 418 -178 q 407 -132 418 -140 q 383 -124 396 -124 q 353 -128 365 -124 l 347 -124 l 406 8 l 489 14 l 454 -60 q 510 -101 492 -71 q 528 -167 528 -132 q 484 -264 528 -232 q 388 -296 440 -296 z "},"ĉ":{"ha":728,"x_min":28,"x_max":710,"o":"m 400 -18 q 255 11 322 -18 q 136 92 188 40 q 56 213 85 144 q 28 361 28 282 q 77 552 28 467 q 213 689 126 638 q 410 740 300 740 q 586 706 508 742 q 710 606 664 669 l 565 488 q 501 547 540 525 q 413 569 461 569 q 308 541 353 569 q 240 465 264 513 q 215 361 215 418 q 241 258 215 306 q 312 181 267 210 q 417 153 357 153 q 508 177 471 153 q 574 239 546 201 l 710 121 q 583 19 658 56 q 400 -18 507 -18 m 200 786 l 340 1028 l 492 1028 l 628 786 l 465 786 l 415 897 l 365 786 l 200 786 z "},"ċ":{"ha":728,"x_min":28,"x_max":710,"o":"m 400 -18 q 255 11 322 -18 q 136 92 188 40 q 56 213 85 144 q 28 361 28 282 q 77 552 28 467 q 213 689 126 638 q 410 740 300 740 q 586 706 508 742 q 710 606 664 669 l 565 488 q 501 547 540 525 q 413 569 461 569 q 308 541 353 569 q 240 465 264 513 q 215 361 215 418 q 241 258 215 306 q 312 181 267 210 q 417 153 357 153 q 508 177 471 153 q 574 239 546 201 l 710 121 q 583 19 658 56 q 400 -18 507 -18 m 415 782 q 335 815 368 782 q 303 893 303 847 q 335 970 303 938 q 415 1003 368 1003 q 496 970 464 1003 q 528 893 528 938 q 496 814 528 846 q 415 782 464 782 z "},"d":{"ha":856,"x_min":28,"x_max":800,"o":"m 385 -18 q 205 33 286 -18 q 76 169 124 83 q 28 358 28 254 q 56 505 28 436 q 132 626 83 574 q 245 708 181 678 q 385 738 310 738 q 531 703 478 738 q 613 611 583 668 l 613 1014 l 800 1014 l 800 0 l 618 0 l 618 118 q 535 19 589 57 q 385 -18 482 -18 m 415 151 q 523 180 478 151 q 593 256 568 208 q 618 358 618 303 q 593 463 618 415 q 523 539 568 510 q 415 568 478 568 q 310 540 356 568 q 240 464 265 511 q 215 360 215 417 q 240 258 215 306 q 310 181 265 210 q 415 151 356 151 z "},"ď":{"ha":869,"x_min":28,"x_max":1096,"o":"m 385 -18 q 205 33 286 -18 q 76 169 124 83 q 28 358 28 254 q 56 505 28 436 q 132 626 83 574 q 245 708 181 678 q 385 738 310 738 q 531 703 478 738 q 613 611 583 668 l 613 1014 l 800 1014 l 800 0 l 618 0 l 618 118 q 535 19 589 57 q 385 -18 482 -18 m 415 151 q 523 180 478 151 q 593 256 568 208 q 618 358 618 303 q 593 463 618 415 q 523 539 568 510 q 415 568 478 568 q 310 540 356 568 q 240 464 265 511 q 215 360 215 417 q 240 258 215 306 q 310 181 265 210 q 415 151 356 151 m 829 731 l 899 1014 l 1096 1014 l 960 731 l 829 731 z "},"đ":{"ha":856,"x_min":28,"x_max":890,"o":"m 385 -18 q 205 33 286 -18 q 76 169 124 83 q 28 358 28 254 q 56 505 28 436 q 132 626 83 574 q 245 708 181 678 q 385 738 310 738 q 531 703 478 738 q 613 611 583 668 l 613 793 l 417 793 l 417 932 l 613 932 l 613 1014 l 800 1014 l 800 932 l 890 932 l 890 793 l 800 793 l 800 0 l 618 0 l 618 118 q 535 19 589 57 q 385 -18 482 -18 m 415 151 q 523 180 478 151 q 593 256 568 208 q 618 358 618 303 q 593 463 618 415 q 523 539 568 510 q 415 568 478 568 q 310 540 356 568 q 240 464 265 511 q 215 360 215 417 q 240 258 215 306 q 310 181 265 210 q 415 151 356 151 z "},"ḍ":{"ha":856,"x_min":28,"x_max":800,"o":"m 385 -18 q 205 33 286 -18 q 76 169 124 83 q 28 358 28 254 q 56 505 28 436 q 132 626 83 574 q 245 708 181 678 q 385 738 310 738 q 531 703 478 738 q 613 611 583 668 l 613 1014 l 800 1014 l 800 0 l 618 0 l 618 118 q 535 19 589 57 q 385 -18 482 -18 m 415 151 q 523 180 478 151 q 593 256 568 208 q 618 358 618 303 q 593 463 618 415 q 523 539 568 510 q 415 568 478 568 q 310 540 356 568 q 240 464 265 511 q 215 360 215 417 q 240 258 215 306 q 310 181 265 210 q 415 151 356 151 m 388 -296 q 308 -263 340 -296 q 275 -185 275 -231 q 308 -108 275 -140 q 388 -75 340 -75 q 468 -108 436 -75 q 500 -185 500 -140 q 468 -264 500 -232 q 388 -296 436 -296 z "},"ð":{"ha":778,"x_min":28,"x_max":750,"o":"m 393 -18 q 203 30 286 -18 q 74 158 121 78 q 28 335 28 238 q 56 476 28 414 q 131 579 85 538 q 231 643 176 621 q 339 665 286 665 q 416 654 383 665 q 472 624 449 643 q 432 666 453 647 q 389 707 411 685 l 326 769 l 261 713 l 181 803 l 242 856 l 185 913 l 339 1032 l 385 981 l 449 1036 l 528 946 l 463 889 l 578 757 q 698 581 646 679 q 750 365 750 483 q 704 158 750 244 q 578 27 658 72 q 393 -18 497 -18 m 393 158 q 522 210 475 158 q 568 335 568 263 q 521 460 568 408 q 393 513 474 513 q 265 460 313 513 q 218 335 218 408 q 240 247 218 288 q 300 183 261 207 q 393 158 339 158 z "},"e":{"ha":794,"x_min":28,"x_max":768,"o":"m 401 -18 q 206 33 290 -18 q 74 170 121 85 q 28 360 28 256 q 76 551 28 464 q 209 689 125 638 q 401 740 293 740 q 592 689 510 740 q 722 551 675 638 q 768 360 768 464 q 767 328 768 344 q 763 293 765 311 l 222 293 q 284 189 238 229 q 401 149 331 149 q 508 176 463 149 q 578 246 553 204 l 724 136 q 594 25 681 68 q 401 -18 508 -18 m 399 579 q 285 539 332 579 q 222 433 238 499 l 579 433 q 516 536 564 493 q 399 579 468 579 z "},"é":{"ha":794,"x_min":28,"x_max":768,"o":"m 401 -18 q 206 33 290 -18 q 74 170 121 85 q 28 360 28 256 q 76 551 28 464 q 209 689 125 638 q 401 740 293 740 q 592 689 510 740 q 722 551 675 638 q 768 360 768 464 q 767 328 768 344 q 763 293 765 311 l 222 293 q 284 189 238 229 q 401 149 331 149 q 508 176 463 149 q 578 246 553 204 l 724 136 q 594 25 681 68 q 401 -18 508 -18 m 399 579 q 285 539 332 579 q 222 433 238 499 l 579 433 q 516 536 564 493 q 399 579 468 579 m 329 786 l 390 1028 l 582 1028 l 460 786 l 329 786 z "},"ě":{"ha":794,"x_min":28,"x_max":768,"o":"m 401 -18 q 206 33 290 -18 q 74 170 121 85 q 28 360 28 256 q 76 551 28 464 q 209 689 125 638 q 401 740 293 740 q 592 689 510 740 q 722 551 675 638 q 768 360 768 464 q 767 328 768 344 q 763 293 765 311 l 222 293 q 284 189 238 229 q 401 149 331 149 q 508 176 463 149 q 578 246 553 204 l 724 136 q 594 25 681 68 q 401 -18 508 -18 m 399 579 q 285 539 332 579 q 222 433 238 499 l 579 433 q 516 536 564 493 q 399 579 468 579 m 182 1028 l 347 1028 l 397 917 l 447 1028 l 610 1028 l 474 786 l 322 786 l 182 1028 z "},"ê":{"ha":794,"x_min":28,"x_max":768,"o":"m 401 -18 q 206 33 290 -18 q 74 170 121 85 q 28 360 28 256 q 76 551 28 464 q 209 689 125 638 q 401 740 293 740 q 592 689 510 740 q 722 551 675 638 q 768 360 768 464 q 767 328 768 344 q 763 293 765 311 l 222 293 q 284 189 238 229 q 401 149 331 149 q 508 176 463 149 q 578 246 553 204 l 724 136 q 594 25 681 68 q 401 -18 508 -18 m 399 579 q 285 539 332 579 q 222 433 238 499 l 579 433 q 516 536 564 493 q 399 579 468 579 m 182 786 l 322 1028 l 474 1028 l 610 786 l 447 786 l 397 897 l 347 786 l 182 786 z "},"ế":{"ha":794,"x_min":28,"x_max":800,"o":"m 401 -18 q 206 33 290 -18 q 74 170 121 85 q 28 360 28 256 q 76 551 28 464 q 209 689 125 638 q 401 740 293 740 q 592 689 510 740 q 722 551 675 638 q 768 360 768 464 q 767 328 768 344 q 763 293 765 311 l 222 293 q 284 189 238 229 q 401 149 331 149 q 508 176 463 149 q 578 246 553 204 l 724 136 q 594 25 681 68 q 401 -18 508 -18 m 399 579 q 285 539 332 579 q 222 433 238 499 l 579 433 q 516 536 564 493 q 399 579 468 579 m 182 786 l 322 1028 l 474 1028 l 610 786 l 447 786 l 397 897 l 347 786 l 182 786 m 547 933 l 608 1175 l 800 1175 l 678 933 l 547 933 z "},"ệ":{"ha":794,"x_min":28,"x_max":768,"o":"m 401 -18 q 206 33 290 -18 q 74 170 121 85 q 28 360 28 256 q 76 551 28 464 q 209 689 125 638 q 401 740 293 740 q 592 689 510 740 q 722 551 675 638 q 768 360 768 464 q 767 328 768 344 q 763 293 765 311 l 222 293 q 284 189 238 229 q 401 149 331 149 q 508 176 463 149 q 578 246 553 204 l 724 136 q 594 25 681 68 q 401 -18 508 -18 m 399 579 q 285 539 332 579 q 222 433 238 499 l 579 433 q 516 536 564 493 q 399 579 468 579 m 401 -296 q 322 -263 354 -296 q 289 -185 289 -231 q 322 -108 289 -140 q 401 -75 354 -75 q 482 -108 450 -75 q 514 -185 514 -140 q 482 -264 514 -232 q 401 -296 450 -296 m 182 786 l 322 1028 l 474 1028 l 610 786 l 447 786 l 397 897 l 347 786 l 182 786 z "},"ề":{"ha":794,"x_min":0,"x_max":768,"o":"m 401 -18 q 206 33 290 -18 q 74 170 121 85 q 28 360 28 256 q 76 551 28 464 q 209 689 125 638 q 401 740 293 740 q 592 689 510 740 q 722 551 675 638 q 768 360 768 464 q 767 328 768 344 q 763 293 765 311 l 222 293 q 284 189 238 229 q 401 149 331 149 q 508 176 463 149 q 578 246 553 204 l 724 136 q 594 25 681 68 q 401 -18 508 -18 m 399 579 q 285 539 332 579 q 222 433 238 499 l 579 433 q 516 536 564 493 q 399 579 468 579 m 182 786 l 322 1028 l 474 1028 l 610 786 l 447 786 l 397 897 l 347 786 l 182 786 m 138 933 l 0 1175 l 221 1175 l 268 933 l 138 933 z "},"ể":{"ha":794,"x_min":28,"x_max":768,"o":"m 401 -18 q 206 33 290 -18 q 74 170 121 85 q 28 360 28 256 q 76 551 28 464 q 209 689 125 638 q 401 740 293 740 q 592 689 510 740 q 722 551 675 638 q 768 360 768 464 q 767 328 768 344 q 763 293 765 311 l 222 293 q 284 189 238 229 q 401 149 331 149 q 508 176 463 149 q 578 246 553 204 l 724 136 q 594 25 681 68 q 401 -18 508 -18 m 399 579 q 285 539 332 579 q 222 433 238 499 l 579 433 q 516 536 564 493 q 399 579 468 579 m 182 786 l 322 1028 l 474 1028 l 610 786 l 447 786 l 397 897 l 347 786 l 182 786 m 394 1040 q 317 1058 356 1040 l 349 1151 q 365 1146 356 1147 q 381 1144 375 1144 q 428 1186 428 1144 q 416 1213 428 1201 q 389 1224 404 1224 q 360 1213 371 1224 q 349 1182 349 1201 l 232 1182 q 278 1290 232 1249 q 390 1332 324 1332 q 503 1294 458 1332 q 549 1190 549 1256 q 507 1081 549 1122 q 394 1040 465 1040 z "},"ễ":{"ha":794,"x_min":28,"x_max":768,"o":"m 401 -18 q 206 33 290 -18 q 74 170 121 85 q 28 360 28 256 q 76 551 28 464 q 209 689 125 638 q 401 740 293 740 q 592 689 510 740 q 722 551 675 638 q 768 360 768 464 q 767 328 768 344 q 763 293 765 311 l 222 293 q 284 189 238 229 q 401 149 331 149 q 508 176 463 149 q 578 246 553 204 l 724 136 q 594 25 681 68 q 401 -18 508 -18 m 399 579 q 285 539 332 579 q 222 433 238 499 l 579 433 q 516 536 564 493 q 399 579 468 579 m 182 786 l 322 1028 l 474 1028 l 610 786 l 447 786 l 397 897 l 347 786 l 182 786 m 510 1040 q 440 1053 468 1040 q 390 1085 411 1067 q 349 1116 369 1103 q 300 1129 328 1129 q 249 1106 263 1129 q 236 1060 236 1082 l 117 1060 q 144 1168 117 1125 q 213 1233 171 1211 q 301 1254 256 1254 q 373 1241 343 1254 q 426 1211 403 1228 q 468 1181 449 1194 q 508 1168 488 1168 q 549 1194 540 1168 q 557 1239 557 1219 l 678 1239 q 636 1095 678 1150 q 510 1040 594 1040 z "},"ë":{"ha":794,"x_min":28,"x_max":768,"o":"m 401 -18 q 206 33 290 -18 q 74 170 121 85 q 28 360 28 256 q 76 551 28 464 q 209 689 125 638 q 401 740 293 740 q 592 689 510 740 q 722 551 675 638 q 768 360 768 464 q 767 328 768 344 q 763 293 765 311 l 222 293 q 284 189 238 229 q 401 149 331 149 q 508 176 463 149 q 578 246 553 204 l 724 136 q 594 25 681 68 q 401 -18 508 -18 m 399 579 q 285 539 332 579 q 222 433 238 499 l 579 433 q 516 536 564 493 q 399 579 468 579 m 544 782 q 465 815 497 782 q 432 893 432 847 q 465 970 432 938 q 544 1003 497 1003 q 625 970 593 1003 q 657 893 657 938 q 625 814 657 846 q 544 782 593 782 m 250 782 q 170 815 203 782 q 138 893 138 847 q 170 970 138 938 q 250 1003 203 1003 q 331 970 299 1003 q 363 893 363 938 q 331 814 363 846 q 250 782 299 782 z "},"ė":{"ha":794,"x_min":28,"x_max":768,"o":"m 401 -18 q 206 33 290 -18 q 74 170 121 85 q 28 360 28 256 q 76 551 28 464 q 209 689 125 638 q 401 740 293 740 q 592 689 510 740 q 722 551 675 638 q 768 360 768 464 q 767 328 768 344 q 763 293 765 311 l 222 293 q 284 189 238 229 q 401 149 331 149 q 508 176 463 149 q 578 246 553 204 l 724 136 q 594 25 681 68 q 401 -18 508 -18 m 399 579 q 285 539 332 579 q 222 433 238 499 l 579 433 q 516 536 564 493 q 399 579 468 579 m 397 782 q 317 815 350 782 q 285 893 285 847 q 317 970 285 938 q 397 1003 350 1003 q 478 970 446 1003 q 510 893 510 938 q 478 814 510 846 q 397 782 446 782 z "},"ẹ":{"ha":794,"x_min":28,"x_max":768,"o":"m 401 -18 q 206 33 290 -18 q 74 170 121 85 q 28 360 28 256 q 76 551 28 464 q 209 689 125 638 q 401 740 293 740 q 592 689 510 740 q 722 551 675 638 q 768 360 768 464 q 767 328 768 344 q 763 293 765 311 l 222 293 q 284 189 238 229 q 401 149 331 149 q 508 176 463 149 q 578 246 553 204 l 724 136 q 594 25 681 68 q 401 -18 508 -18 m 399 579 q 285 539 332 579 q 222 433 238 499 l 579 433 q 516 536 564 493 q 399 579 468 579 m 401 -296 q 322 -263 354 -296 q 289 -185 289 -231 q 322 -108 289 -140 q 401 -75 354 -75 q 482 -108 450 -75 q 514 -185 514 -140 q 482 -264 514 -232 q 401 -296 450 -296 z "},"è":{"ha":794,"x_min":28,"x_max":768,"o":"m 401 -18 q 206 33 290 -18 q 74 170 121 85 q 28 360 28 256 q 76 551 28 464 q 209 689 125 638 q 401 740 293 740 q 592 689 510 740 q 722 551 675 638 q 768 360 768 464 q 767 328 768 344 q 763 293 765 311 l 222 293 q 284 189 238 229 q 401 149 331 149 q 508 176 463 149 q 578 246 553 204 l 724 136 q 594 25 681 68 q 401 -18 508 -18 m 399 579 q 285 539 332 579 q 222 433 238 499 l 579 433 q 516 536 564 493 q 399 579 468 579 m 338 786 l 200 1028 l 421 1028 l 468 786 l 338 786 z "},"ẻ":{"ha":794,"x_min":28,"x_max":768,"o":"m 401 -18 q 206 33 290 -18 q 74 170 121 85 q 28 360 28 256 q 76 551 28 464 q 209 689 125 638 q 401 740 293 740 q 592 689 510 740 q 722 551 675 638 q 768 360 768 464 q 767 328 768 344 q 763 293 765 311 l 222 293 q 284 189 238 229 q 401 149 331 149 q 508 176 463 149 q 578 246 553 204 l 724 136 q 594 25 681 68 q 401 -18 508 -18 m 399 579 q 285 539 332 579 q 222 433 238 499 l 579 433 q 516 536 564 493 q 399 579 468 579 m 394 774 q 317 792 356 774 l 349 885 q 365 879 356 881 q 381 878 375 878 q 428 919 428 878 q 416 946 428 935 q 389 957 404 957 q 360 946 371 957 q 349 915 349 935 l 232 915 q 278 1024 232 982 q 390 1065 324 1065 q 503 1027 458 1065 q 549 924 549 989 q 507 815 549 856 q 394 774 465 774 z "},"ē":{"ha":794,"x_min":28,"x_max":768,"o":"m 401 -18 q 206 33 290 -18 q 74 170 121 85 q 28 360 28 256 q 76 551 28 464 q 209 689 125 638 q 401 740 293 740 q 592 689 510 740 q 722 551 675 638 q 768 360 768 464 q 767 328 768 344 q 763 293 765 311 l 222 293 q 284 189 238 229 q 401 149 331 149 q 508 176 463 149 q 578 246 553 204 l 724 136 q 594 25 681 68 q 401 -18 508 -18 m 399 579 q 285 539 332 579 q 222 433 238 499 l 579 433 q 516 536 564 493 q 399 579 468 579 m 186 831 l 186 956 l 611 956 l 611 831 l 186 831 z "},"ę":{"ha":794,"x_min":28,"x_max":768,"o":"m 401 -18 q 206 33 290 -18 q 74 170 121 85 q 28 360 28 256 q 76 551 28 464 q 209 689 125 638 q 401 740 293 740 q 592 689 510 740 q 722 551 675 638 q 768 360 768 464 q 767 328 768 344 q 763 293 765 311 l 222 293 q 284 189 238 229 q 401 149 331 149 q 508 176 463 149 q 578 246 553 204 l 724 136 q 611 35 683 75 l 543 -21 q 513 -55 521 -37 q 504 -90 504 -72 q 526 -133 504 -119 q 575 -146 549 -146 q 596 -144 588 -146 q 611 -139 604 -142 l 644 -272 q 590 -285 615 -282 q 540 -289 564 -289 q 417 -246 461 -289 q 374 -132 374 -203 q 383 -72 374 -99 q 415 -18 393 -44 q 401 -18 408 -18 m 399 579 q 285 539 332 579 q 222 433 238 499 l 579 433 q 516 536 564 493 q 399 579 468 579 z "},"ẽ":{"ha":794,"x_min":28,"x_max":768,"o":"m 401 -18 q 206 33 290 -18 q 74 170 121 85 q 28 360 28 256 q 76 551 28 464 q 209 689 125 638 q 401 740 293 740 q 592 689 510 740 q 722 551 675 638 q 768 360 768 464 q 767 328 768 344 q 763 293 765 311 l 222 293 q 284 189 238 229 q 401 149 331 149 q 508 176 463 149 q 578 246 553 204 l 724 136 q 594 25 681 68 q 401 -18 508 -18 m 399 579 q 285 539 332 579 q 222 433 238 499 l 579 433 q 516 536 564 493 q 399 579 468 579 m 510 774 q 440 787 468 774 q 390 818 411 800 q 349 849 369 836 q 300 863 328 863 q 249 839 263 863 q 236 793 236 815 l 117 793 q 144 901 117 858 q 213 966 171 944 q 301 988 256 988 q 373 974 343 988 q 426 944 403 961 q 468 915 449 928 q 508 901 488 901 q 549 927 540 901 q 557 972 557 953 l 678 972 q 636 828 678 883 q 510 774 594 774 z "},"ə":{"ha":792,"x_min":26,"x_max":764,"o":"m 393 -24 q 202 28 285 -24 q 73 166 119 79 q 26 357 26 253 q 28 389 26 372 q 32 424 29 406 l 569 424 q 510 528 556 488 q 379 568 465 568 q 285 542 329 568 q 217 474 242 515 l 71 583 q 199 693 115 651 q 379 735 282 735 q 597 684 511 735 q 723 547 682 633 q 764 357 764 461 q 717 166 764 253 q 585 28 669 79 q 393 -24 501 -24 m 396 138 q 508 178 463 138 q 569 283 554 218 l 215 283 q 278 181 231 224 q 396 138 326 138 z "},"f":{"ha":450,"x_min":7,"x_max":443,"o":"m 108 0 l 108 563 l 7 563 l 7 722 l 108 722 l 108 771 q 174 947 108 881 q 349 1014 239 1014 l 426 1014 l 426 854 l 378 854 q 296 768 296 854 l 296 722 l 443 722 l 443 563 l 296 563 l 296 0 l 108 0 z "},"g":{"ha":839,"x_min":28,"x_max":783,"o":"m 407 -296 q 212 -266 297 -296 q 61 -160 126 -236 l 178 -22 q 285 -101 229 -81 q 408 -122 340 -122 q 501 -97 458 -122 q 570 -27 544 -72 q 596 75 596 18 l 596 107 q 516 26 567 57 q 378 -4 465 -4 q 199 46 279 -4 q 74 180 119 96 q 28 368 28 264 q 74 557 28 472 q 199 691 119 642 q 378 740 279 740 q 519 708 468 740 q 599 624 569 676 l 599 722 l 783 722 l 783 64 q 735 -128 783 -47 q 603 -252 688 -208 q 407 -296 518 -296 m 408 167 q 553 225 501 167 q 604 368 604 283 q 553 511 604 453 q 408 569 501 569 q 266 511 317 569 q 215 368 215 453 q 238 268 215 314 q 304 194 261 222 q 408 167 347 167 z "},"ğ":{"ha":839,"x_min":28,"x_max":783,"o":"m 407 -296 q 212 -266 297 -296 q 61 -160 126 -236 l 178 -22 q 285 -101 229 -81 q 408 -122 340 -122 q 501 -97 458 -122 q 570 -27 544 -72 q 596 75 596 18 l 596 107 q 516 26 567 57 q 378 -4 465 -4 q 199 46 279 -4 q 74 180 119 96 q 28 368 28 264 q 74 557 28 472 q 199 691 119 642 q 378 740 279 740 q 519 708 468 740 q 599 624 569 676 l 599 722 l 783 722 l 783 64 q 735 -128 783 -47 q 603 -252 688 -208 q 407 -296 518 -296 m 408 167 q 553 225 501 167 q 604 368 604 283 q 553 511 604 453 q 408 569 501 569 q 266 511 317 569 q 215 368 215 453 q 238 268 215 314 q 304 194 261 222 q 408 167 347 167 m 400 774 q 238 828 299 774 q 178 967 178 882 l 326 967 q 344 913 325 938 q 400 889 363 889 q 458 913 440 889 q 474 967 475 938 l 622 967 q 563 828 622 882 q 400 774 503 774 z "},"ĝ":{"ha":839,"x_min":28,"x_max":783,"o":"m 407 -296 q 212 -266 297 -296 q 61 -160 126 -236 l 178 -22 q 285 -101 229 -81 q 408 -122 340 -122 q 501 -97 458 -122 q 570 -27 544 -72 q 596 75 596 18 l 596 107 q 516 26 567 57 q 378 -4 465 -4 q 199 46 279 -4 q 74 180 119 96 q 28 368 28 264 q 74 557 28 472 q 199 691 119 642 q 378 740 279 740 q 519 708 468 740 q 599 624 569 676 l 599 722 l 783 722 l 783 64 q 735 -128 783 -47 q 603 -252 688 -208 q 407 -296 518 -296 m 408 167 q 553 225 501 167 q 604 368 604 283 q 553 511 604 453 q 408 569 501 569 q 266 511 317 569 q 215 368 215 453 q 238 268 215 314 q 304 194 261 222 q 408 167 347 167 m 185 786 l 325 1028 l 476 1028 l 613 786 l 450 786 l 400 897 l 350 786 l 185 786 z "},"ģ":{"ha":839,"x_min":28,"x_max":783,"o":"m 407 -296 q 212 -266 297 -296 q 61 -160 126 -236 l 178 -22 q 285 -101 229 -81 q 408 -122 340 -122 q 501 -97 458 -122 q 570 -27 544 -72 q 596 75 596 18 l 596 107 q 516 26 567 57 q 378 -4 465 -4 q 199 46 279 -4 q 74 180 119 96 q 28 368 28 264 q 74 557 28 472 q 199 691 119 642 q 378 740 279 740 q 519 708 468 740 q 599 624 569 676 l 599 722 l 783 722 l 783 64 q 735 -128 783 -47 q 603 -252 688 -208 q 407 -296 518 -296 m 408 167 q 553 225 501 167 q 604 368 604 283 q 553 511 604 453 q 408 569 501 569 q 266 511 317 569 q 215 368 215 453 q 238 268 215 314 q 304 194 261 222 q 408 167 347 167 m 272 786 l 410 1028 l 540 1028 l 493 786 l 272 786 z "},"ġ":{"ha":839,"x_min":28,"x_max":783,"o":"m 407 -296 q 212 -266 297 -296 q 61 -160 126 -236 l 178 -22 q 285 -101 229 -81 q 408 -122 340 -122 q 501 -97 458 -122 q 570 -27 544 -72 q 596 75 596 18 l 596 107 q 516 26 567 57 q 378 -4 465 -4 q 199 46 279 -4 q 74 180 119 96 q 28 368 28 264 q 74 557 28 472 q 199 691 119 642 q 378 740 279 740 q 519 708 468 740 q 599 624 569 676 l 599 722 l 783 722 l 783 64 q 735 -128 783 -47 q 603 -252 688 -208 q 407 -296 518 -296 m 408 167 q 553 225 501 167 q 604 368 604 283 q 553 511 604 453 q 408 569 501 569 q 266 511 317 569 q 215 368 215 453 q 238 268 215 314 q 304 194 261 222 q 408 167 347 167 m 400 782 q 320 815 353 782 q 288 893 288 847 q 320 970 288 938 q 400 1003 353 1003 q 481 970 449 1003 q 513 893 513 938 q 481 814 513 846 q 400 782 449 782 z "},"ḡ":{"ha":839,"x_min":28,"x_max":783,"o":"m 407 -296 q 212 -266 297 -296 q 61 -160 126 -236 l 178 -22 q 285 -101 229 -81 q 408 -122 340 -122 q 501 -97 458 -122 q 570 -27 544 -72 q 596 75 596 18 l 596 107 q 516 26 567 57 q 378 -4 465 -4 q 199 46 279 -4 q 74 180 119 96 q 28 368 28 264 q 74 557 28 472 q 199 691 119 642 q 378 740 279 740 q 519 708 468 740 q 599 624 569 676 l 599 722 l 783 722 l 783 64 q 735 -128 783 -47 q 603 -252 688 -208 q 407 -296 518 -296 m 408 167 q 553 225 501 167 q 604 368 604 283 q 553 511 604 453 q 408 569 501 569 q 266 511 317 569 q 215 368 215 453 q 238 268 215 314 q 304 194 261 222 q 408 167 347 167 m 189 831 l 189 956 l 614 956 l 614 831 l 189 831 z "},"h":{"ha":785,"x_min":56,"x_max":736,"o":"m 56 0 l 56 1014 l 243 1014 l 243 622 q 461 739 301 739 q 601 703 539 739 q 700 600 664 667 q 736 442 736 533 l 736 0 l 549 0 l 549 396 q 506 533 549 490 q 393 575 463 575 q 288 533 333 575 q 243 396 243 490 l 243 0 l 56 0 z "},"ħ":{"ha":785,"x_min":-36,"x_max":736,"o":"m 56 0 l 56 776 l -36 776 l -36 936 l 56 936 l 56 1014 l 243 1014 l 243 936 l 490 936 l 490 776 l 243 776 l 243 622 q 461 739 301 739 q 601 703 539 739 q 700 600 664 667 q 736 442 736 533 l 736 0 l 549 0 l 549 396 q 506 533 549 490 q 393 575 463 575 q 288 533 333 575 q 243 396 243 490 l 243 0 l 56 0 z "},"ḫ":{"ha":785,"x_min":56,"x_max":736,"o":"m 56 0 l 56 1014 l 243 1014 l 243 622 q 461 739 301 739 q 601 703 539 739 q 700 600 664 667 q 736 442 736 533 l 736 0 l 549 0 l 549 396 q 506 533 549 490 q 393 575 463 575 q 288 533 333 575 q 243 396 243 490 l 243 0 l 56 0 m 403 -307 q 241 -253 301 -307 q 181 -114 181 -199 l 329 -114 q 347 -167 328 -143 q 403 -192 365 -192 q 460 -167 443 -192 q 476 -114 478 -143 l 625 -114 q 565 -253 625 -199 q 403 -307 506 -307 z "},"ĥ":{"ha":785,"x_min":-68,"x_max":736,"o":"m 56 0 l 56 1014 l 243 1014 l 243 622 q 461 739 301 739 q 601 703 539 739 q 700 600 664 667 q 736 442 736 533 l 736 0 l 549 0 l 549 396 q 506 533 549 490 q 393 575 463 575 q 288 533 333 575 q 243 396 243 490 l 243 0 l 56 0 m -68 1078 l 72 1319 l 224 1319 l 360 1078 l 197 1078 l 147 1189 l 97 1078 l -68 1078 z "},"ḥ":{"ha":785,"x_min":56,"x_max":736,"o":"m 56 0 l 56 1014 l 243 1014 l 243 622 q 461 739 301 739 q 601 703 539 739 q 700 600 664 667 q 736 442 736 533 l 736 0 l 549 0 l 549 396 q 506 533 549 490 q 393 575 463 575 q 288 533 333 575 q 243 396 243 490 l 243 0 l 56 0 m 403 -296 q 323 -263 356 -296 q 290 -185 290 -231 q 323 -108 290 -140 q 403 -75 356 -75 q 483 -108 451 -75 q 515 -185 515 -140 q 483 -264 515 -232 q 403 -296 451 -296 z "},"ẖ":{"ha":785,"x_min":56,"x_max":736,"o":"m 56 0 l 56 1014 l 243 1014 l 243 622 q 461 739 301 739 q 601 703 539 739 q 700 600 664 667 q 736 442 736 533 l 736 0 l 549 0 l 549 396 q 506 533 549 490 q 393 575 463 575 q 288 533 333 575 q 243 396 243 490 l 243 0 l 56 0 m 190 -251 l 190 -126 l 615 -126 l 615 -251 l 190 -251 z "},"i":{"ha":299,"x_min":36,"x_max":261,"o":"m 149 782 q 69 815 101 782 q 36 893 36 847 q 69 970 36 938 q 149 1003 101 1003 q 229 970 197 1003 q 261 893 261 938 q 229 814 261 846 q 149 782 197 782 m 56 0 l 56 722 l 243 722 l 243 0 l 56 0 z "},"ı":{"ha":299,"x_min":56,"x_max":243,"o":"m 56 0 l 56 722 l 243 722 l 243 0 l 56 0 z "},"í":{"ha":299,"x_min":56,"x_max":332,"o":"m 56 0 l 56 722 l 243 722 l 243 0 l 56 0 m 79 786 l 140 1028 l 332 1028 l 210 786 l 79 786 z "},"î":{"ha":299,"x_min":-68,"x_max":360,"o":"m 56 0 l 56 722 l 243 722 l 243 0 l 56 0 m -68 786 l 72 1028 l 224 1028 l 360 786 l 197 786 l 147 897 l 97 786 l -68 786 z "},"ï":{"ha":299,"x_min":-92,"x_max":386,"o":"m 274 782 q 194 815 226 782 q 161 893 161 847 q 194 970 161 938 q 274 1003 226 1003 q 354 970 322 1003 q 386 893 386 938 q 354 814 386 846 q 274 782 322 782 m 21 782 q -59 815 -26 782 q -92 893 -92 847 q -59 970 -92 938 q 21 1003 -26 1003 q 101 970 69 1003 q 133 893 133 938 q 101 814 133 846 q 21 782 69 782 m 56 0 l 56 722 l 243 722 l 243 0 l 56 0 z "},"ị":{"ha":299,"x_min":35,"x_max":261,"o":"m 149 782 q 69 815 101 782 q 36 893 36 847 q 69 970 36 938 q 149 1003 101 1003 q 229 970 197 1003 q 261 893 261 938 q 229 814 261 846 q 149 782 197 782 m 56 0 l 56 722 l 243 722 l 243 0 l 56 0 m 147 -296 q 67 -263 100 -296 q 35 -185 35 -231 q 67 -108 35 -140 q 147 -75 100 -75 q 228 -108 196 -75 q 260 -185 260 -140 q 228 -264 260 -232 q 147 -296 196 -296 z "},"ì":{"ha":299,"x_min":-50,"x_max":243,"o":"m 56 0 l 56 722 l 243 722 l 243 0 l 56 0 m 88 786 l -50 1028 l 171 1028 l 218 786 l 88 786 z "},"ỉ":{"ha":299,"x_min":-18,"x_max":299,"o":"m 56 0 l 56 722 l 243 722 l 243 0 l 56 0 m 144 774 q 67 792 106 774 l 99 885 q 115 879 106 881 q 131 878 125 878 q 178 919 178 878 q 166 946 178 935 q 139 957 154 957 q 110 946 121 957 q 99 915 99 935 l -18 915 q 28 1024 -18 982 q 140 1065 74 1065 q 253 1027 208 1065 q 299 924 299 989 q 257 815 299 856 q 144 774 215 774 z "},"ī":{"ha":299,"x_min":-64,"x_max":361,"o":"m 56 0 l 56 722 l 243 722 l 243 0 l 56 0 m -64 831 l -64 956 l 361 956 l 361 831 l -64 831 z "},"į":{"ha":299,"x_min":32,"x_max":269,"o":"m 147 782 q 67 815 100 782 q 35 893 35 847 q 67 970 35 938 q 147 1003 100 1003 q 228 970 196 1003 q 260 893 260 938 q 228 814 260 846 q 147 782 196 782 m 56 0 l 56 722 l 243 722 l 243 0 l 243 0 l 181 -51 q 153 -83 161 -67 q 146 -115 146 -99 q 165 -153 146 -142 q 208 -165 185 -165 q 226 -163 219 -165 q 240 -160 233 -161 l 269 -281 q 222 -292 244 -289 q 178 -296 199 -296 q 70 -256 108 -296 q 32 -153 32 -217 q 51 -74 32 -108 q 118 0 69 -40 l 56 0 z "},"ĩ":{"ha":299,"x_min":-106,"x_max":400,"o":"m 249 774 q 175 788 203 774 q 131 820 147 801 q 100 853 114 839 q 68 867 86 867 q 27 846 40 867 q 14 789 14 825 l -106 789 q -83 891 -106 846 q -22 962 -60 936 q 57 988 15 988 q 135 974 107 988 q 178 941 163 960 q 206 908 193 922 q 238 894 218 894 q 272 917 265 894 q 279 972 279 940 l 400 972 q 382 878 400 924 q 331 803 364 832 q 249 774 297 774 m 56 0 l 56 722 l 243 722 l 243 0 l 56 0 z "},"ĳ":{"ha":597,"x_min":36,"x_max":561,"o":"m 149 782 q 69 815 101 782 q 36 893 36 847 q 69 970 36 938 q 149 1003 101 1003 q 229 970 197 1003 q 261 893 261 938 q 229 814 261 846 q 149 782 197 782 m 56 0 l 56 722 l 243 722 l 243 0 l 56 0 m 449 782 q 369 815 401 782 q 336 893 336 847 q 369 970 336 938 q 449 1003 401 1003 q 529 970 497 1003 q 561 893 561 938 q 529 814 561 846 q 449 782 497 782 m 260 -278 l 260 -111 l 296 -111 q 354 -44 354 -111 l 354 722 l 542 722 l 542 -54 q 485 -225 542 -172 q 321 -278 428 -278 l 260 -278 z "},"j":{"ha":299,"x_min":-39,"x_max":263,"o":"m 150 782 q 70 815 103 782 q 38 893 38 847 q 70 970 38 938 q 150 1003 103 1003 q 231 970 199 1003 q 263 893 263 938 q 231 814 263 846 q 150 782 199 782 m -39 -278 l -39 -111 l -3 -111 q 56 -44 56 -111 l 56 722 l 243 722 l 243 -54 q 186 -225 243 -172 q 22 -278 129 -278 l -39 -278 z "},"ȷ":{"ha":299,"x_min":-39,"x_max":243,"o":"m -39 -278 l -39 -111 l -3 -111 q 56 -44 56 -111 l 56 722 l 243 722 l 243 -54 q 186 -225 243 -172 q 22 -278 129 -278 l -39 -278 z "},"ĵ":{"ha":299,"x_min":-68,"x_max":360,"o":"m -39 -278 l -39 -111 l -3 -111 q 56 -44 56 -111 l 56 722 l 243 722 l 243 -54 q 186 -225 243 -172 q 22 -278 129 -278 l -39 -278 m -68 786 l 72 1028 l 224 1028 l 360 786 l 197 786 l 147 897 l 97 786 l -68 786 z "},"k":{"ha":775,"x_min":56,"x_max":782,"o":"m 56 0 l 56 1014 l 243 1014 l 243 431 l 514 722 l 781 722 l 440 386 l 782 0 l 533 0 l 243 343 l 243 0 l 56 0 z "},"ķ":{"ha":775,"x_min":56,"x_max":782,"o":"m 56 0 l 56 1014 l 243 1014 l 243 431 l 514 722 l 781 722 l 440 386 l 782 0 l 533 0 l 243 343 l 243 0 l 56 0 m 236 -278 l 283 -62 l 475 -62 l 339 -278 l 236 -278 z "},"ĸ":{"ha":775,"x_min":56,"x_max":782,"o":"m 56 0 l 56 722 l 243 722 l 243 428 l 514 722 l 781 722 l 440 382 l 782 0 l 533 0 l 243 340 l 243 0 l 56 0 z "},"ḵ":{"ha":775,"x_min":56,"x_max":782,"o":"m 56 0 l 56 1014 l 243 1014 l 243 431 l 514 722 l 781 722 l 440 386 l 782 0 l 533 0 l 243 343 l 243 0 l 56 0 m 167 -251 l 167 -126 l 592 -126 l 592 -251 l 167 -251 z "},"l":{"ha":299,"x_min":56,"x_max":243,"o":"m 56 0 l 56 1014 l 243 1014 l 243 0 l 56 0 z "},"ĺ":{"ha":299,"x_min":56,"x_max":328,"o":"m 56 0 l 56 1014 l 243 1014 l 243 0 l 56 0 m 75 1078 l 136 1319 l 328 1319 l 206 1078 l 75 1078 z "},"ľ":{"ha":313,"x_min":56,"x_max":539,"o":"m 56 0 l 56 1014 l 243 1014 l 243 0 l 56 0 m 272 731 l 342 1014 l 539 1014 l 403 731 l 272 731 z "},"ļ":{"ha":299,"x_min":10,"x_max":249,"o":"m 56 0 l 56 1014 l 243 1014 l 243 0 l 56 0 m 10 -278 l 57 -62 l 249 -62 l 113 -278 l 10 -278 z "},"ḷ":{"ha":299,"x_min":40,"x_max":265,"o":"m 56 0 l 56 1014 l 243 1014 l 243 0 l 56 0 m 153 -296 q 73 -263 106 -296 q 40 -185 40 -231 q 73 -108 40 -140 q 153 -75 106 -75 q 233 -108 201 -75 q 265 -185 265 -140 q 233 -264 265 -232 q 153 -296 201 -296 z "},"ḹ":{"ha":299,"x_min":-68,"x_max":357,"o":"m 56 0 l 56 1014 l 243 1014 l 243 0 l 56 0 m 153 -296 q 73 -263 106 -296 q 40 -185 40 -231 q 73 -108 40 -140 q 153 -75 106 -75 q 233 -108 201 -75 q 265 -185 265 -140 q 233 -264 265 -232 q 153 -296 201 -296 m -68 1122 l -68 1247 l 357 1247 l 357 1122 l -68 1122 z "},"ḻ":{"ha":299,"x_min":-60,"x_max":365,"o":"m 56 0 l 56 1014 l 243 1014 l 243 0 l 56 0 m -60 -251 l -60 -126 l 365 -126 l 365 -251 l -60 -251 z "},"ł":{"ha":315,"x_min":-25,"x_max":343,"o":"m 64 0 l 64 333 l -25 271 l -25 446 l 64 508 l 64 1014 l 251 1014 l 251 621 l 343 693 l 343 518 l 251 454 l 251 0 l 64 0 z "},"m":{"ha":1264,"x_min":56,"x_max":1215,"o":"m 56 0 l 56 722 l 240 722 l 240 617 q 461 739 297 739 q 599 703 538 739 q 696 603 660 668 q 788 703 732 668 q 940 739 844 739 q 1081 703 1018 739 q 1179 600 1143 667 q 1215 442 1215 533 l 1215 0 l 1028 0 l 1028 396 q 988 533 1028 490 q 883 575 947 575 q 777 538 818 575 q 736 396 736 500 l 736 0 l 549 0 l 549 396 q 506 533 549 490 q 393 575 463 575 q 288 533 333 575 q 243 396 243 490 l 243 0 l 56 0 z "},"ṁ":{"ha":1264,"x_min":56,"x_max":1215,"o":"m 56 0 l 56 722 l 240 722 l 240 617 q 461 739 297 739 q 599 703 538 739 q 696 603 660 668 q 788 703 732 668 q 940 739 844 739 q 1081 703 1018 739 q 1179 600 1143 667 q 1215 442 1215 533 l 1215 0 l 1028 0 l 1028 396 q 988 533 1028 490 q 883 575 947 575 q 777 538 818 575 q 736 396 736 500 l 736 0 l 549 0 l 549 396 q 506 533 549 490 q 393 575 463 575 q 288 533 333 575 q 243 396 243 490 l 243 0 l 56 0 m 657 782 q 577 815 610 782 q 544 893 544 847 q 577 970 544 938 q 657 1003 610 1003 q 738 970 706 1003 q 769 893 769 938 q 738 814 769 846 q 657 782 706 782 z "},"ṃ":{"ha":1264,"x_min":56,"x_max":1215,"o":"m 56 0 l 56 722 l 240 722 l 240 617 q 461 739 297 739 q 599 703 538 739 q 696 603 660 668 q 788 703 732 668 q 940 739 844 739 q 1081 703 1018 739 q 1179 600 1143 667 q 1215 442 1215 533 l 1215 0 l 1028 0 l 1028 396 q 988 533 1028 490 q 883 575 947 575 q 777 538 818 575 q 736 396 736 500 l 736 0 l 549 0 l 549 396 q 506 533 549 490 q 393 575 463 575 q 288 533 333 575 q 243 396 243 490 l 243 0 l 56 0 m 640 -296 q 560 -263 593 -296 q 528 -185 528 -231 q 560 -108 528 -140 q 640 -75 593 -75 q 721 -108 689 -75 q 753 -185 753 -140 q 721 -264 753 -232 q 640 -296 689 -296 z "},"n":{"ha":785,"x_min":56,"x_max":736,"o":"m 56 0 l 56 722 l 240 722 l 240 617 q 461 739 297 739 q 601 703 539 739 q 700 600 664 667 q 736 442 736 533 l 736 0 l 549 0 l 549 396 q 506 533 549 490 q 393 575 463 575 q 288 533 333 575 q 243 396 243 490 l 243 0 l 56 0 z "},"ń":{"ha":785,"x_min":56,"x_max":736,"o":"m 56 0 l 56 722 l 240 722 l 240 617 q 461 739 297 739 q 601 703 539 739 q 700 600 664 667 q 736 442 736 533 l 736 0 l 549 0 l 549 396 q 506 533 549 490 q 393 575 463 575 q 288 533 333 575 q 243 396 243 490 l 243 0 l 56 0 m 343 793 l 404 1035 l 596 1035 l 474 793 l 343 793 z "},"ň":{"ha":785,"x_min":56,"x_max":736,"o":"m 56 0 l 56 722 l 240 722 l 240 617 q 461 739 297 739 q 601 703 539 739 q 700 600 664 667 q 736 442 736 533 l 736 0 l 549 0 l 549 396 q 506 533 549 490 q 393 575 463 575 q 288 533 333 575 q 243 396 243 490 l 243 0 l 56 0 m 196 1035 l 361 1035 l 411 924 l 461 1035 l 624 1035 l 488 793 l 336 793 l 196 1035 z "},"ņ":{"ha":785,"x_min":56,"x_max":736,"o":"m 56 0 l 56 722 l 240 722 l 240 617 q 461 739 297 739 q 601 703 539 739 q 700 600 664 667 q 736 442 736 533 l 736 0 l 549 0 l 549 396 q 506 533 549 490 q 393 575 463 575 q 288 533 333 575 q 243 396 243 490 l 243 0 l 56 0 m 257 -278 l 304 -62 l 496 -62 l 360 -278 l 257 -278 z "},"ṅ":{"ha":785,"x_min":56,"x_max":736,"o":"m 56 0 l 56 722 l 240 722 l 240 617 q 461 739 297 739 q 601 703 539 739 q 700 600 664 667 q 736 442 736 533 l 736 0 l 549 0 l 549 396 q 506 533 549 490 q 393 575 463 575 q 288 533 333 575 q 243 396 243 490 l 243 0 l 56 0 m 411 789 q 331 822 364 789 q 299 900 299 854 q 331 977 299 944 q 411 1010 364 1010 q 492 977 460 1010 q 524 900 524 944 q 492 821 524 853 q 411 789 460 789 z "},"ṇ":{"ha":785,"x_min":56,"x_max":736,"o":"m 56 0 l 56 722 l 240 722 l 240 617 q 461 739 297 739 q 601 703 539 739 q 700 600 664 667 q 736 442 736 533 l 736 0 l 549 0 l 549 396 q 506 533 549 490 q 393 575 463 575 q 288 533 333 575 q 243 396 243 490 l 243 0 l 56 0 m 400 -296 q 320 -263 353 -296 q 288 -185 288 -231 q 320 -108 288 -140 q 400 -75 353 -75 q 481 -108 449 -75 q 513 -185 513 -140 q 481 -264 513 -232 q 400 -296 449 -296 z "},"ṉ":{"ha":785,"x_min":56,"x_max":736,"o":"m 56 0 l 56 722 l 240 722 l 240 617 q 461 739 297 739 q 601 703 539 739 q 700 600 664 667 q 736 442 736 533 l 736 0 l 549 0 l 549 396 q 506 533 549 490 q 393 575 463 575 q 288 533 333 575 q 243 396 243 490 l 243 0 l 56 0 m 188 -251 l 188 -126 l 613 -126 l 613 -251 l 188 -251 z "},"ñ":{"ha":785,"x_min":56,"x_max":736,"o":"m 56 0 l 56 722 l 240 722 l 240 617 q 461 739 297 739 q 601 703 539 739 q 700 600 664 667 q 736 442 736 533 l 736 0 l 549 0 l 549 396 q 506 533 549 490 q 393 575 463 575 q 288 533 333 575 q 243 396 243 490 l 243 0 l 56 0 m 524 781 q 453 794 482 781 q 404 825 425 807 q 363 856 383 843 q 314 869 342 869 q 263 846 276 869 q 250 800 250 822 l 131 800 q 158 908 131 865 q 227 973 185 951 q 315 994 269 994 q 387 981 357 994 q 440 951 417 968 q 482 922 463 935 q 522 908 501 908 q 563 934 554 908 q 571 979 571 960 l 692 979 q 650 835 692 890 q 524 781 608 781 z "},"ŋ":{"ha":785,"x_min":56,"x_max":736,"o":"m 56 0 l 56 722 l 240 722 l 240 617 q 461 739 297 739 q 601 703 539 739 q 700 600 664 667 q 736 442 736 533 l 736 -54 q 679 -225 736 -172 q 515 -278 622 -278 l 454 -278 l 454 -111 l 490 -111 q 549 -44 549 -111 l 549 396 q 506 533 549 490 q 393 575 463 575 q 288 533 333 575 q 243 396 243 490 l 243 0 l 56 0 z "},"o":{"ha":825,"x_min":28,"x_max":797,"o":"m 413 -18 q 214 33 301 -18 q 77 170 126 85 q 28 360 28 256 q 77 550 28 464 q 214 688 126 636 q 413 739 301 739 q 612 688 525 739 q 748 550 699 636 q 797 360 797 464 q 748 170 797 256 q 612 33 699 85 q 413 -18 525 -18 m 413 153 q 517 181 472 153 q 585 257 561 210 q 610 360 610 304 q 585 464 610 417 q 517 540 561 511 q 413 568 472 568 q 308 540 353 568 q 240 464 264 511 q 215 360 215 417 q 240 257 215 304 q 308 181 264 210 q 413 153 353 153 z "},"ó":{"ha":825,"x_min":28,"x_max":797,"o":"m 413 -18 q 214 33 301 -18 q 77 170 126 85 q 28 360 28 256 q 77 550 28 464 q 214 688 126 636 q 413 739 301 739 q 612 688 525 739 q 748 550 699 636 q 797 360 797 464 q 748 170 797 256 q 612 33 699 85 q 413 -18 525 -18 m 413 153 q 517 181 472 153 q 585 257 561 210 q 610 360 610 304 q 585 464 610 417 q 517 540 561 511 q 413 568 472 568 q 308 540 353 568 q 240 464 264 511 q 215 360 215 417 q 240 257 215 304 q 308 181 264 210 q 413 153 353 153 m 344 786 l 406 1028 l 597 1028 l 475 786 l 344 786 z "},"ô":{"ha":825,"x_min":28,"x_max":797,"o":"m 413 -18 q 214 33 301 -18 q 77 170 126 85 q 28 360 28 256 q 77 550 28 464 q 214 688 126 636 q 413 739 301 739 q 612 688 525 739 q 748 550 699 636 q 797 360 797 464 q 748 170 797 256 q 612 33 699 85 q 413 -18 525 -18 m 413 153 q 517 181 472 153 q 585 257 561 210 q 610 360 610 304 q 585 464 610 417 q 517 540 561 511 q 413 568 472 568 q 308 540 353 568 q 240 464 264 511 q 215 360 215 417 q 240 257 215 304 q 308 181 264 210 q 413 153 353 153 m 197 786 l 338 1028 l 489 1028 l 625 786 l 463 786 l 413 897 l 363 786 l 197 786 z "},"ố":{"ha":825,"x_min":28,"x_max":800,"o":"m 413 -18 q 214 33 301 -18 q 77 170 126 85 q 28 360 28 256 q 77 550 28 464 q 214 688 126 636 q 413 739 301 739 q 612 688 525 739 q 748 550 699 636 q 797 360 797 464 q 748 170 797 256 q 612 33 699 85 q 413 -18 525 -18 m 413 153 q 517 181 472 153 q 585 257 561 210 q 610 360 610 304 q 585 464 610 417 q 517 540 561 511 q 413 568 472 568 q 308 540 353 568 q 240 464 264 511 q 215 360 215 417 q 240 257 215 304 q 308 181 264 210 q 413 153 353 153 m 197 786 l 338 1028 l 489 1028 l 625 786 l 463 786 l 413 897 l 363 786 l 197 786 m 547 933 l 608 1175 l 800 1175 l 678 933 l 547 933 z "},"ộ":{"ha":825,"x_min":28,"x_max":797,"o":"m 413 -18 q 214 33 301 -18 q 77 170 126 85 q 28 360 28 256 q 77 550 28 464 q 214 688 126 636 q 413 739 301 739 q 612 688 525 739 q 748 550 699 636 q 797 360 797 464 q 748 170 797 256 q 612 33 699 85 q 413 -18 525 -18 m 413 153 q 517 181 472 153 q 585 257 561 210 q 610 360 610 304 q 585 464 610 417 q 517 540 561 511 q 413 568 472 568 q 308 540 353 568 q 240 464 264 511 q 215 360 215 417 q 240 257 215 304 q 308 181 264 210 q 413 153 353 153 m 414 -296 q 334 -263 367 -296 q 301 -185 301 -231 q 334 -108 301 -140 q 414 -75 367 -75 q 494 -108 463 -75 q 526 -185 526 -140 q 494 -264 526 -232 q 414 -296 463 -296 m 197 786 l 338 1028 l 489 1028 l 625 786 l 463 786 l 413 897 l 363 786 l 197 786 z "},"ồ":{"ha":825,"x_min":0,"x_max":797,"o":"m 413 -18 q 214 33 301 -18 q 77 170 126 85 q 28 360 28 256 q 77 550 28 464 q 214 688 126 636 q 413 739 301 739 q 612 688 525 739 q 748 550 699 636 q 797 360 797 464 q 748 170 797 256 q 612 33 699 85 q 413 -18 525 -18 m 413 153 q 517 181 472 153 q 585 257 561 210 q 610 360 610 304 q 585 464 610 417 q 517 540 561 511 q 413 568 472 568 q 308 540 353 568 q 240 464 264 511 q 215 360 215 417 q 240 257 215 304 q 308 181 264 210 q 413 153 353 153 m 197 786 l 338 1028 l 489 1028 l 625 786 l 463 786 l 413 897 l 363 786 l 197 786 m 138 933 l 0 1175 l 221 1175 l 268 933 l 138 933 z "},"ổ":{"ha":825,"x_min":28,"x_max":797,"o":"m 413 -18 q 214 33 301 -18 q 77 170 126 85 q 28 360 28 256 q 77 550 28 464 q 214 688 126 636 q 413 739 301 739 q 612 688 525 739 q 748 550 699 636 q 797 360 797 464 q 748 170 797 256 q 612 33 699 85 q 413 -18 525 -18 m 413 153 q 517 181 472 153 q 585 257 561 210 q 610 360 610 304 q 585 464 610 417 q 517 540 561 511 q 413 568 472 568 q 308 540 353 568 q 240 464 264 511 q 215 360 215 417 q 240 257 215 304 q 308 181 264 210 q 413 153 353 153 m 197 786 l 338 1028 l 489 1028 l 625 786 l 463 786 l 413 897 l 363 786 l 197 786 m 410 1040 q 332 1058 371 1040 l 364 1151 q 381 1146 371 1147 q 396 1144 390 1144 q 443 1186 443 1144 q 431 1213 443 1201 q 404 1224 419 1224 q 375 1213 386 1224 q 364 1182 364 1201 l 247 1182 q 293 1290 247 1249 q 406 1332 339 1332 q 519 1294 474 1332 q 564 1190 564 1256 q 522 1081 564 1122 q 410 1040 481 1040 z "},"ỗ":{"ha":825,"x_min":28,"x_max":797,"o":"m 413 -18 q 214 33 301 -18 q 77 170 126 85 q 28 360 28 256 q 77 550 28 464 q 214 688 126 636 q 413 739 301 739 q 612 688 525 739 q 748 550 699 636 q 797 360 797 464 q 748 170 797 256 q 612 33 699 85 q 413 -18 525 -18 m 413 153 q 517 181 472 153 q 585 257 561 210 q 610 360 610 304 q 585 464 610 417 q 517 540 561 511 q 413 568 472 568 q 308 540 353 568 q 240 464 264 511 q 215 360 215 417 q 240 257 215 304 q 308 181 264 210 q 413 153 353 153 m 197 786 l 338 1028 l 489 1028 l 625 786 l 463 786 l 413 897 l 363 786 l 197 786 m 525 1040 q 455 1053 483 1040 q 406 1085 426 1067 q 364 1116 385 1103 q 315 1129 343 1129 q 265 1106 278 1129 q 251 1060 251 1082 l 132 1060 q 159 1168 132 1125 q 228 1233 186 1211 q 317 1254 271 1254 q 388 1241 358 1254 q 441 1211 418 1228 q 483 1181 464 1194 q 524 1168 503 1168 q 564 1194 556 1168 q 572 1239 572 1219 l 693 1239 q 651 1095 693 1150 q 525 1040 610 1040 z "},"ö":{"ha":825,"x_min":28,"x_max":797,"o":"m 413 -18 q 214 33 301 -18 q 77 170 126 85 q 28 360 28 256 q 77 550 28 464 q 214 688 126 636 q 413 739 301 739 q 612 688 525 739 q 748 550 699 636 q 797 360 797 464 q 748 170 797 256 q 612 33 699 85 q 413 -18 525 -18 m 413 153 q 517 181 472 153 q 585 257 561 210 q 610 360 610 304 q 585 464 610 417 q 517 540 561 511 q 413 568 472 568 q 308 540 353 568 q 240 464 264 511 q 215 360 215 417 q 240 257 215 304 q 308 181 264 210 q 413 153 353 153 m 560 782 q 480 815 513 782 q 447 893 447 847 q 480 970 447 938 q 560 1003 513 1003 q 640 970 608 1003 q 672 893 672 938 q 640 814 672 846 q 560 782 608 782 m 265 782 q 185 815 218 782 q 153 893 153 847 q 185 970 153 938 q 265 1003 218 1003 q 346 970 314 1003 q 378 893 378 938 q 346 814 378 846 q 265 782 314 782 z "},"ọ":{"ha":825,"x_min":28,"x_max":797,"o":"m 413 -18 q 214 33 301 -18 q 77 170 126 85 q 28 360 28 256 q 77 550 28 464 q 214 688 126 636 q 413 739 301 739 q 612 688 525 739 q 748 550 699 636 q 797 360 797 464 q 748 170 797 256 q 612 33 699 85 q 413 -18 525 -18 m 413 153 q 517 181 472 153 q 585 257 561 210 q 610 360 610 304 q 585 464 610 417 q 517 540 561 511 q 413 568 472 568 q 308 540 353 568 q 240 464 264 511 q 215 360 215 417 q 240 257 215 304 q 308 181 264 210 q 413 153 353 153 m 414 -296 q 334 -263 367 -296 q 301 -185 301 -231 q 334 -108 301 -140 q 414 -75 367 -75 q 494 -108 463 -75 q 526 -185 526 -140 q 494 -264 526 -232 q 414 -296 463 -296 z "},"ò":{"ha":825,"x_min":28,"x_max":797,"o":"m 413 -18 q 214 33 301 -18 q 77 170 126 85 q 28 360 28 256 q 77 550 28 464 q 214 688 126 636 q 413 739 301 739 q 612 688 525 739 q 748 550 699 636 q 797 360 797 464 q 748 170 797 256 q 612 33 699 85 q 413 -18 525 -18 m 413 153 q 517 181 472 153 q 585 257 561 210 q 610 360 610 304 q 585 464 610 417 q 517 540 561 511 q 413 568 472 568 q 308 540 353 568 q 240 464 264 511 q 215 360 215 417 q 240 257 215 304 q 308 181 264 210 q 413 153 353 153 m 353 786 l 215 1028 l 436 1028 l 483 786 l 353 786 z "},"ỏ":{"ha":825,"x_min":28,"x_max":797,"o":"m 413 -18 q 214 33 301 -18 q 77 170 126 85 q 28 360 28 256 q 77 550 28 464 q 214 688 126 636 q 413 739 301 739 q 612 688 525 739 q 748 550 699 636 q 797 360 797 464 q 748 170 797 256 q 612 33 699 85 q 413 -18 525 -18 m 413 153 q 517 181 472 153 q 585 257 561 210 q 610 360 610 304 q 585 464 610 417 q 517 540 561 511 q 413 568 472 568 q 308 540 353 568 q 240 464 264 511 q 215 360 215 417 q 240 257 215 304 q 308 181 264 210 q 413 153 353 153 m 410 774 q 332 792 371 774 l 364 885 q 381 879 371 881 q 396 878 390 878 q 443 919 443 878 q 431 946 443 935 q 404 957 419 957 q 375 946 386 957 q 364 915 364 935 l 247 915 q 293 1024 247 982 q 406 1065 339 1065 q 519 1027 474 1065 q 564 924 564 989 q 522 815 564 856 q 410 774 481 774 z "},"ơ":{"ha":825,"x_min":28,"x_max":813,"o":"m 413 -18 q 214 33 301 -18 q 77 170 126 85 q 28 360 28 256 q 77 550 28 464 q 214 688 126 636 q 413 739 301 739 q 612 688 525 739 q 748 550 699 636 q 797 360 797 464 q 748 170 797 256 q 612 33 699 85 q 413 -18 525 -18 m 413 153 q 517 181 472 153 q 585 257 561 210 q 610 360 610 304 q 585 464 610 417 q 517 540 561 511 q 413 568 472 568 q 308 540 353 568 q 240 464 264 511 q 215 360 215 417 q 240 257 215 304 q 308 181 264 210 q 413 153 353 153 m 536 600 l 525 722 l 543 722 q 629 746 604 722 q 654 846 654 769 l 654 890 l 813 890 l 813 835 q 746 659 813 718 q 536 600 679 600 z "},"ớ":{"ha":825,"x_min":28,"x_max":813,"o":"m 413 -18 q 214 33 301 -18 q 77 170 126 85 q 28 360 28 256 q 77 550 28 464 q 214 688 126 636 q 413 739 301 739 q 612 688 525 739 q 748 550 699 636 q 797 360 797 464 q 748 170 797 256 q 612 33 699 85 q 413 -18 525 -18 m 413 153 q 517 181 472 153 q 585 257 561 210 q 610 360 610 304 q 585 464 610 417 q 517 540 561 511 q 413 568 472 568 q 308 540 353 568 q 240 464 264 511 q 215 360 215 417 q 240 257 215 304 q 308 181 264 210 q 413 153 353 153 m 536 600 l 525 722 l 543 722 q 629 746 604 722 q 654 846 654 769 l 654 890 l 813 890 l 813 835 q 746 659 813 718 q 536 600 679 600 m 344 786 l 406 1028 l 597 1028 l 475 786 l 344 786 z "},"ợ":{"ha":825,"x_min":28,"x_max":813,"o":"m 413 -18 q 214 33 301 -18 q 77 170 126 85 q 28 360 28 256 q 77 550 28 464 q 214 688 126 636 q 413 739 301 739 q 612 688 525 739 q 748 550 699 636 q 797 360 797 464 q 748 170 797 256 q 612 33 699 85 q 413 -18 525 -18 m 413 153 q 517 181 472 153 q 585 257 561 210 q 610 360 610 304 q 585 464 610 417 q 517 540 561 511 q 413 568 472 568 q 308 540 353 568 q 240 464 264 511 q 215 360 215 417 q 240 257 215 304 q 308 181 264 210 q 413 153 353 153 m 536 600 l 525 722 l 543 722 q 629 746 604 722 q 654 846 654 769 l 654 890 l 813 890 l 813 835 q 746 659 813 718 q 536 600 679 600 m 414 -296 q 334 -263 367 -296 q 301 -185 301 -231 q 334 -108 301 -140 q 414 -75 367 -75 q 494 -108 463 -75 q 526 -185 526 -140 q 494 -264 526 -232 q 414 -296 463 -296 z "},"ờ":{"ha":825,"x_min":28,"x_max":813,"o":"m 413 -18 q 214 33 301 -18 q 77 170 126 85 q 28 360 28 256 q 77 550 28 464 q 214 688 126 636 q 413 739 301 739 q 612 688 525 739 q 748 550 699 636 q 797 360 797 464 q 748 170 797 256 q 612 33 699 85 q 413 -18 525 -18 m 413 153 q 517 181 472 153 q 585 257 561 210 q 610 360 610 304 q 585 464 610 417 q 517 540 561 511 q 413 568 472 568 q 308 540 353 568 q 240 464 264 511 q 215 360 215 417 q 240 257 215 304 q 308 181 264 210 q 413 153 353 153 m 536 600 l 525 722 l 543 722 q 629 746 604 722 q 654 846 654 769 l 654 890 l 813 890 l 813 835 q 746 659 813 718 q 536 600 679 600 m 353 786 l 215 1028 l 436 1028 l 483 786 l 353 786 z "},"ở":{"ha":825,"x_min":28,"x_max":813,"o":"m 413 -18 q 214 33 301 -18 q 77 170 126 85 q 28 360 28 256 q 77 550 28 464 q 214 688 126 636 q 413 739 301 739 q 612 688 525 739 q 748 550 699 636 q 797 360 797 464 q 748 170 797 256 q 612 33 699 85 q 413 -18 525 -18 m 413 153 q 517 181 472 153 q 585 257 561 210 q 610 360 610 304 q 585 464 610 417 q 517 540 561 511 q 413 568 472 568 q 308 540 353 568 q 240 464 264 511 q 215 360 215 417 q 240 257 215 304 q 308 181 264 210 q 413 153 353 153 m 536 600 l 525 722 l 543 722 q 629 746 604 722 q 654 846 654 769 l 654 890 l 813 890 l 813 835 q 746 659 813 718 q 536 600 679 600 m 410 774 q 332 792 371 774 l 364 885 q 381 879 371 881 q 396 878 390 878 q 443 919 443 878 q 431 946 443 935 q 404 957 419 957 q 375 946 386 957 q 364 915 364 935 l 247 915 q 293 1024 247 982 q 406 1065 339 1065 q 519 1027 474 1065 q 564 924 564 989 q 522 815 564 856 q 410 774 481 774 z "},"ỡ":{"ha":825,"x_min":28,"x_max":813,"o":"m 413 -18 q 214 33 301 -18 q 77 170 126 85 q 28 360 28 256 q 77 550 28 464 q 214 688 126 636 q 413 739 301 739 q 529 722 474 739 l 543 722 q 629 746 604 722 q 654 846 654 769 l 654 886 q 604 803 639 833 q 514 774 569 774 q 451 787 476 774 q 406 818 425 800 q 369 849 388 836 q 325 863 350 863 q 280 839 292 863 q 268 793 268 815 l 160 793 q 184 901 160 858 q 247 966 208 944 q 326 988 285 988 q 391 974 364 988 q 438 944 418 961 q 476 915 458 928 q 513 901 494 901 q 549 927 542 901 q 557 972 557 953 l 665 972 q 656 890 665 926 l 813 890 l 813 835 q 690 625 813 676 q 769 506 740 574 q 797 360 797 438 q 748 170 797 256 q 612 33 699 85 q 413 -18 525 -18 m 413 153 q 517 181 472 153 q 585 257 561 210 q 610 360 610 304 q 585 464 610 417 q 517 540 561 511 q 413 568 472 568 q 308 540 353 568 q 240 464 264 511 q 215 360 215 417 q 240 257 215 304 q 308 181 264 210 q 413 153 353 153 z "},"ő":{"ha":825,"x_min":28,"x_max":797,"o":"m 413 -18 q 214 33 301 -18 q 77 170 126 85 q 28 360 28 256 q 77 550 28 464 q 214 688 126 636 q 413 739 301 739 q 612 688 525 739 q 748 550 699 636 q 797 360 797 464 q 748 170 797 256 q 612 33 699 85 q 413 -18 525 -18 m 413 153 q 517 181 472 153 q 585 257 561 210 q 610 360 610 304 q 585 464 610 417 q 517 540 561 511 q 413 568 472 568 q 308 540 353 568 q 240 464 264 511 q 215 360 215 417 q 240 257 215 304 q 308 181 264 210 q 413 153 353 153 m 467 786 l 511 1028 l 696 1028 l 563 786 l 467 786 m 238 786 l 282 1028 l 467 1028 l 333 786 l 238 786 z "},"ō":{"ha":825,"x_min":28,"x_max":797,"o":"m 413 -18 q 214 33 301 -18 q 77 170 126 85 q 28 360 28 256 q 77 550 28 464 q 214 688 126 636 q 413 739 301 739 q 612 688 525 739 q 748 550 699 636 q 797 360 797 464 q 748 170 797 256 q 612 33 699 85 q 413 -18 525 -18 m 413 153 q 517 181 472 153 q 585 257 561 210 q 610 360 610 304 q 585 464 610 417 q 517 540 561 511 q 413 568 472 568 q 308 540 353 568 q 240 464 264 511 q 215 360 215 417 q 240 257 215 304 q 308 181 264 210 q 413 153 353 153 m 201 831 l 201 956 l 626 956 l 626 831 l 201 831 z "},"ø":{"ha":825,"x_min":28,"x_max":797,"o":"m 413 -18 q 214 33 301 -18 q 77 170 126 85 q 28 360 28 256 q 77 550 28 464 q 214 688 126 636 q 413 739 301 739 q 612 688 525 739 q 748 550 699 636 q 797 360 797 464 q 748 170 797 256 q 612 33 699 85 q 413 -18 525 -18 m 413 153 q 517 181 472 153 q 585 257 561 210 q 610 360 610 304 q 585 464 610 417 q 517 540 561 511 q 413 568 472 568 q 308 540 353 568 q 240 464 264 511 q 215 360 215 417 q 240 257 215 304 q 308 181 264 210 q 413 153 353 153 m 35 -54 l 678 779 l 774 779 l 131 -54 l 35 -54 z "},"õ":{"ha":825,"x_min":28,"x_max":797,"o":"m 413 -18 q 214 33 301 -18 q 77 170 126 85 q 28 360 28 256 q 77 550 28 464 q 214 688 126 636 q 413 739 301 739 q 612 688 525 739 q 748 550 699 636 q 797 360 797 464 q 748 170 797 256 q 612 33 699 85 q 413 -18 525 -18 m 413 153 q 517 181 472 153 q 585 257 561 210 q 610 360 610 304 q 585 464 610 417 q 517 540 561 511 q 413 568 472 568 q 308 540 353 568 q 240 464 264 511 q 215 360 215 417 q 240 257 215 304 q 308 181 264 210 q 413 153 353 153 m 525 774 q 455 787 483 774 q 406 818 426 800 q 364 849 385 836 q 315 863 343 863 q 265 839 278 863 q 251 793 251 815 l 132 793 q 159 901 132 858 q 228 966 186 944 q 317 988 271 988 q 388 974 358 988 q 441 944 418 961 q 483 915 464 928 q 524 901 503 901 q 564 927 556 901 q 572 972 572 953 l 693 972 q 651 828 693 883 q 525 774 610 774 z "},"œ":{"ha":1363,"x_min":28,"x_max":1336,"o":"m 413 -18 q 214 33 301 -18 q 77 170 126 85 q 28 360 28 256 q 77 550 28 464 q 214 688 126 636 q 413 739 301 739 q 581 694 510 739 q 696 576 653 650 q 806 695 736 650 q 969 740 876 740 q 1160 689 1078 740 q 1290 551 1243 638 q 1336 360 1336 464 q 1335 328 1336 344 q 1331 293 1333 311 l 790 293 q 852 189 806 229 q 969 149 899 149 q 1076 176 1031 149 q 1146 246 1121 204 l 1292 136 q 1163 25 1249 68 q 969 -18 1076 -18 q 804 26 874 -18 q 694 142 735 69 q 581 26 653 69 q 413 -18 508 -18 m 967 579 q 854 539 900 579 q 792 433 808 499 l 1147 433 q 1084 536 1132 493 q 967 579 1036 579 m 413 153 q 517 181 472 153 q 585 257 561 210 q 610 360 610 304 q 585 464 610 417 q 517 540 561 511 q 413 568 472 568 q 308 540 353 568 q 240 464 264 511 q 215 360 215 417 q 240 257 215 304 q 308 181 264 210 q 413 153 353 153 z "},"p":{"ha":856,"x_min":56,"x_max":828,"o":"m 56 -278 l 56 722 l 240 722 l 240 606 q 323 701 269 665 q 471 738 376 738 q 610 708 546 738 q 724 626 675 678 q 800 505 772 574 q 828 358 828 436 q 780 169 828 254 q 651 33 732 83 q 471 -18 571 -18 q 325 16 378 -18 q 243 107 272 50 l 243 -278 l 56 -278 m 440 151 q 545 181 500 151 q 615 258 590 210 q 640 360 640 306 q 615 464 640 417 q 545 540 590 511 q 440 568 500 568 q 333 539 379 568 q 263 463 288 510 q 238 358 238 415 q 263 256 238 303 q 333 180 288 208 q 440 151 379 151 z "},"þ":{"ha":856,"x_min":56,"x_max":828,"o":"m 56 -278 l 56 1014 l 243 1014 l 243 611 q 325 703 272 668 q 471 738 378 738 q 610 708 546 738 q 724 626 675 678 q 800 505 772 574 q 828 358 828 436 q 780 169 828 254 q 651 33 732 83 q 471 -18 571 -18 q 325 16 378 -18 q 243 107 272 50 l 243 -278 l 56 -278 m 440 151 q 545 181 500 151 q 615 258 590 210 q 640 360 640 306 q 615 464 640 417 q 545 540 590 511 q 440 568 500 568 q 333 539 379 568 q 263 463 288 510 q 238 358 238 415 q 263 256 238 303 q 333 180 288 208 q 440 151 379 151 z "},"q":{"ha":856,"x_min":28,"x_max":800,"o":"m 613 -278 l 613 107 q 531 16 583 50 q 385 -18 478 -18 q 205 33 286 -18 q 76 169 124 83 q 28 358 28 254 q 56 505 28 436 q 132 626 83 574 q 245 708 181 678 q 385 738 310 738 q 533 701 479 738 q 615 606 586 665 l 615 722 l 800 722 l 800 -278 l 613 -278 m 415 151 q 523 180 478 151 q 593 256 568 208 q 618 358 618 303 q 593 463 618 415 q 523 539 568 510 q 415 568 478 568 q 310 540 356 568 q 240 464 265 511 q 215 360 215 417 q 240 258 215 306 q 310 181 265 210 q 415 151 356 151 z "},"r":{"ha":468,"x_min":56,"x_max":461,"o":"m 56 0 l 56 722 l 238 722 l 238 585 q 311 703 256 663 q 461 739 367 744 l 461 563 l 435 563 q 299 511 354 563 q 243 369 243 460 l 243 0 l 56 0 z "},"ŕ":{"ha":468,"x_min":56,"x_max":472,"o":"m 56 0 l 56 722 l 238 722 l 238 585 q 311 703 256 663 q 461 739 367 744 l 461 563 l 435 563 q 299 511 354 563 q 243 369 243 460 l 243 0 l 56 0 m 219 786 l 281 1028 l 472 1028 l 350 786 l 219 786 z "},"ř":{"ha":468,"x_min":56,"x_max":500,"o":"m 56 0 l 56 722 l 238 722 l 238 585 q 311 703 256 663 q 461 739 367 744 l 461 563 l 435 563 q 299 511 354 563 q 243 369 243 460 l 243 0 l 56 0 m 72 1028 l 238 1028 l 288 917 l 338 1028 l 500 1028 l 364 786 l 213 786 l 72 1028 z "},"ŗ":{"ha":468,"x_min":4,"x_max":461,"o":"m 56 0 l 56 722 l 238 722 l 238 585 q 311 703 256 663 q 461 739 367 744 l 461 563 l 435 563 q 299 511 354 563 q 243 369 243 460 l 243 0 l 56 0 m 4 -278 l 51 -62 l 243 -62 l 107 -278 l 4 -278 z "},"ṝ":{"ha":468,"x_min":35,"x_max":501,"o":"m 56 0 l 56 722 l 238 722 l 238 585 q 311 703 256 663 q 461 739 367 744 l 461 563 l 435 563 q 299 511 354 563 q 243 369 243 460 l 243 0 l 56 0 m 147 -296 q 67 -263 100 -296 q 35 -185 35 -231 q 67 -108 35 -140 q 147 -75 100 -75 q 228 -108 196 -75 q 260 -185 260 -140 q 228 -264 260 -232 q 147 -296 196 -296 m 76 831 l 76 956 l 501 956 l 501 831 l 76 831 z "},"ṟ":{"ha":468,"x_min":-65,"x_max":461,"o":"m 56 0 l 56 722 l 238 722 l 238 585 q 311 703 256 663 q 461 739 367 744 l 461 563 l 435 563 q 299 511 354 563 q 243 369 243 460 l 243 0 l 56 0 m -65 -251 l -65 -126 l 360 -126 l 360 -251 l -65 -251 z "},"s":{"ha":601,"x_min":3,"x_max":583,"o":"m 303 -18 q 3 108 121 -18 l 129 224 q 299 135 208 135 q 373 156 347 135 q 399 210 399 178 q 390 243 399 229 q 352 269 381 257 q 267 294 324 282 q 122 353 169 318 q 60 431 75 388 q 44 519 44 474 q 116 677 44 614 q 314 740 188 740 q 464 714 401 740 q 582 615 526 688 l 446 511 q 387 571 419 553 q 318 589 354 589 q 253 574 279 589 q 228 525 228 558 q 244 490 228 507 q 325 456 261 472 q 486 394 431 429 q 563 314 542 358 q 583 215 583 269 q 547 96 583 149 q 447 13 510 43 q 303 -18 383 -18 z "},"ś":{"ha":601,"x_min":3,"x_max":583,"o":"m 303 -18 q 3 108 121 -18 l 129 224 q 299 135 208 135 q 373 156 347 135 q 399 210 399 178 q 390 243 399 229 q 352 269 381 257 q 267 294 324 282 q 122 353 169 318 q 60 431 75 388 q 44 519 44 474 q 116 677 44 614 q 314 740 188 740 q 464 714 401 740 q 582 615 526 688 l 446 511 q 387 571 419 553 q 318 589 354 589 q 253 574 279 589 q 228 525 228 558 q 244 490 228 507 q 325 456 261 472 q 486 394 431 429 q 563 314 542 358 q 583 215 583 269 q 547 96 583 149 q 447 13 510 43 q 303 -18 383 -18 m 246 786 l 307 1028 l 499 1028 l 376 786 l 246 786 z "},"š":{"ha":601,"x_min":3,"x_max":583,"o":"m 303 -18 q 3 108 121 -18 l 129 224 q 299 135 208 135 q 373 156 347 135 q 399 210 399 178 q 390 243 399 229 q 352 269 381 257 q 267 294 324 282 q 122 353 169 318 q 60 431 75 388 q 44 519 44 474 q 116 677 44 614 q 314 740 188 740 q 464 714 401 740 q 582 615 526 688 l 446 511 q 387 571 419 553 q 318 589 354 589 q 253 574 279 589 q 228 525 228 558 q 244 490 228 507 q 325 456 261 472 q 486 394 431 429 q 563 314 542 358 q 583 215 583 269 q 547 96 583 149 q 447 13 510 43 q 303 -18 383 -18 m 99 1028 l 264 1028 l 314 917 l 364 1028 l 526 1028 l 390 786 l 239 786 l 99 1028 z "},"ş":{"ha":601,"x_min":3,"x_max":583,"o":"m 303 -18 q 3 108 121 -18 l 129 224 q 299 135 208 135 q 373 156 347 135 q 399 210 399 178 q 390 243 399 229 q 352 269 381 257 q 267 294 324 282 q 122 353 169 318 q 60 431 75 388 q 44 519 44 474 q 116 677 44 614 q 314 740 188 740 q 464 714 401 740 q 582 615 526 688 l 446 511 q 387 571 419 553 q 318 589 354 589 q 253 574 279 589 q 228 525 228 558 q 244 490 228 507 q 325 456 261 472 q 486 394 431 429 q 563 314 542 358 q 583 215 583 269 q 547 96 583 149 q 447 13 510 43 q 303 -18 383 -18 m 275 -296 q 210 -288 236 -296 q 144 -251 185 -281 l 208 -171 q 233 -187 219 -181 q 263 -194 247 -194 q 292 -186 278 -194 q 306 -156 306 -178 q 294 -132 306 -140 q 271 -124 283 -124 q 240 -128 253 -124 l 235 -124 l 293 8 l 376 14 l 342 -60 q 397 -101 379 -71 q 415 -167 415 -132 q 372 -264 415 -232 q 275 -296 328 -296 z "},"ŝ":{"ha":601,"x_min":3,"x_max":583,"o":"m 303 -18 q 3 108 121 -18 l 129 224 q 299 135 208 135 q 373 156 347 135 q 399 210 399 178 q 390 243 399 229 q 352 269 381 257 q 267 294 324 282 q 122 353 169 318 q 60 431 75 388 q 44 519 44 474 q 116 677 44 614 q 314 740 188 740 q 464 714 401 740 q 582 615 526 688 l 446 511 q 387 571 419 553 q 318 589 354 589 q 253 574 279 589 q 228 525 228 558 q 244 490 228 507 q 325 456 261 472 q 486 394 431 429 q 563 314 542 358 q 583 215 583 269 q 547 96 583 149 q 447 13 510 43 q 303 -18 383 -18 m 99 786 l 239 1028 l 390 1028 l 526 786 l 364 786 l 314 897 l 264 786 l 99 786 z "},"ș":{"ha":601,"x_min":3,"x_max":583,"o":"m 303 -18 q 3 108 121 -18 l 129 224 q 299 135 208 135 q 373 156 347 135 q 399 210 399 178 q 390 243 399 229 q 352 269 381 257 q 267 294 324 282 q 122 353 169 318 q 60 431 75 388 q 44 519 44 474 q 116 677 44 614 q 314 740 188 740 q 464 714 401 740 q 582 615 526 688 l 446 511 q 387 571 419 553 q 318 589 354 589 q 253 574 279 589 q 228 525 228 558 q 244 490 228 507 q 325 456 261 472 q 486 394 431 429 q 563 314 542 358 q 583 215 583 269 q 547 96 583 149 q 447 13 510 43 q 303 -18 383 -18 m 160 -278 l 207 -62 l 399 -62 l 263 -278 l 160 -278 z "},"ṣ":{"ha":601,"x_min":3,"x_max":583,"o":"m 303 -18 q 3 108 121 -18 l 129 224 q 299 135 208 135 q 373 156 347 135 q 399 210 399 178 q 390 243 399 229 q 352 269 381 257 q 267 294 324 282 q 122 353 169 318 q 60 431 75 388 q 44 519 44 474 q 116 677 44 614 q 314 740 188 740 q 464 714 401 740 q 582 615 526 688 l 446 511 q 387 571 419 553 q 318 589 354 589 q 253 574 279 589 q 228 525 228 558 q 244 490 228 507 q 325 456 261 472 q 486 394 431 429 q 563 314 542 358 q 583 215 583 269 q 547 96 583 149 q 447 13 510 43 q 303 -18 383 -18 m 303 -296 q 223 -263 256 -296 q 190 -185 190 -231 q 223 -108 190 -140 q 303 -75 256 -75 q 383 -108 351 -75 q 415 -185 415 -140 q 383 -264 415 -232 q 303 -296 351 -296 z "},"ß":{"ha":789,"x_min":49,"x_max":761,"o":"m 440 -18 q 338 -8 381 -18 q 263 19 294 1 l 333 181 q 378 159 353 168 q 435 150 404 150 q 499 165 467 150 q 553 214 532 181 q 575 299 575 247 q 551 385 575 344 q 476 447 528 425 q 336 454 424 468 l 336 604 q 444 635 399 604 q 490 742 490 665 q 456 826 490 792 q 367 861 421 861 q 274 824 311 861 q 236 714 236 788 l 236 0 l 49 0 l 49 714 q 88 874 49 803 q 201 989 128 946 q 372 1032 274 1032 q 533 994 465 1032 q 639 894 601 956 q 676 763 676 832 q 654 659 676 715 q 572 561 632 603 q 681 491 639 535 q 742 396 724 447 q 761 294 761 344 q 724 145 761 217 q 616 28 688 74 q 440 -18 544 -18 z "},"t":{"ha":456,"x_min":7,"x_max":449,"o":"m 329 0 q 165 53 222 0 q 108 224 108 106 l 108 563 l 7 563 l 7 722 l 108 722 l 108 868 l 296 888 l 296 722 l 449 722 l 449 563 l 296 563 l 296 233 q 354 167 296 167 l 432 167 l 432 0 l 329 0 z "},"ť":{"ha":469,"x_min":7,"x_max":606,"o":"m 339 758 l 408 1014 l 606 1014 l 469 758 l 339 758 m 329 0 q 165 53 222 0 q 108 224 108 106 l 108 563 l 7 563 l 7 722 l 108 722 l 108 868 l 296 888 l 296 722 l 449 722 l 449 563 l 296 563 l 296 233 q 354 167 296 167 l 432 167 l 432 0 l 329 0 z "},"ţ":{"ha":456,"x_min":7,"x_max":449,"o":"m 329 0 q 165 53 222 0 q 108 224 108 106 l 108 563 l 7 563 l 7 722 l 108 722 l 108 868 l 296 888 l 296 722 l 449 722 l 449 563 l 296 563 l 296 233 q 354 167 296 167 l 432 167 l 432 0 l 329 0 m 246 -296 q 181 -288 207 -296 q 115 -251 156 -281 l 179 -171 q 204 -187 190 -181 q 233 -194 218 -194 q 263 -186 249 -194 q 276 -156 276 -178 q 265 -132 276 -140 q 242 -124 254 -124 q 211 -128 224 -124 l 206 -124 l 264 8 l 347 14 l 313 -60 q 368 -101 350 -71 q 386 -167 386 -132 q 342 -264 386 -232 q 246 -296 299 -296 z "},"ț":{"ha":456,"x_min":7,"x_max":449,"o":"m 329 0 q 165 53 222 0 q 108 224 108 106 l 108 563 l 7 563 l 7 722 l 108 722 l 108 868 l 296 888 l 296 722 l 449 722 l 449 563 l 296 563 l 296 233 q 354 167 296 167 l 432 167 l 432 0 l 329 0 m 131 -278 l 178 -62 l 369 -62 l 233 -278 l 131 -278 z "},"ṭ":{"ha":456,"x_min":7,"x_max":449,"o":"m 329 0 q 165 53 222 0 q 108 224 108 106 l 108 563 l 7 563 l 7 722 l 108 722 l 108 868 l 296 888 l 296 722 l 449 722 l 449 563 l 296 563 l 296 233 q 354 167 296 167 l 432 167 l 432 0 l 329 0 m 274 -296 q 194 -263 226 -296 q 161 -185 161 -231 q 194 -108 161 -140 q 274 -75 226 -75 q 354 -108 322 -75 q 386 -185 386 -140 q 354 -264 386 -232 q 274 -296 322 -296 z "},"ṯ":{"ha":456,"x_min":7,"x_max":486,"o":"m 329 0 q 165 53 222 0 q 108 224 108 106 l 108 563 l 7 563 l 7 722 l 108 722 l 108 868 l 296 888 l 296 722 l 449 722 l 449 563 l 296 563 l 296 233 q 354 167 296 167 l 432 167 l 432 0 l 329 0 m 61 -251 l 61 -126 l 486 -126 l 486 -251 l 61 -251 z "},"u":{"ha":774,"x_min":49,"x_max":718,"o":"m 324 -17 q 183 19 246 -17 q 85 123 121 56 q 49 281 49 190 l 49 722 l 236 722 l 236 326 q 274 190 236 233 q 381 147 311 147 q 485 190 440 147 q 531 326 531 233 l 531 722 l 718 722 l 718 0 l 536 0 l 536 108 q 459 15 510 46 q 324 -17 408 -17 z "},"ú":{"ha":774,"x_min":49,"x_max":718,"o":"m 324 -17 q 183 19 246 -17 q 85 123 121 56 q 49 281 49 190 l 49 722 l 236 722 l 236 326 q 274 190 236 233 q 381 147 311 147 q 485 190 440 147 q 531 326 531 233 l 531 722 l 718 722 l 718 0 l 536 0 l 536 108 q 459 15 510 46 q 324 -17 408 -17 m 311 786 l 372 1028 l 564 1028 l 442 786 l 311 786 z "},"ŭ":{"ha":774,"x_min":49,"x_max":718,"o":"m 324 -17 q 183 19 246 -17 q 85 123 121 56 q 49 281 49 190 l 49 722 l 236 722 l 236 326 q 274 190 236 233 q 381 147 311 147 q 485 190 440 147 q 531 326 531 233 l 531 722 l 718 722 l 718 0 l 536 0 l 536 108 q 459 15 510 46 q 324 -17 408 -17 m 379 774 q 217 828 278 774 q 157 967 157 882 l 306 967 q 323 913 304 938 q 379 889 342 889 q 437 913 419 889 q 453 967 454 938 l 601 967 q 542 828 601 882 q 379 774 482 774 z "},"û":{"ha":774,"x_min":49,"x_max":718,"o":"m 324 -17 q 183 19 246 -17 q 85 123 121 56 q 49 281 49 190 l 49 722 l 236 722 l 236 326 q 274 190 236 233 q 381 147 311 147 q 485 190 440 147 q 531 326 531 233 l 531 722 l 718 722 l 718 0 l 536 0 l 536 108 q 459 15 510 46 q 324 -17 408 -17 m 164 786 l 304 1028 l 456 1028 l 592 786 l 429 786 l 379 897 l 329 786 l 164 786 z "},"ü":{"ha":774,"x_min":49,"x_max":718,"o":"m 324 -17 q 183 19 246 -17 q 85 123 121 56 q 49 281 49 190 l 49 722 l 236 722 l 236 326 q 274 190 236 233 q 381 147 311 147 q 485 190 440 147 q 531 326 531 233 l 531 722 l 718 722 l 718 0 l 536 0 l 536 108 q 459 15 510 46 q 324 -17 408 -17 m 526 782 q 447 815 479 782 q 414 893 414 847 q 447 970 414 938 q 526 1003 479 1003 q 607 970 575 1003 q 639 893 639 938 q 607 814 639 846 q 526 782 575 782 m 232 782 q 152 815 185 782 q 119 893 119 847 q 152 970 119 938 q 232 1003 185 1003 q 313 970 281 1003 q 344 893 344 938 q 313 814 344 846 q 232 782 281 782 z "},"ụ":{"ha":774,"x_min":49,"x_max":718,"o":"m 324 -17 q 183 19 246 -17 q 85 123 121 56 q 49 281 49 190 l 49 722 l 236 722 l 236 326 q 274 190 236 233 q 381 147 311 147 q 485 190 440 147 q 531 326 531 233 l 531 722 l 718 722 l 718 0 l 536 0 l 536 108 q 459 15 510 46 q 324 -17 408 -17 m 381 -296 q 301 -263 333 -296 q 268 -185 268 -231 q 301 -108 268 -140 q 381 -75 333 -75 q 461 -108 429 -75 q 493 -185 493 -140 q 461 -264 493 -232 q 381 -296 429 -296 z "},"ù":{"ha":774,"x_min":49,"x_max":718,"o":"m 324 -17 q 183 19 246 -17 q 85 123 121 56 q 49 281 49 190 l 49 722 l 236 722 l 236 326 q 274 190 236 233 q 381 147 311 147 q 485 190 440 147 q 531 326 531 233 l 531 722 l 718 722 l 718 0 l 536 0 l 536 108 q 459 15 510 46 q 324 -17 408 -17 m 319 786 l 182 1028 l 403 1028 l 450 786 l 319 786 z "},"ủ":{"ha":774,"x_min":49,"x_max":718,"o":"m 324 -17 q 183 19 246 -17 q 85 123 121 56 q 49 281 49 190 l 49 722 l 236 722 l 236 326 q 274 190 236 233 q 381 147 311 147 q 485 190 440 147 q 531 326 531 233 l 531 722 l 718 722 l 718 0 l 536 0 l 536 108 q 459 15 510 46 q 324 -17 408 -17 m 376 774 q 299 792 338 774 l 331 885 q 347 879 338 881 q 363 878 357 878 q 410 919 410 878 q 398 946 410 935 q 371 957 386 957 q 342 946 353 957 q 331 915 331 935 l 214 915 q 260 1024 214 982 q 372 1065 306 1065 q 485 1027 440 1065 q 531 924 531 989 q 489 815 531 856 q 376 774 447 774 z "},"ư":{"ha":797,"x_min":49,"x_max":853,"o":"m 324 -17 q 183 19 246 -17 q 85 123 121 56 q 49 281 49 190 l 49 722 l 236 722 l 236 326 q 274 190 236 233 q 381 147 311 147 q 485 190 440 147 q 531 326 531 233 l 531 722 l 718 722 l 718 0 l 536 0 l 536 108 q 459 15 510 46 q 324 -17 408 -17 m 576 600 l 565 722 l 583 722 q 669 746 644 722 q 694 846 694 769 l 694 890 l 853 890 l 853 835 q 786 659 853 718 q 576 600 719 600 z "},"ứ":{"ha":797,"x_min":49,"x_max":853,"o":"m 324 -17 q 183 19 246 -17 q 85 123 121 56 q 49 281 49 190 l 49 722 l 236 722 l 236 326 q 274 190 236 233 q 381 147 311 147 q 485 190 440 147 q 531 326 531 233 l 531 722 l 718 722 l 718 0 l 536 0 l 536 108 q 459 15 510 46 q 324 -17 408 -17 m 576 600 l 565 722 l 583 722 q 669 746 644 722 q 694 846 694 769 l 694 890 l 853 890 l 853 835 q 786 659 853 718 q 576 600 719 600 m 311 786 l 372 1028 l 564 1028 l 442 786 l 311 786 z "},"ự":{"ha":797,"x_min":49,"x_max":853,"o":"m 324 -17 q 183 19 246 -17 q 85 123 121 56 q 49 281 49 190 l 49 722 l 236 722 l 236 326 q 274 190 236 233 q 381 147 311 147 q 485 190 440 147 q 531 326 531 233 l 531 722 l 718 722 l 718 0 l 536 0 l 536 108 q 459 15 510 46 q 324 -17 408 -17 m 576 600 l 565 722 l 583 722 q 669 746 644 722 q 694 846 694 769 l 694 890 l 853 890 l 853 835 q 786 659 853 718 q 576 600 719 600 m 381 -296 q 301 -263 333 -296 q 268 -185 268 -231 q 301 -108 268 -140 q 381 -75 333 -75 q 461 -108 429 -75 q 493 -185 493 -140 q 461 -264 493 -232 q 381 -296 429 -296 z "},"ừ":{"ha":797,"x_min":49,"x_max":853,"o":"m 324 -17 q 183 19 246 -17 q 85 123 121 56 q 49 281 49 190 l 49 722 l 236 722 l 236 326 q 274 190 236 233 q 381 147 311 147 q 485 190 440 147 q 531 326 531 233 l 531 722 l 718 722 l 718 0 l 536 0 l 536 108 q 459 15 510 46 q 324 -17 408 -17 m 576 600 l 565 722 l 583 722 q 669 746 644 722 q 694 846 694 769 l 694 890 l 853 890 l 853 835 q 786 659 853 718 q 576 600 719 600 m 319 786 l 182 1028 l 403 1028 l 450 786 l 319 786 z "},"ử":{"ha":797,"x_min":49,"x_max":853,"o":"m 324 -17 q 183 19 246 -17 q 85 123 121 56 q 49 281 49 190 l 49 722 l 236 722 l 236 326 q 274 190 236 233 q 381 147 311 147 q 485 190 440 147 q 531 326 531 233 l 531 722 l 718 722 l 718 0 l 536 0 l 536 108 q 459 15 510 46 q 324 -17 408 -17 m 576 600 l 565 722 l 583 722 q 669 746 644 722 q 694 846 694 769 l 694 890 l 853 890 l 853 835 q 786 659 853 718 q 576 600 719 600 m 376 774 q 299 792 338 774 l 331 885 q 347 879 338 881 q 363 878 357 878 q 410 919 410 878 q 398 946 410 935 q 371 957 386 957 q 342 946 353 957 q 331 915 331 935 l 214 915 q 260 1024 214 982 q 372 1065 306 1065 q 485 1027 440 1065 q 531 924 531 989 q 489 815 531 856 q 376 774 447 774 z "},"ữ":{"ha":797,"x_min":49,"x_max":853,"o":"m 324 -17 q 183 19 246 -17 q 85 123 121 56 q 49 281 49 190 l 49 722 l 236 722 l 236 326 q 274 190 236 233 q 381 147 311 147 q 485 190 440 147 q 531 326 531 233 l 531 722 l 718 722 l 718 0 l 536 0 l 536 108 q 459 15 510 46 q 324 -17 408 -17 m 576 600 l 565 722 l 583 722 q 669 746 644 722 q 694 846 694 769 l 694 890 l 853 890 l 853 835 q 786 659 853 718 q 576 600 719 600 m 492 774 q 422 787 450 774 q 372 818 393 800 q 331 849 351 836 q 282 863 310 863 q 231 839 244 863 q 218 793 218 815 l 99 793 q 126 901 99 858 q 195 966 153 944 q 283 988 238 988 q 355 974 325 988 q 408 944 385 961 q 450 915 431 928 q 490 901 469 901 q 531 927 522 901 q 539 972 539 953 l 660 972 q 618 828 660 883 q 492 774 576 774 z "},"ű":{"ha":774,"x_min":49,"x_max":718,"o":"m 324 -17 q 183 19 246 -17 q 85 123 121 56 q 49 281 49 190 l 49 722 l 236 722 l 236 326 q 274 190 236 233 q 381 147 311 147 q 485 190 440 147 q 531 326 531 233 l 531 722 l 718 722 l 718 0 l 536 0 l 536 108 q 459 15 510 46 q 324 -17 408 -17 m 433 786 l 478 1028 l 663 1028 l 529 786 l 433 786 m 204 786 l 249 1028 l 433 1028 l 300 786 l 204 786 z "},"ū":{"ha":774,"x_min":49,"x_max":718,"o":"m 324 -17 q 183 19 246 -17 q 85 123 121 56 q 49 281 49 190 l 49 722 l 236 722 l 236 326 q 274 190 236 233 q 381 147 311 147 q 485 190 440 147 q 531 326 531 233 l 531 722 l 718 722 l 718 0 l 536 0 l 536 108 q 459 15 510 46 q 324 -17 408 -17 m 168 831 l 168 956 l 593 956 l 593 831 l 168 831 z "},"ų":{"ha":774,"x_min":49,"x_max":718,"o":"m 324 -17 q 183 19 246 -17 q 85 123 121 56 q 49 281 49 190 l 49 722 l 236 722 l 236 326 q 274 190 236 233 q 381 147 311 147 q 485 190 440 147 q 531 326 531 233 l 531 722 l 718 722 l 718 0 l 536 0 l 536 108 q 459 15 510 46 q 324 -17 408 -17 m 604 -296 q 481 -256 525 -296 q 438 -153 438 -217 q 459 -74 438 -108 q 536 0 481 -40 l 568 24 l 678 0 l 607 -51 q 576 -83 585 -67 q 568 -115 568 -99 q 590 -153 568 -142 q 639 -165 613 -165 q 660 -163 651 -165 q 675 -160 668 -161 l 708 -281 q 653 -292 679 -289 q 604 -296 628 -296 z "},"ů":{"ha":774,"x_min":49,"x_max":718,"o":"m 324 -17 q 183 19 246 -17 q 85 123 121 56 q 49 281 49 190 l 49 722 l 236 722 l 236 326 q 274 190 236 233 q 381 147 311 147 q 485 190 440 147 q 531 326 531 233 l 531 722 l 718 722 l 718 0 l 536 0 l 536 108 q 459 15 510 46 q 324 -17 408 -17 m 379 774 q 275 817 319 774 q 231 919 231 860 q 275 1023 231 981 q 379 1065 319 1065 q 484 1023 440 1065 q 528 919 528 981 q 484 817 528 860 q 379 774 440 774 m 379 867 q 415 883 400 867 q 429 919 429 899 q 415 956 429 940 q 379 971 400 971 q 342 956 358 971 q 326 919 326 940 q 342 883 326 899 q 379 867 358 867 z "},"ũ":{"ha":774,"x_min":49,"x_max":718,"o":"m 324 -17 q 183 19 246 -17 q 85 123 121 56 q 49 281 49 190 l 49 722 l 236 722 l 236 326 q 274 190 236 233 q 381 147 311 147 q 485 190 440 147 q 531 326 531 233 l 531 722 l 718 722 l 718 0 l 536 0 l 536 108 q 459 15 510 46 q 324 -17 408 -17 m 492 774 q 422 787 450 774 q 372 818 393 800 q 331 849 351 836 q 282 863 310 863 q 231 839 244 863 q 218 793 218 815 l 99 793 q 126 901 99 858 q 195 966 153 944 q 283 988 238 988 q 355 974 325 988 q 408 944 385 961 q 450 915 431 928 q 490 901 469 901 q 531 927 522 901 q 539 972 539 953 l 660 972 q 618 828 660 883 q 492 774 576 774 z "},"v":{"ha":749,"x_min":-21,"x_max":769,"o":"m 281 0 l -21 722 l 201 722 l 346 310 q 376 194 365 254 q 407 310 388 254 l 551 722 l 769 722 l 469 0 l 281 0 z "},"w":{"ha":1106,"x_min":-18,"x_max":1124,"o":"m 207 0 l -18 722 l 201 722 l 294 313 q 306 258 300 286 q 317 203 313 229 q 340 314 325 258 l 446 722 l 661 722 l 774 314 q 797 203 789 258 q 808 258 801 229 q 819 313 814 286 l 919 722 l 1124 722 l 899 0 l 696 0 l 578 411 q 553 519 561 465 q 543 465 549 493 q 531 411 538 438 l 422 0 l 207 0 z "},"ẃ":{"ha":1106,"x_min":-18,"x_max":1124,"o":"m 207 0 l -18 722 l 201 722 l 294 313 q 306 258 300 286 q 317 203 313 229 q 340 314 325 258 l 446 722 l 661 722 l 774 314 q 797 203 789 258 q 808 258 801 229 q 819 313 814 286 l 919 722 l 1124 722 l 899 0 l 696 0 l 578 411 q 553 519 561 465 q 543 465 549 493 q 531 411 538 438 l 422 0 l 207 0 m 485 786 l 546 1028 l 738 1028 l 615 786 l 485 786 z "},"ŵ":{"ha":1106,"x_min":-18,"x_max":1124,"o":"m 207 0 l -18 722 l 201 722 l 294 313 q 306 258 300 286 q 317 203 313 229 q 340 314 325 258 l 446 722 l 661 722 l 774 314 q 797 203 789 258 q 808 258 801 229 q 819 313 814 286 l 919 722 l 1124 722 l 899 0 l 696 0 l 578 411 q 553 519 561 465 q 543 465 549 493 q 531 411 538 438 l 422 0 l 207 0 m 338 786 l 478 1028 l 629 1028 l 765 786 l 603 786 l 553 897 l 503 786 l 338 786 z "},"ẅ":{"ha":1106,"x_min":-18,"x_max":1124,"o":"m 207 0 l -18 722 l 201 722 l 294 313 q 306 258 300 286 q 317 203 313 229 q 340 314 325 258 l 446 722 l 661 722 l 774 314 q 797 203 789 258 q 808 258 801 229 q 819 313 814 286 l 919 722 l 1124 722 l 899 0 l 696 0 l 578 411 q 553 519 561 465 q 543 465 549 493 q 531 411 538 438 l 422 0 l 207 0 m 700 782 q 620 815 653 782 q 588 893 588 847 q 620 970 588 938 q 700 1003 653 1003 q 781 970 749 1003 q 813 893 813 938 q 781 814 813 846 q 700 782 749 782 m 406 782 q 326 815 358 782 q 293 893 293 847 q 326 970 293 938 q 406 1003 358 1003 q 486 970 454 1003 q 518 893 518 938 q 486 814 518 846 q 406 782 454 782 z "},"ẁ":{"ha":1106,"x_min":-18,"x_max":1124,"o":"m 207 0 l -18 722 l 201 722 l 294 313 q 306 258 300 286 q 317 203 313 229 q 340 314 325 258 l 446 722 l 661 722 l 774 314 q 797 203 789 258 q 808 258 801 229 q 819 313 814 286 l 919 722 l 1124 722 l 899 0 l 696 0 l 578 411 q 553 519 561 465 q 543 465 549 493 q 531 411 538 438 l 422 0 l 207 0 m 493 786 l 356 1028 l 576 1028 l 624 786 l 493 786 z "},"x":{"ha":743,"x_min":-14,"x_max":757,"o":"m -14 0 l 257 361 l 0 722 l 224 722 l 371 493 l 524 722 l 743 722 l 486 358 l 757 0 l 529 0 l 372 231 l 210 0 l -14 0 z "},"y":{"ha":749,"x_min":-21,"x_max":769,"o":"m 129 -290 q 67 -287 101 -290 q 4 -276 32 -285 l 32 -97 q 117 -107 71 -107 q 206 -76 171 -107 q 256 3 240 -44 l 265 33 l -21 722 l 206 722 l 346 310 q 376 194 365 254 q 407 310 388 254 l 547 722 l 769 722 l 450 -46 q 331 -223 404 -156 q 129 -290 257 -290 z "},"ý":{"ha":749,"x_min":-21,"x_max":769,"o":"m 129 -290 q 67 -287 101 -290 q 4 -276 32 -285 l 32 -97 q 117 -107 71 -107 q 206 -76 171 -107 q 256 3 240 -44 l 265 33 l -21 722 l 206 722 l 346 310 q 376 194 365 254 q 407 310 388 254 l 547 722 l 769 722 l 450 -46 q 331 -223 404 -156 q 129 -290 257 -290 m 303 786 l 364 1028 l 556 1028 l 433 786 l 303 786 z "},"ŷ":{"ha":749,"x_min":-21,"x_max":769,"o":"m 129 -290 q 67 -287 101 -290 q 4 -276 32 -285 l 32 -97 q 117 -107 71 -107 q 206 -76 171 -107 q 256 3 240 -44 l 265 33 l -21 722 l 206 722 l 346 310 q 376 194 365 254 q 407 310 388 254 l 547 722 l 769 722 l 450 -46 q 331 -223 404 -156 q 129 -290 257 -290 m 156 786 l 296 1028 l 447 1028 l 583 786 l 421 786 l 371 897 l 321 786 l 156 786 z "},"ÿ":{"ha":749,"x_min":-21,"x_max":769,"o":"m 129 -290 q 67 -287 101 -290 q 4 -276 32 -285 l 32 -97 q 117 -107 71 -107 q 206 -76 171 -107 q 256 3 240 -44 l 265 33 l -21 722 l 206 722 l 346 310 q 376 194 365 254 q 407 310 388 254 l 547 722 l 769 722 l 450 -46 q 331 -223 404 -156 q 129 -290 257 -290 m 518 782 q 438 815 471 782 q 406 893 406 847 q 438 970 406 938 q 518 1003 471 1003 q 599 970 567 1003 q 631 893 631 938 q 599 814 631 846 q 518 782 567 782 m 224 782 q 144 815 176 782 q 111 893 111 847 q 144 970 111 938 q 224 1003 176 1003 q 304 970 272 1003 q 336 893 336 938 q 304 814 336 846 q 224 782 272 782 z "},"ẏ":{"ha":749,"x_min":-21,"x_max":769,"o":"m 129 -290 q 67 -287 101 -290 q 4 -276 32 -285 l 32 -97 q 117 -107 71 -107 q 206 -76 171 -107 q 256 3 240 -44 l 265 33 l -21 722 l 206 722 l 346 310 q 376 194 365 254 q 407 310 388 254 l 547 722 l 769 722 l 450 -46 q 331 -223 404 -156 q 129 -290 257 -290 m 371 782 q 291 815 324 782 q 258 893 258 847 q 291 970 258 938 q 371 1003 324 1003 q 451 970 419 1003 q 483 893 483 938 q 451 814 483 846 q 371 782 419 782 z "},"ỵ":{"ha":749,"x_min":-21,"x_max":769,"o":"m 129 -290 q 67 -287 101 -290 q 4 -276 32 -285 l 32 -97 q 117 -107 71 -107 q 206 -76 171 -107 q 256 3 240 -44 l 265 33 l -21 722 l 206 722 l 346 310 q 376 194 365 254 q 407 310 388 254 l 547 722 l 769 722 l 450 -46 q 331 -223 404 -156 q 129 -290 257 -290 m 575 -296 q 495 -263 528 -296 q 463 -185 463 -231 q 495 -108 463 -140 q 575 -75 528 -75 q 656 -108 624 -75 q 688 -185 688 -140 q 656 -264 688 -232 q 575 -296 624 -296 z "},"ỳ":{"ha":749,"x_min":-21,"x_max":769,"o":"m 129 -290 q 67 -287 101 -290 q 4 -276 32 -285 l 32 -97 q 117 -107 71 -107 q 206 -76 171 -107 q 256 3 240 -44 l 265 33 l -21 722 l 206 722 l 346 310 q 376 194 365 254 q 407 310 388 254 l 547 722 l 769 722 l 450 -46 q 331 -223 404 -156 q 129 -290 257 -290 m 311 786 l 174 1028 l 394 1028 l 442 786 l 311 786 z "},"ỷ":{"ha":749,"x_min":-21,"x_max":769,"o":"m 129 -290 q 67 -287 101 -290 q 4 -276 32 -285 l 32 -97 q 117 -107 71 -107 q 206 -76 171 -107 q 256 3 240 -44 l 265 33 l -21 722 l 206 722 l 346 310 q 376 194 365 254 q 407 310 388 254 l 547 722 l 769 722 l 450 -46 q 331 -223 404 -156 q 129 -290 257 -290 m 368 774 q 290 792 329 774 l 322 885 q 339 879 329 881 q 354 878 349 878 q 401 919 401 878 q 390 946 401 935 q 363 957 378 957 q 333 946 344 957 q 322 915 322 935 l 206 915 q 251 1024 206 982 q 364 1065 297 1065 q 477 1027 432 1065 q 522 924 522 989 q 481 815 522 856 q 368 774 439 774 z "},"ỹ":{"ha":749,"x_min":-21,"x_max":769,"o":"m 129 -290 q 67 -287 101 -290 q 4 -276 32 -285 l 32 -97 q 117 -107 71 -107 q 206 -76 171 -107 q 256 3 240 -44 l 265 33 l -21 722 l 206 722 l 346 310 q 376 194 365 254 q 407 310 388 254 l 547 722 l 769 722 l 450 -46 q 331 -223 404 -156 q 129 -290 257 -290 m 483 774 q 413 787 442 774 q 364 818 385 800 q 322 849 343 836 q 274 863 301 863 q 223 839 236 863 q 210 793 210 815 l 90 793 q 117 901 90 858 q 187 966 144 944 q 275 988 229 988 q 347 974 317 988 q 399 944 376 961 q 442 915 422 928 q 482 901 461 901 q 522 927 514 901 q 531 972 531 953 l 651 972 q 610 828 651 883 q 483 774 568 774 z "},"z":{"ha":682,"x_min":19,"x_max":657,"o":"m 19 0 l 19 21 l 336 522 q 369 567 349 543 l 35 567 l 35 722 l 657 722 l 657 701 l 338 192 q 311 156 326 175 l 650 156 l 650 0 l 19 0 z "},"ź":{"ha":682,"x_min":19,"x_max":657,"o":"m 19 0 l 19 21 l 336 522 q 369 567 349 543 l 35 567 l 35 722 l 657 722 l 657 701 l 338 192 q 311 156 326 175 l 650 156 l 650 0 l 19 0 m 279 786 l 340 1028 l 532 1028 l 410 786 l 279 786 z "},"ž":{"ha":682,"x_min":19,"x_max":657,"o":"m 19 0 l 19 21 l 336 522 q 369 567 349 543 l 35 567 l 35 722 l 657 722 l 657 701 l 338 192 q 311 156 326 175 l 650 156 l 650 0 l 19 0 m 132 1028 l 297 1028 l 347 917 l 397 1028 l 560 1028 l 424 786 l 272 786 l 132 1028 z "},"ż":{"ha":682,"x_min":19,"x_max":657,"o":"m 19 0 l 19 21 l 336 522 q 369 567 349 543 l 35 567 l 35 722 l 657 722 l 657 701 l 338 192 q 311 156 326 175 l 650 156 l 650 0 l 19 0 m 347 782 q 267 815 300 782 q 235 893 235 847 q 267 970 235 938 q 347 1003 300 1003 q 428 970 396 1003 q 460 893 460 938 q 428 814 460 846 q 347 782 396 782 z "},"ẓ":{"ha":682,"x_min":19,"x_max":657,"o":"m 19 0 l 19 21 l 336 522 q 369 567 349 543 l 35 567 l 35 722 l 657 722 l 657 701 l 338 192 q 311 156 326 175 l 650 156 l 650 0 l 19 0 m 347 -296 q 267 -263 300 -296 q 235 -185 235 -231 q 267 -108 235 -140 q 347 -75 300 -75 q 428 -108 396 -75 q 460 -185 460 -140 q 428 -264 460 -232 q 347 -296 396 -296 z "},"ẕ":{"ha":682,"x_min":19,"x_max":657,"o":"m 19 0 l 19 21 l 336 522 q 369 567 349 543 l 35 567 l 35 722 l 657 722 l 657 701 l 338 192 q 311 156 326 175 l 650 156 l 650 0 l 19 0 m 135 -251 l 135 -126 l 560 -126 l 560 -251 l 135 -251 z "},"ꞌ":{"ha":400,"x_min":103,"x_max":297,"o":"m 135 365 l 103 801 l 103 972 l 297 972 l 297 801 l 265 365 l 135 365 z "},"ﬁ":{"ha":749,"x_min":7,"x_max":711,"o":"m 108 0 l 108 563 l 7 563 l 7 722 l 108 722 l 108 771 q 174 947 108 881 q 349 1014 239 1014 l 426 1014 l 426 854 l 378 854 q 296 768 296 854 l 296 722 l 443 722 l 443 563 l 296 563 l 296 0 l 108 0 m 599 782 q 519 815 551 782 q 486 893 486 847 q 519 970 486 938 q 599 1003 551 1003 q 679 970 647 1003 q 711 893 711 938 q 679 814 711 846 q 599 782 647 782 m 506 0 l 506 722 l 693 722 l 693 0 l 506 0 z "},"ﬂ":{"ha":749,"x_min":7,"x_max":693,"o":"m 108 0 l 108 563 l 7 563 l 7 722 l 108 722 l 108 771 q 174 947 108 881 q 349 1014 239 1014 l 426 1014 l 426 854 l 378 854 q 296 768 296 854 l 296 722 l 443 722 l 443 563 l 296 563 l 296 0 l 108 0 m 506 0 l 506 1014 l 693 1014 l 693 0 l 506 0 z "},"ª":{"ha":631,"x_min":26,"x_max":601,"o":"m 293 432 q 158 469 219 432 q 62 569 97 506 q 26 710 26 632 q 62 851 26 788 q 158 952 97 914 q 293 990 219 990 q 384 970 347 990 q 446 917 421 950 l 446 979 l 600 979 l 600 444 l 449 444 l 449 507 q 387 452 425 472 q 293 432 349 432 m 328 575 q 422 615 386 575 q 458 710 458 654 q 422 806 458 765 q 328 846 386 846 q 233 806 268 846 q 197 711 197 765 q 233 616 197 657 q 328 575 268 575 m 51 218 l 51 356 l 601 356 l 601 218 l 51 218 z "},"º":{"ha":625,"x_min":26,"x_max":599,"o":"m 313 433 q 165 471 229 433 q 63 572 100 508 q 26 711 26 635 q 63 852 26 789 q 165 953 100 915 q 313 990 229 990 q 460 953 396 990 q 562 852 525 915 q 599 711 599 789 q 562 572 599 635 q 460 471 525 508 q 313 433 396 433 m 313 578 q 404 617 369 578 q 439 711 439 657 q 404 806 439 765 q 313 846 369 846 q 219 806 254 846 q 185 711 185 765 q 219 617 185 657 q 313 578 254 578 m 51 218 l 51 356 l 574 356 l 574 218 l 51 218 z "},"π":{"ha":751,"x_min":15,"x_max":732,"o":"m 118 0 l 118 563 l 15 563 l 15 722 l 731 722 l 731 563 l 650 563 l 650 219 q 666 176 650 189 q 713 164 682 164 l 732 164 l 732 0 l 669 0 q 567 18 614 0 q 491 79 519 36 q 463 197 463 122 l 463 563 l 306 563 l 306 0 l 118 0 z "},"⁄":{"ha":801,"x_min":-118,"x_max":919,"o":"m -118 0 l 739 972 l 919 972 l 63 0 l -118 0 z "},"½":{"ha":1035,"x_min":-17,"x_max":1051,"o":"m 132 417 l 132 844 l 31 844 l 31 876 l 132 972 l 282 972 l 282 417 l 132 417 m -17 0 l 840 972 l 1021 972 l 164 0 l -17 0 m 621 -7 l 621 7 l 857 300 q 881 342 875 324 q 886 379 886 360 q 872 418 886 403 q 833 433 858 433 q 772 367 772 433 l 619 367 q 648 467 619 424 q 725 534 676 510 q 831 558 774 558 q 935 535 888 558 q 1010 471 982 511 q 1038 382 1038 431 q 1028 323 1038 351 q 993 257 1018 294 l 954 199 q 922 158 942 179 q 876 117 903 138 l 1051 117 l 1051 -7 l 621 -7 z "},"¼":{"ha":1004,"x_min":-17,"x_max":1021,"o":"m 133 417 l 133 844 l 32 844 l 32 876 l 133 972 l 283 972 l 283 417 l 133 417 m -17 0 l 840 972 l 1021 972 l 164 0 l -17 0 m 801 0 l 801 135 l 525 135 l 525 200 l 808 583 l 951 583 l 951 257 l 1004 257 l 1004 135 l 951 135 l 951 0 l 801 0 m 801 331 q 803 385 801 354 q 815 456 804 417 l 668 253 l 801 253 l 801 331 z "},"¾":{"ha":1011,"x_min":-10,"x_max":1028,"o":"m 208 408 q 58 454 119 408 q -3 590 -3 500 l 138 590 q 157 538 138 554 q 207 522 176 522 q 255 540 238 522 q 272 581 272 557 q 250 635 272 617 q 196 654 228 654 l 153 654 l 153 750 l 196 750 q 249 765 228 750 q 269 811 269 781 q 253 854 269 836 q 207 872 236 872 q 160 856 179 872 q 140 808 140 840 l 4 808 q 64 938 4 893 q 208 983 124 983 q 350 938 294 983 q 406 824 406 892 q 386 750 406 776 q 322 711 367 724 q 388 660 364 694 q 413 567 413 625 q 356 454 413 500 q 208 408 299 408 m -10 0 l 847 972 l 1028 972 l 171 0 l -10 0 m 789 0 l 789 121 l 513 121 l 513 186 l 796 556 l 939 556 l 939 243 l 992 243 l 992 121 l 939 121 l 939 0 l 789 0 m 789 290 q 790 347 789 315 q 804 419 792 379 l 672 239 l 789 239 l 789 290 z "}," ":{"ha":228,"x_min":0,"x_max":0,"o":""}," ":{"ha":228,"x_min":0,"x_max":0,"o":""}," ":{"ha":853,"x_min":0,"x_max":0,"o":""}," ":{"ha":310,"x_min":0,"x_max":0,"o":""}," ":{"ha":278,"x_min":0,"x_max":0,"o":""}," ":{"ha":115,"x_min":0,"x_max":0,"o":""},"​":{"ha":0,"x_min":0,"x_max":0,"o":""},"‌":{"ha":0,"x_min":0,"x_max":0,"o":""},"‍":{"ha":0,"x_min":0,"x_max":0,"o":""},"\r":{"ha":833,"x_min":0,"x_max":0,"o":""},".":{"ha":310,"x_min":31,"x_max":279,"o":"m 156 -18 q 66 18 101 -18 q 31 104 31 54 q 66 189 31 153 q 156 225 101 225 q 244 189 210 225 q 279 104 279 153 q 244 18 279 54 q 156 -18 210 -18 z "},",":{"ha":322,"x_min":42,"x_max":294,"o":"m 83 -193 l 46 -100 l 85 -86 q 150 -54 128 -71 q 182 -10 172 -37 q 150 -14 165 -14 q 75 19 108 -14 q 42 97 42 51 q 76 174 42 142 q 156 207 110 207 q 256 164 218 207 q 294 46 294 121 q 247 -93 294 -35 q 122 -179 200 -151 l 83 -193 z "},":":{"ha":310,"x_min":31,"x_max":279,"o":"m 156 518 q 66 554 101 518 q 31 640 31 590 q 66 725 31 689 q 156 761 101 761 q 244 725 210 761 q 279 640 279 689 q 244 554 279 590 q 156 518 210 518 m 156 -18 q 66 18 101 -18 q 31 104 31 54 q 66 189 31 153 q 156 225 101 225 q 244 189 210 225 q 279 104 279 153 q 244 18 279 54 q 156 -18 210 -18 z "},";":{"ha":315,"x_min":31,"x_max":294,"o":"m 83 -193 l 46 -100 l 85 -86 q 150 -54 128 -71 q 182 -10 172 -37 q 150 -14 165 -14 q 75 19 108 -14 q 42 97 42 51 q 76 174 42 142 q 156 207 110 207 q 256 164 218 207 q 294 46 294 121 q 247 -93 294 -35 q 122 -179 200 -151 l 83 -193 m 156 518 q 66 554 101 518 q 31 640 31 590 q 66 725 31 689 q 156 761 101 761 q 244 725 210 761 q 279 640 279 689 q 244 554 279 590 q 156 518 210 518 z "},"…":{"ha":892,"x_min":31,"x_max":861,"o":"m 446 -18 q 358 17 393 -18 q 324 103 324 53 q 358 185 324 150 q 446 221 393 221 q 533 185 499 221 q 567 103 567 150 q 533 17 567 53 q 446 -18 499 -18 m 740 -18 q 653 17 688 -18 q 618 103 618 53 q 653 185 618 150 q 740 221 688 221 q 827 185 793 221 q 861 103 861 150 q 827 17 861 53 q 740 -18 793 -18 m 153 -18 q 65 17 100 -18 q 31 103 31 53 q 65 185 31 150 q 153 221 100 221 q 240 185 206 221 q 274 103 274 150 q 240 17 274 53 q 153 -18 206 -18 z "},"!":{"ha":338,"x_min":44,"x_max":293,"o":"m 107 268 l 75 801 l 75 972 l 269 972 l 269 801 l 238 268 l 107 268 m 169 -18 q 80 18 115 -18 q 44 104 44 54 q 80 189 44 153 q 169 225 115 225 q 258 189 224 225 q 293 104 293 153 q 258 18 293 54 q 169 -18 224 -18 z "},"¡":{"ha":338,"x_min":44,"x_max":293,"o":"m 168 742 q 258 706 222 742 q 293 619 293 669 q 258 535 293 571 q 168 499 222 499 q 79 535 114 499 q 44 619 44 571 q 79 706 44 669 q 168 742 114 742 m 231 456 l 263 -78 l 263 -249 l 68 -249 l 68 -78 l 100 456 l 231 456 z "},"?":{"ha":722,"x_min":33,"x_max":667,"o":"m 276 268 l 249 560 q 318 547 274 547 q 439 590 399 547 q 479 694 479 633 q 449 783 479 744 q 357 822 418 822 q 256 791 292 822 q 221 694 221 760 l 33 694 q 120 913 33 835 q 357 990 207 990 q 527 951 458 990 q 631 847 596 913 q 667 703 667 782 q 645 590 667 649 q 570 483 624 531 q 421 421 517 436 l 407 268 l 276 268 m 339 -18 q 249 18 285 -18 q 214 104 214 54 q 249 189 214 153 q 339 225 285 225 q 428 189 393 225 q 463 104 463 153 q 428 18 463 54 q 339 -18 393 -18 z "},"¿":{"ha":722,"x_min":56,"x_max":689,"o":"m 383 743 q 473 707 438 743 q 508 621 508 671 q 473 536 508 572 q 383 500 438 500 q 294 536 329 500 q 260 621 260 572 q 294 707 260 671 q 383 743 329 743 m 446 457 l 474 165 q 404 178 449 178 q 283 135 324 178 q 243 31 243 92 q 274 -58 243 -19 q 365 -97 304 -97 q 466 -65 431 -97 q 501 31 501 -33 l 689 31 q 602 -187 689 -108 q 365 -265 515 -265 q 196 -226 265 -265 q 91 -122 126 -187 q 56 22 56 -57 q 77 135 56 76 q 152 242 99 194 q 301 304 206 289 l 315 457 l 446 457 z "},"·":{"ha":310,"x_min":31,"x_max":279,"o":"m 156 357 q 66 393 101 357 q 31 479 31 429 q 66 564 31 528 q 156 600 101 600 q 244 564 210 600 q 279 479 279 528 q 244 393 279 429 q 156 357 210 357 z "},"•":{"ha":424,"x_min":25,"x_max":399,"o":"m 213 306 q 116 331 158 306 q 49 399 74 357 q 25 490 25 440 q 49 580 25 539 q 116 646 74 621 q 213 671 158 671 q 309 646 267 671 q 375 580 351 621 q 399 490 399 539 q 375 399 399 440 q 309 331 351 357 q 213 306 267 306 z "},"*":{"ha":489,"x_min":14,"x_max":475,"o":"m 425 628 l 322 553 l 243 685 l 164 554 l 60 629 l 164 747 l 14 783 l 53 906 l 194 844 l 182 996 l 310 996 l 296 844 l 435 903 l 475 781 l 324 747 l 425 628 z "},"‼":{"ha":592,"x_min":44,"x_max":575,"o":"m 389 268 l 357 801 l 357 972 l 551 972 l 551 801 l 519 268 l 389 268 m 451 -18 q 362 18 397 -18 q 326 104 326 54 q 362 189 326 153 q 451 225 397 225 q 540 189 506 225 q 575 104 575 153 q 540 18 575 54 q 451 -18 506 -18 m 107 268 l 75 801 l 75 972 l 269 972 l 269 801 l 238 268 l 107 268 m 169 -18 q 80 18 115 -18 q 44 104 44 54 q 80 189 44 153 q 169 225 115 225 q 258 189 224 225 q 293 104 293 153 q 258 18 293 54 q 169 -18 224 -18 z "},"‽":{"ha":722,"x_min":33,"x_max":667,"o":"m 288 268 l 251 767 l 444 767 l 435 588 q 493 694 493 615 q 460 798 493 756 q 354 840 426 840 q 249 806 290 840 q 208 694 208 771 l 33 694 q 118 913 33 835 q 353 990 203 990 q 524 951 454 990 q 630 847 593 913 q 667 703 667 782 q 646 591 667 650 q 573 485 625 532 q 426 421 521 438 l 418 268 l 288 268 m 350 -18 q 260 18 296 -18 q 225 104 225 54 q 260 189 225 153 q 350 225 296 225 q 439 189 404 225 q 474 104 474 153 q 439 18 474 54 q 350 -18 404 -18 z "},"⸘":{"ha":722,"x_min":54,"x_max":688,"o":"m 371 744 q 460 708 425 744 q 496 622 496 672 q 460 538 496 574 q 371 501 425 501 q 282 538 317 501 q 247 622 247 574 q 282 708 247 672 q 371 744 317 744 m 433 458 l 469 -40 l 276 -40 l 286 139 q 228 32 228 111 q 261 -72 228 -29 q 367 -114 294 -114 q 472 -79 431 -114 q 513 32 513 -44 l 688 32 q 603 -185 688 -107 q 368 -264 518 -264 q 198 -225 268 -264 q 91 -121 128 -186 q 54 24 54 -56 q 75 135 54 76 q 148 242 96 194 q 294 306 200 289 l 303 458 l 433 458 z "},"#":{"ha":949,"x_min":39,"x_max":910,"o":"m 85 0 l 150 265 l 39 265 l 39 414 l 190 414 l 242 622 l 60 622 l 60 771 l 276 771 l 338 1014 l 504 1014 l 443 771 l 625 771 l 685 1014 l 851 1014 l 790 771 l 910 771 l 910 622 l 750 622 l 697 414 l 889 414 l 889 265 l 663 265 l 596 0 l 432 0 l 499 265 l 315 265 l 249 0 l 85 0 m 346 414 l 542 414 l 594 622 l 399 622 l 346 414 z "},"/":{"ha":947,"x_min":35,"x_max":913,"o":"m 35 0 l 704 1014 l 913 1014 l 240 0 l 35 0 z "},"\\":{"ha":1017,"x_min":104,"x_max":982,"o":"m 982 0 l 776 0 l 104 1014 l 313 1014 l 982 0 z "},"-":{"ha":453,"x_min":28,"x_max":425,"o":"m 28 292 l 28 474 l 425 474 l 425 292 l 28 292 z "},"–":{"ha":878,"x_min":42,"x_max":836,"o":"m 42 292 l 42 474 l 836 474 l 836 292 l 42 292 z "},"—":{"ha":1156,"x_min":42,"x_max":1114,"o":"m 42 292 l 42 474 l 1114 474 l 1114 292 l 42 292 z "},"_":{"ha":758,"x_min":69,"x_max":689,"o":"m 69 -160 l 69 0 l 689 0 l 689 -160 l 69 -160 z "}}}
